COMMENT @(#)48	1.2  src/bos/usr/lpp/tls/fonts/Chtp112.bdf, cmdtw, bos411, 9428A410j 2/24/94 13:16:11
COMMENT
COMMENT   COMPONENT_NAME: cmdtw
COMMENT
COMMENT   FUNCTIONS: none
COMMENT
COMMENT   ORIGINS: 27
COMMENT
COMMENT   IBM CONFIDENTIAL -- (IBM Confidential Restricted when
COMMENT   combined with the aggregated modules for this product)
COMMENT                    SOURCE MATERIALS
COMMENT
COMMENT   (C) COPYRIGHT International Business Machines Corp. 1992
COMMENT   All Rights Reserved
COMMENT   US Government Users Restricted Rights - Use, duplication or
COMMENT   disclosure restricted by GSA ADP Schedule Contract with IBM Corp.
COMMENT
STARTFONT 2.1
FONT  -IBM_AIX-Sung-Medium-R-Normal--19-120-100-100-M-180-CNS11643.1986-1
SIZE 19 100 100
FONTBOUNDINGBOX 18 19 0 -1
STARTPROPERTIES 20
FONTNAME_REGISTRY "_"
FOUNDRY "IBM_AIX "
FAMILY_NAME "Sung"
WEIGHT_NAME "Medium "
SLANT "R"
SETWIDTH_NAME "Normal"
ADD_STYLE_NAME ""
PIXEL_SIZE 19
POINT_SIZE 120
RESOLUTION_X 100
RESOLUTION_Y 100
SPACING "M"
AVERAGE_WIDTH 180
CHARSET_REGISTRY "CNS11643.1986"
CHARSET_ENCODING "1"
FONT_ASCENT 18
FONT_DESCENT 1
DEFAULT_CHAR 0
CAP_HEIGHT 19
COPYRIGHT "Copyright, 1992 by IBM."
ENDPROPERTIES
CHARS 6085
STARTCHAR 2121
ENCODING 8481
SWIDTH 666 0
DWIDTH 18 0
BBX 18 19 0 -1
BITMAP
000000
000000
000000
000000
000000
000000
000000
000000
000000
000000
000000
000000
000000
000000
000000
000000
000000
000000
000000
ENDCHAR
STARTCHAR 2122
ENCODING 8482
SWIDTH 666 0
DWIDTH 18 0
BBX 18 19 0 -1
BITMAP
000000
000000
000000
000000
000000
000000
000000
000000
000000
000000
000000
000000
000000
300000
300000
100000
200000
000000
000000
ENDCHAR
STARTCHAR 2123
ENCODING 8483
SWIDTH 666 0
DWIDTH 18 0
BBX 18 19 0 -1
BITMAP
000000
000000
000000
000000
000000
000000
000000
000000
000000
000000
000000
000000
400000
300000
180000
0c0000
080000
000000
000000
ENDCHAR
STARTCHAR 2124
ENCODING 8484
SWIDTH 666 0
DWIDTH 18 0
BBX 18 19 0 -1
BITMAP
000000
000000
000000
000000
000000
000000
000000
000000
000000
000000
000000
000000
380000
440000
440000
440000
380000
000000
000000
ENDCHAR
STARTCHAR 2125
ENCODING 8485
SWIDTH 666 0
DWIDTH 18 0
BBX 18 19 0 -1
BITMAP
000000
000000
000000
000000
000000
000000
000000
000000
000000
000000
000000
000000
000000
000000
300000
300000
000000
000000
000000
ENDCHAR
STARTCHAR 2126
ENCODING 8486
SWIDTH 666 0
DWIDTH 18 0
BBX 18 19 0 -1
BITMAP
000000
000000
000000
000000
000000
000000
000000
000000
018000
018000
000000
000000
000000
000000
000000
000000
000000
000000
000000
ENDCHAR
STARTCHAR 2127
ENCODING 8487
SWIDTH 666 0
DWIDTH 18 0
BBX 18 19 0 -1
BITMAP
000000
000000
000000
000000
018000
018000
000000
000000
000000
000000
000000
018000
018000
008000
010000
000000
000000
000000
000000
ENDCHAR
STARTCHAR 2128
ENCODING 8488
SWIDTH 666 0
DWIDTH 18 0
BBX 18 19 0 -1
BITMAP
000000
000000
000000
000000
000000
018000
018000
000000
000000
000000
000000
018000
018000
000000
000000
000000
000000
000000
000000
ENDCHAR
STARTCHAR 2129
ENCODING 8489
SWIDTH 666 0
DWIDTH 18 0
BBX 18 19 0 -1
BITMAP
000000
000000
03e000
041000
080800
080800
0e0800
043000
004000
008000
008000
000000
000000
008000
01c000
008000
000000
000000
000000
ENDCHAR
STARTCHAR 212a
ENCODING 8490
SWIDTH 666 0
DWIDTH 18 0
BBX 18 19 0 -1
BITMAP
000000
000000
008000
01c000
01c000
01c000
01c000
01c000
008000
008000
008000
000000
000000
008000
01c000
008000
000000
000000
000000
ENDCHAR
STARTCHAR 212b
ENCODING 8491
SWIDTH 666 0
DWIDTH 18 0
BBX 18 19 0 -1
BITMAP
000000
000000
000000
000000
000000
000000
008000
01c000
008000
000000
008000
01c000
008000
000000
000000
000000
000000
000000
000000
ENDCHAR
STARTCHAR 212c
ENCODING 8492
SWIDTH 666 0
DWIDTH 18 0
BBX 18 19 0 -1
BITMAP
000000
000000
000000
000000
000000
000000
000000
000000
618600
618600
000000
000000
000000
000000
000000
000000
000000
000000
000000
ENDCHAR
STARTCHAR 212d
ENCODING 8493
SWIDTH 666 0
DWIDTH 18 0
BBX 18 19 0 -1
BITMAP
000000
000000
000000
000000
000000
000000
000000
000000
181800
181800
000000
000000
000000
000000
000000
000000
000000
000000
000000
ENDCHAR
STARTCHAR 212e
ENCODING 8494
SWIDTH 666 0
DWIDTH 18 0
BBX 18 19 0 -1
BITMAP
000000
000000
000000
000000
000000
000000
000000
010000
038000
010000
020000
000000
000000
000000
000000
000000
000000
000000
000000
ENDCHAR
STARTCHAR 212f
ENCODING 8495
SWIDTH 666 0
DWIDTH 18 0
BBX 18 19 0 -1
BITMAP
000000
000000
000000
000000
000000
000000
000000
040000
020000
030000
030000
000000
000000
000000
000000
000000
000000
000000
000000
ENDCHAR
STARTCHAR 2130
ENCODING 8496
SWIDTH 666 0
DWIDTH 18 0
BBX 18 19 0 -1
BITMAP
000000
000000
000000
000000
000000
000000
000000
000000
000000
010000
038000
010000
000000
000000
000000
000000
000000
000000
000000
ENDCHAR
STARTCHAR 2131
ENCODING 8497
SWIDTH 666 0
DWIDTH 18 0
BBX 18 19 0 -1
BITMAP
000000
000000
000000
000000
000000
000000
000000
200000
700000
200000
000000
000000
000000
000000
000000
000000
000000
000000
000000
ENDCHAR
STARTCHAR 2132
ENCODING 8498
SWIDTH 666 0
DWIDTH 18 0
BBX 18 19 0 -1
BITMAP
000000
000000
000000
000000
000000
020000
070000
020000
000000
020000
070000
020000
040000
000000
000000
000000
000000
000000
000000
ENDCHAR
STARTCHAR 2133
ENCODING 8499
SWIDTH 666 0
DWIDTH 18 0
BBX 18 19 0 -1
BITMAP
000000
000000
000000
000000
000000
000000
010000
038000
010000
000000
010000
038000
010000
000000
000000
000000
000000
000000
000000
ENDCHAR
STARTCHAR 2134
ENCODING 8500
SWIDTH 666 0
DWIDTH 18 0
BBX 18 19 0 -1
BITMAP
000000
000000
000000
000000
070000
0d8000
098000
018000
030000
020000
020000
000000
020000
070000
020000
000000
000000
000000
000000
ENDCHAR
STARTCHAR 2135
ENCODING 8501
SWIDTH 666 0
DWIDTH 18 0
BBX 18 19 0 -1
BITMAP
000000
000000
000000
000000
010000
038000
038000
010000
010000
000000
010000
038000
010000
000000
000000
000000
000000
000000
000000
ENDCHAR
STARTCHAR 2136
ENCODING 8502
SWIDTH 666 0
DWIDTH 18 0
BBX 18 19 0 -1
BITMAP
000000
000000
008000
008000
008000
008000
008000
008000
008000
008000
008000
008000
008000
008000
008000
008000
000000
000000
000000
ENDCHAR
STARTCHAR 2137
ENCODING 8503
SWIDTH 666 0
DWIDTH 18 0
BBX 18 19 0 -1
BITMAP
000000
000000
000000
000000
000000
000000
000000
000000
1ffc00
000000
000000
000000
000000
000000
000000
000000
000000
000000
000000
ENDCHAR
STARTCHAR 2138
ENCODING 8504
SWIDTH 666 0
DWIDTH 18 0
BBX 18 19 0 -1
BITMAP
000000
000000
000000
000000
000000
000000
018000
018000
018000
018000
018000
018000
018000
000000
000000
000000
000000
000000
000000
ENDCHAR
STARTCHAR 2139
ENCODING 8505
SWIDTH 666 0
DWIDTH 18 0
BBX 18 19 0 -1
BITMAP
000000
000000
000000
000000
000000
000000
000000
000000
07c000
07c000
000000
000000
000000
000000
000000
000000
000000
000000
000000
ENDCHAR
STARTCHAR 213a
ENCODING 8506
SWIDTH 666 0
DWIDTH 18 0
BBX 18 19 0 -1
BITMAP
000000
000100
000100
000100
000100
000100
000100
000100
000100
000100
000100
000100
000100
000100
000100
000100
000100
000000
000000
ENDCHAR
STARTCHAR 213b
ENCODING 8507
SWIDTH 666 0
DWIDTH 18 0
BBX 18 19 0 -1
BITMAP
000000
ffff00
000000
000000
000000
000000
000000
000000
000000
000000
000000
000000
000000
000000
000000
000000
000000
000000
000000
ENDCHAR
STARTCHAR 213c
ENCODING 8508
SWIDTH 666 0
DWIDTH 18 0
BBX 18 19 0 -1
BITMAP
000000
000400
000200
000100
000200
000400
000200
000100
000200
000400
000200
000100
000200
000400
000200
000100
000200
000000
000000
ENDCHAR
STARTCHAR 213d
ENCODING 8509
SWIDTH 666 0
DWIDTH 18 0
BBX 18 19 0 -1
BITMAP
000000
222200
555500
088800
000000
000000
000000
000000
000000
000000
000000
000000
000000
000000
000000
000000
000000
000000
000000
ENDCHAR
STARTCHAR 213e
ENCODING 8510
SWIDTH 666 0
DWIDTH 18 0
BBX 18 19 0 -1
BITMAP
000000
000200
000400
000800
000800
000800
001000
001000
001000
001000
001000
001000
000800
000800
000800
000400
000200
000000
000000
ENDCHAR
STARTCHAR 213f
ENCODING 8511
SWIDTH 666 0
DWIDTH 18 0
BBX 18 19 0 -1
BITMAP
000000
200000
100000
080000
080000
080000
040000
040000
040000
040000
040000
040000
080000
080000
080000
100000
200000
000000
000000
ENDCHAR
STARTCHAR 2140
ENCODING 8512
SWIDTH 666 0
DWIDTH 18 0
BBX 18 19 0 -1
BITMAP
000000
000000
000000
000000
000000
000000
000000
000000
000000
000000
03e000
0c1800
100400
200200
400100
000000
000000
000000
000000
ENDCHAR
STARTCHAR 2141
ENCODING 8513
SWIDTH 666 0
DWIDTH 18 0
BBX 18 19 0 -1
BITMAP
000000
000000
000000
400100
200200
100400
0c1800
03e000
000000
000000
000000
000000
000000
000000
000000
000000
000000
000000
000000
ENDCHAR
STARTCHAR 2142
ENCODING 8514
SWIDTH 666 0
DWIDTH 18 0
BBX 18 19 0 -1
BITMAP
000000
000600
000800
000800
000800
000800
000800
000800
001000
001000
000800
000800
000800
000800
000800
000800
000600
000000
000000
ENDCHAR
STARTCHAR 2143
ENCODING 8515
SWIDTH 666 0
DWIDTH 18 0
BBX 18 19 0 -1
BITMAP
000000
300000
080000
080000
080000
080000
080000
080000
040000
040000
080000
080000
080000
080000
080000
080000
300000
000000
000000
ENDCHAR
STARTCHAR 2144
ENCODING 8516
SWIDTH 666 0
DWIDTH 18 0
BBX 18 19 0 -1
BITMAP
000000
000000
000000
000000
000000
000000
000000
000000
000000
000000
008000
014000
1e3c00
200200
400100
000000
000000
000000
000000
ENDCHAR
STARTCHAR 2145
ENCODING 8517
SWIDTH 666 0
DWIDTH 18 0
BBX 18 19 0 -1
BITMAP
000000
000000
000000
400100
200200
1e3c00
014000
008000
000000
000000
000000
000000
000000
000000
000000
000000
000000
000000
000000
ENDCHAR
STARTCHAR 2146
ENCODING 8518
SWIDTH 666 0
DWIDTH 18 0
BBX 18 19 0 -1
BITMAP
000000
000600
001800
001000
001000
001000
001000
001000
001000
001000
001000
001000
001000
001000
001000
001800
000600
000000
000000
ENDCHAR
STARTCHAR 2147
ENCODING 8519
SWIDTH 666 0
DWIDTH 18 0
BBX 18 19 0 -1
BITMAP
000000
300000
0c0000
040000
040000
040000
040000
040000
040000
040000
040000
040000
040000
040000
040000
0c0000
300000
000000
000000
ENDCHAR
STARTCHAR 2148
ENCODING 8520
SWIDTH 666 0
DWIDTH 18 0
BBX 18 19 0 -1
BITMAP
000000
000000
000000
000000
000000
000000
000000
000000
000000
000000
000000
000000
1ff800
200400
400200
000000
000000
000000
000000
ENDCHAR
STARTCHAR 2149
ENCODING 8521
SWIDTH 666 0
DWIDTH 18 0
BBX 18 19 0 -1
BITMAP
000000
000000
000000
400200
200400
1ff800
000000
000000
000000
000000
000000
000000
000000
000000
000000
000000
000000
000000
000000
ENDCHAR
STARTCHAR 214a
ENCODING 8522
SWIDTH 666 0
DWIDTH 18 0
BBX 18 19 0 -1
BITMAP
000000
001e00
001c00
001800
001800
001000
001000
001000
001000
001000
001000
001000
001000
001800
001800
001c00
001e00
000000
000000
ENDCHAR
STARTCHAR 214b
ENCODING 8523
SWIDTH 666 0
DWIDTH 18 0
BBX 18 19 0 -1
BITMAP
000000
3c0000
1c0000
0c0000
0c0000
040000
040000
040000
040000
040000
040000
040000
040000
0c0000
0c0000
1c0000
3c0000
000000
000000
ENDCHAR
STARTCHAR 214c
ENCODING 8524
SWIDTH 666 0
DWIDTH 18 0
BBX 18 19 0 -1
BITMAP
000000
000000
000000
000000
000000
000000
000000
000000
000000
000000
7fff00
7fff00
780f00
600300
400100
000000
000000
000000
000000
ENDCHAR
STARTCHAR 214d
ENCODING 8525
SWIDTH 666 0
DWIDTH 18 0
BBX 18 19 0 -1
BITMAP
000000
000000
000000
400100
600300
780f00
7fff00
7fff00
000000
000000
000000
000000
000000
000000
000000
000000
000000
000000
000000
ENDCHAR
STARTCHAR 214e
ENCODING 8526
SWIDTH 666 0
DWIDTH 18 0
BBX 18 19 0 -1
BITMAP
000000
001200
002400
002400
004800
004800
009000
009000
012000
012000
009000
009000
004800
004800
002400
002400
001200
000000
000000
ENDCHAR
STARTCHAR 214f
ENCODING 8527
SWIDTH 666 0
DWIDTH 18 0
BBX 18 19 0 -1
BITMAP
000000
240000
120000
120000
090000
090000
048000
048000
024000
024000
048000
048000
090000
090000
120000
120000
240000
000000
000000
ENDCHAR
STARTCHAR 2150
ENCODING 8528
SWIDTH 666 0
DWIDTH 18 0
BBX 18 19 0 -1
BITMAP
000000
000000
000000
000000
000000
008000
014000
022000
049000
094800
122400
241200
480900
100400
200200
400100
000000
000000
000000
ENDCHAR
STARTCHAR 2151
ENCODING 8529
SWIDTH 666 0
DWIDTH 18 0
BBX 18 19 0 -1
BITMAP
000000
000000
400100
200200
100400
480900
241200
122400
094800
049000
022000
014000
008000
000000
000000
000000
000000
000000
000000
ENDCHAR
STARTCHAR 2152
ENCODING 8530
SWIDTH 666 0
DWIDTH 18 0
BBX 18 19 0 -1
BITMAP
000000
000200
000400
000400
000800
000800
001000
001000
002000
002000
001000
001000
000800
000800
000400
000400
000200
000000
000000
ENDCHAR
STARTCHAR 2153
ENCODING 8531
SWIDTH 666 0
DWIDTH 18 0
BBX 18 19 0 -1
BITMAP
000000
200000
100000
100000
080000
080000
040000
040000
020000
020000
040000
040000
080000
080000
100000
100000
200000
000000
000000
ENDCHAR
STARTCHAR 2154
ENCODING 8532
SWIDTH 666 0
DWIDTH 18 0
BBX 18 19 0 -1
BITMAP
000000
000000
000000
000000
000000
000000
000000
000000
008000
014000
022000
041000
080800
100400
200200
400100
000000
000000
000000
ENDCHAR
STARTCHAR 2155
ENCODING 8533
SWIDTH 666 0
DWIDTH 18 0
BBX 18 19 0 -1
BITMAP
000000
000000
400100
200200
100400
080800
041000
022000
014000
008000
000000
000000
000000
000000
000000
000000
000000
000000
000000
ENDCHAR
STARTCHAR 2156
ENCODING 8534
SWIDTH 666 0
DWIDTH 18 0
BBX 18 19 0 -1
BITMAP
000000
007e00
004000
004000
004000
004000
004000
004000
004000
004000
004000
000000
000000
000000
000000
000000
000000
000000
000000
ENDCHAR
STARTCHAR 2157
ENCODING 8535
SWIDTH 666 0
DWIDTH 18 0
BBX 18 19 0 -1
BITMAP
000000
000000
000000
000000
000000
000000
000000
010000
010000
010000
010000
010000
010000
010000
010000
010000
3f0000
000000
000000
ENDCHAR
STARTCHAR 2158
ENCODING 8536
SWIDTH 666 0
DWIDTH 18 0
BBX 18 19 0 -1
BITMAP
000000
000000
000000
000000
000000
000000
000000
000000
000000
000000
7ffe00
000200
000200
000200
000200
000200
000000
000000
000000
ENDCHAR
STARTCHAR 2159
ENCODING 8537
SWIDTH 666 0
DWIDTH 18 0
BBX 18 19 0 -1
BITMAP
000000
000000
400000
400000
400000
400000
400000
7ffe00
000000
000000
000000
000000
000000
000000
000000
000000
000000
000000
000000
ENDCHAR
STARTCHAR 215a
ENCODING 8538
SWIDTH 666 0
DWIDTH 18 0
BBX 18 19 0 -1
BITMAP
000000
007e00
004200
005e00
005000
005000
005000
005000
005000
005000
007000
000000
000000
000000
000000
000000
000000
000000
000000
ENDCHAR
STARTCHAR 215b
ENCODING 8539
SWIDTH 666 0
DWIDTH 18 0
BBX 18 19 0 -1
BITMAP
000000
000000
000000
000000
000000
000000
000000
070000
050000
050000
050000
050000
050000
050000
3d0000
210000
3f0000
000000
000000
ENDCHAR
STARTCHAR 215c
ENCODING 8540
SWIDTH 666 0
DWIDTH 18 0
BBX 18 19 0 -1
BITMAP
000000
000000
000000
000000
000000
000000
000000
000000
000000
7ffe00
400200
7ffa00
000a00
000a00
000a00
000e00
000000
000000
000000
ENDCHAR
STARTCHAR 215d
ENCODING 8541
SWIDTH 666 0
DWIDTH 18 0
BBX 18 19 0 -1
BITMAP
000000
000000
700000
500000
500000
500000
5ffe00
400200
7ffe00
000000
000000
000000
000000
000000
000000
000000
000000
000000
000000
ENDCHAR
STARTCHAR 215e
ENCODING 8542
SWIDTH 666 0
DWIDTH 18 0
BBX 18 19 0 -1
BITMAP
000000
000000
000000
000000
000000
001000
006000
00c000
018000
018000
00c000
006000
001000
000000
000000
000000
000000
000000
000000
ENDCHAR
STARTCHAR 215f
ENCODING 8543
SWIDTH 666 0
DWIDTH 18 0
BBX 18 19 0 -1
BITMAP
000000
000000
000000
000000
000000
080000
060000
030000
018000
018000
030000
060000
080000
000000
000000
000000
000000
000000
000000
ENDCHAR
STARTCHAR 2160
ENCODING 8544
SWIDTH 666 0
DWIDTH 18 0
BBX 18 19 0 -1
BITMAP
000000
000000
000000
000c00
001000
003000
002000
00c000
018000
00c000
002000
003000
001000
000c00
000000
000000
000000
000000
000000
ENDCHAR
STARTCHAR 2161
ENCODING 8545
SWIDTH 666 0
DWIDTH 18 0
BBX 18 19 0 -1
BITMAP
000000
000000
000000
600000
100000
180000
080000
060000
030000
060000
080000
180000
100000
600000
000000
000000
000000
000000
000000
ENDCHAR
STARTCHAR 2162
ENCODING 8546
SWIDTH 666 0
DWIDTH 18 0
BBX 18 19 0 -1
BITMAP
000000
000000
000000
000000
006000
00c000
018000
010000
010000
010000
010000
018000
00c000
006000
000000
000000
000000
000000
000000
ENDCHAR
STARTCHAR 2163
ENCODING 8547
SWIDTH 666 0
DWIDTH 18 0
BBX 18 19 0 -1
BITMAP
000000
000000
000000
000000
0c0000
060000
030000
010000
010000
010000
010000
030000
060000
0c0000
000000
000000
000000
000000
000000
ENDCHAR
STARTCHAR 2164
ENCODING 8548
SWIDTH 666 0
DWIDTH 18 0
BBX 18 19 0 -1
BITMAP
000000
000400
000800
000c00
000c00
000000
000000
000000
000000
000000
000000
000000
000000
000000
000000
000000
000000
000000
000000
ENDCHAR
STARTCHAR 2165
ENCODING 8549
SWIDTH 666 0
DWIDTH 18 0
BBX 18 19 0 -1
BITMAP
000000
180000
180000
080000
100000
000000
000000
000000
000000
000000
000000
000000
000000
000000
000000
000000
000000
000000
000000
ENDCHAR
STARTCHAR 2166
ENCODING 8550
SWIDTH 666 0
DWIDTH 18 0
BBX 18 19 0 -1
BITMAP
000000
001200
002400
003600
003600
000000
000000
000000
000000
000000
000000
000000
000000
000000
000000
000000
000000
000000
000000
ENDCHAR
STARTCHAR 2167
ENCODING 8551
SWIDTH 666 0
DWIDTH 18 0
BBX 18 19 0 -1
BITMAP
000000
360000
360000
120000
240000
000000
000000
000000
000000
000000
000000
000000
000000
000000
000000
000000
000000
000000
000000
ENDCHAR
STARTCHAR 2168
ENCODING 8552
SWIDTH 666 0
DWIDTH 18 0
BBX 18 19 0 -1
BITMAP
000000
220000
660000
330000
198000
044000
000000
000000
000000
000000
000000
000000
000000
000000
000000
000000
000000
000000
000000
ENDCHAR
STARTCHAR 2169
ENCODING 8553
SWIDTH 666 0
DWIDTH 18 0
BBX 18 19 0 -1
BITMAP
000000
004400
006600
00cc00
019800
022000
000000
000000
000000
000000
000000
000000
000000
000000
000000
000000
000000
000000
000000
ENDCHAR
STARTCHAR 216a
ENCODING 8554
SWIDTH 666 0
DWIDTH 18 0
BBX 18 19 0 -1
BITMAP
000000
030000
00c000
000000
000000
000000
000000
000000
000000
000000
000000
000000
000000
000000
000000
000000
000000
000000
000000
ENDCHAR
STARTCHAR 216b
ENCODING 8555
SWIDTH 666 0
DWIDTH 18 0
BBX 18 19 0 -1
BITMAP
000000
006000
018000
000000
000000
000000
000000
000000
000000
000000
000000
000000
000000
000000
000000
000000
000000
000000
000000
ENDCHAR
STARTCHAR 216c
ENCODING 8556
SWIDTH 666 0
DWIDTH 18 0
BBX 18 19 0 -1
BITMAP
000000
000000
021000
021000
021000
021000
7ffe00
042000
042000
042000
042000
7ffe00
084000
084000
084000
084000
000000
000000
000000
ENDCHAR
STARTCHAR 216d
ENCODING 8557
SWIDTH 666 0
DWIDTH 18 0
BBX 18 19 0 -1
BITMAP
000000
000000
038000
044000
044000
044000
028000
030000
050000
088800
088800
105000
103000
102000
085200
078c00
000000
000000
000000
ENDCHAR
STARTCHAR 216e
ENCODING 8558
SWIDTH 666 0
DWIDTH 18 0
BBX 18 19 0 -1
BITMAP
000000
000000
000000
000000
208200
108400
088800
049000
02a000
3ffe00
02a000
049000
088800
108400
208200
000000
000000
000000
000000
ENDCHAR
STARTCHAR 216f
ENCODING 8559
SWIDTH 666 0
DWIDTH 18 0
BBX 18 19 0 -1
BITMAP
000000
000000
418200
218400
100800
081000
042000
024000
618600
618600
024000
042000
081000
100800
218400
418200
000000
000000
000000
ENDCHAR
STARTCHAR 2170
ENCODING 8560
SWIDTH 666 0
DWIDTH 18 0
BBX 18 19 0 -1
BITMAP
000000
000000
01c000
022000
022000
010000
008000
014000
022000
022000
014000
008000
004000
022000
022000
01c000
000000
000000
000000
ENDCHAR
STARTCHAR 2171
ENCODING 8561
SWIDTH 666 0
DWIDTH 18 0
BBX 18 19 0 -1
BITMAP
000000
000000
000000
000000
000000
000000
000000
022000
033000
033000
022000
044000
088000
110000
220000
000000
000000
000000
000000
ENDCHAR
STARTCHAR 2172
ENCODING 8562
SWIDTH 666 0
DWIDTH 18 0
BBX 18 19 0 -1
BITMAP
000000
000000
03c000
0c3000
100800
200400
200400
400200
400200
400200
400200
200400
200400
100800
0c3000
03c000
000000
000000
000000
ENDCHAR
STARTCHAR 2173
ENCODING 8563
SWIDTH 666 0
DWIDTH 18 0
BBX 18 19 0 -1
BITMAP
000000
000000
03c000
0ff000
1ff800
3ffc00
3ffc00
7ffe00
7ffe00
7ffe00
7ffe00
3ffc00
3ffc00
1ff800
0ff000
03c000
000000
000000
000000
ENDCHAR
STARTCHAR 2174
ENCODING 8564
SWIDTH 666 0
DWIDTH 18 0
BBX 18 19 0 -1
BITMAP
000000
000000
008000
008000
014000
014000
022000
022000
041000
041000
080800
080800
100400
100400
3ffe00
000000
000000
000000
000000
ENDCHAR
STARTCHAR 2175
ENCODING 8565
SWIDTH 666 0
DWIDTH 18 0
BBX 18 19 0 -1
BITMAP
000000
000000
008000
008000
01c000
01c000
03e000
03e000
07f000
07f000
0ff800
0ff800
1ffc00
1ffc00
3ffe00
000000
000000
000000
000000
ENDCHAR
STARTCHAR 2176
ENCODING 8566
SWIDTH 666 0
DWIDTH 18 0
BBX 18 19 0 -1
BITMAP
000000
000000
03c000
0c3000
100800
23c400
242400
481200
481200
481200
481200
242400
23c400
100800
0c3000
03c000
000000
000000
000000
ENDCHAR
STARTCHAR 2177
ENCODING 8567
SWIDTH 666 0
DWIDTH 18 0
BBX 18 19 0 -1
BITMAP
000000
000000
008000
008000
014000
014000
022000
3e3e00
100400
080800
041000
049000
094800
0a2800
0c1800
180c00
000000
000000
000000
ENDCHAR
STARTCHAR 2178
ENCODING 8568
SWIDTH 666 0
DWIDTH 18 0
BBX 18 19 0 -1
BITMAP
000000
000000
008000
008000
01c000
01c000
03e000
3ffe00
1ffc00
0ff800
07f000
07f000
07f000
0f7800
0c1800
180c00
000000
000000
000000
ENDCHAR
STARTCHAR 2179
ENCODING 8569
SWIDTH 666 0
DWIDTH 18 0
BBX 18 19 0 -1
BITMAP
000000
008000
014000
022000
041000
080800
100400
200200
400100
200200
100400
080800
041000
022000
014000
008000
000000
000000
000000
ENDCHAR
STARTCHAR 217a
ENCODING 8570
SWIDTH 666 0
DWIDTH 18 0
BBX 18 19 0 -1
BITMAP
000000
008000
01c000
03e000
07f000
0ff800
1ffc00
3ffe00
7fff00
3ffe00
1ffc00
0ff800
07f000
03e000
01c000
008000
000000
000000
000000
ENDCHAR
STARTCHAR 217b
ENCODING 8571
SWIDTH 666 0
DWIDTH 18 0
BBX 18 19 0 -1
BITMAP
000000
000000
000000
3ffc00
200400
200400
200400
200400
200400
200400
200400
200400
200400
200400
3ffc00
000000
000000
000000
000000
ENDCHAR
STARTCHAR 217c
ENCODING 8572
SWIDTH 666 0
DWIDTH 18 0
BBX 18 19 0 -1
BITMAP
000000
000000
000000
3ffc00
3ffc00
3ffc00
3ffc00
3ffc00
3ffc00
3ffc00
3ffc00
3ffc00
3ffc00
3ffc00
3ffc00
000000
000000
000000
000000
ENDCHAR
STARTCHAR 217d
ENCODING 8573
SWIDTH 666 0
DWIDTH 18 0
BBX 18 19 0 -1
BITMAP
000000
000000
000000
3ffe00
100400
100400
080800
080800
041000
041000
022000
022000
014000
014000
008000
008000
000000
000000
000000
ENDCHAR
STARTCHAR 217e
ENCODING 8574
SWIDTH 666 0
DWIDTH 18 0
BBX 18 19 0 -1
BITMAP
000000
000000
000000
3ffe00
1ffc00
1ffc00
0ff800
0ff800
07f000
07f000
03e000
03e000
01c000
01c000
008000
008000
000000
000000
000000
ENDCHAR
STARTCHAR 2221
ENCODING 8737
SWIDTH 666 0
DWIDTH 18 0
BBX 18 19 0 -1
BITMAP
000000
01c000
063000
080800
17f400
208200
408100
408100
42e100
428100
428100
228200
17f400
080800
063000
01c000
000000
000000
000000
ENDCHAR
STARTCHAR 2222
ENCODING 8738
SWIDTH 666 0
DWIDTH 18 0
BBX 18 19 0 -1
BITMAP
000000
1c0100
220200
400400
400800
401000
222000
1c4000
008000
011c00
022200
044100
084100
104100
202200
401c00
000000
000000
000000
ENDCHAR
STARTCHAR 2223
ENCODING 8739
SWIDTH 666 0
DWIDTH 18 0
BBX 18 19 0 -1
BITMAP
000000
ffff00
000000
000000
000000
000000
000000
000000
000000
000000
000000
000000
000000
000000
000000
000000
000000
000000
000000
ENDCHAR
STARTCHAR 2224
ENCODING 8740
SWIDTH 666 0
DWIDTH 18 0
BBX 18 19 0 -1
BITMAP
000000
7fff00
7fff00
7fff00
000000
000000
000000
000000
000000
000000
000000
000000
000000
000000
000000
000000
000000
000000
000000
ENDCHAR
STARTCHAR 2225
ENCODING 8741
SWIDTH 666 0
DWIDTH 18 0
BBX 18 19 0 -1
BITMAP
000000
000000
000000
000000
000000
000000
000000
000000
000000
000000
000000
000000
000000
000000
000000
000000
ffff00
000000
000000
ENDCHAR
STARTCHAR 2226
ENCODING 8742
SWIDTH 666 0
DWIDTH 18 0
BBX 18 19 0 -1
BITMAP
000000
000000
000000
000000
000000
000000
000000
000000
000000
000000
000000
000000
000000
000000
7fff00
7fff00
7fff00
000000
000000
ENDCHAR
STARTCHAR 2227
ENCODING 8743
SWIDTH 666 0
DWIDTH 18 0
BBX 18 19 0 -1
BITMAP
000000
1ddc00
000000
000000
000000
000000
000000
000000
000000
000000
000000
000000
000000
000000
000000
000000
000000
000000
000000
ENDCHAR
STARTCHAR 2228
ENCODING 8744
SWIDTH 666 0
DWIDTH 18 0
BBX 18 19 0 -1
BITMAP
000000
3ebe00
000000
000000
000000
000000
000000
000000
000000
000000
000000
000000
000000
000000
000000
000000
000000
000000
000000
ENDCHAR
STARTCHAR 2229
ENCODING 8745
SWIDTH 666 0
DWIDTH 18 0
BBX 18 19 0 -1
BITMAP
000000
000000
000000
000000
000000
000000
000000
000000
000000
000000
000000
000000
000000
000000
000000
000000
1ddc00
000000
000000
ENDCHAR
STARTCHAR 222a
ENCODING 8746
SWIDTH 666 0
DWIDTH 18 0
BBX 18 19 0 -1
BITMAP
000000
000000
000000
000000
000000
000000
000000
000000
000000
000000
000000
000000
000000
000000
000000
000000
3ebe00
000000
000000
ENDCHAR
STARTCHAR 222b
ENCODING 8747
SWIDTH 666 0
DWIDTH 18 0
BBX 18 19 0 -1
BITMAP
000000
000000
041000
0a2800
114400
208200
000000
000000
000000
000000
000000
000000
000000
000000
000000
000000
000000
000000
000000
ENDCHAR
STARTCHAR 222c
ENCODING 8748
SWIDTH 666 0
DWIDTH 18 0
BBX 18 19 0 -1
BITMAP
000000
000000
041000
0e3800
1b6c00
31c600
608300
000000
000000
000000
000000
000000
000000
000000
000000
000000
000000
000000
000000
ENDCHAR
STARTCHAR 222d
ENCODING 8749
SWIDTH 666 0
DWIDTH 18 0
BBX 18 19 0 -1
BITMAP
000000
000000
000000
000000
000000
018000
19e000
1f8000
798000
19e000
1f8000
798000
180000
000000
000000
000000
000000
000000
000000
ENDCHAR
STARTCHAR 222e
ENCODING 8750
SWIDTH 666 0
DWIDTH 18 0
BBX 18 19 0 -1
BITMAP
000000
000000
000000
000000
000000
03c000
066000
024000
018000
03dc00
066800
063800
01cc00
000600
000000
000000
000000
000000
000000
ENDCHAR
STARTCHAR 222f
ENCODING 8751
SWIDTH 666 0
DWIDTH 18 0
BBX 18 19 0 -1
BITMAP
000000
000000
000000
421000
222000
124000
0a8000
070000
020000
020000
070000
0a8000
124000
222000
421000
000000
000000
000000
000000
ENDCHAR
STARTCHAR 2230
ENCODING 8752
SWIDTH 666 0
DWIDTH 18 0
BBX 18 19 0 -1
BITMAP
000000
000000
000000
008000
008000
008000
008000
008000
1ffc00
008000
008000
008000
008000
008000
000000
000000
000000
000000
000000
ENDCHAR
STARTCHAR 2231
ENCODING 8753
SWIDTH 666 0
DWIDTH 18 0
BBX 18 19 0 -1
BITMAP
000000
000000
000000
000000
000000
000000
000000
000000
1ffc00
000000
000000
000000
000000
000000
000000
000000
000000
000000
000000
ENDCHAR
STARTCHAR 2232
ENCODING 8754
SWIDTH 666 0
DWIDTH 18 0
BBX 18 19 0 -1
BITMAP
000000
000000
000000
000000
100400
080800
041000
022000
014000
008000
014000
022000
041000
080800
100400
000000
000000
000000
000000
ENDCHAR
STARTCHAR 2233
ENCODING 8755
SWIDTH 666 0
DWIDTH 18 0
BBX 18 19 0 -1
BITMAP
000000
000000
000000
000000
000000
018000
018000
000000
000000
3ffc00
000000
000000
018000
018000
000000
000000
000000
000000
000000
ENDCHAR
STARTCHAR 2234
ENCODING 8756
SWIDTH 666 0
DWIDTH 18 0
BBX 18 19 0 -1
BITMAP
000000
000000
008000
008000
008000
008000
008000
1ffc00
008000
008000
008000
008000
008000
000000
1ffc00
000000
000000
000000
000000
ENDCHAR
STARTCHAR 2235
ENCODING 8757
SWIDTH 666 0
DWIDTH 18 0
BBX 18 19 0 -1
BITMAP
000000
000000
000000
1ffc00
100000
100000
100000
100000
100000
100000
100000
100000
100000
500000
300000
100000
000000
000000
000000
ENDCHAR
STARTCHAR 2236
ENCODING 8758
SWIDTH 666 0
DWIDTH 18 0
BBX 18 19 0 -1
BITMAP
000000
000000
000000
000000
001800
006000
018000
060000
180000
060000
018000
006000
001800
000000
000000
000000
000000
000000
000000
ENDCHAR
STARTCHAR 2237
ENCODING 8759
SWIDTH 666 0
DWIDTH 18 0
BBX 18 19 0 -1
BITMAP
000000
000000
000000
000000
180000
060000
018000
006000
001800
006000
018000
060000
180000
000000
000000
000000
000000
000000
000000
ENDCHAR
STARTCHAR 2238
ENCODING 8760
SWIDTH 666 0
DWIDTH 18 0
BBX 18 19 0 -1
BITMAP
000000
000000
000000
000000
000000
000000
1ffc00
000000
000000
000000
1ffc00
000000
000000
000000
000000
000000
000000
000000
000000
ENDCHAR
STARTCHAR 2239
ENCODING 8761
SWIDTH 666 0
DWIDTH 18 0
BBX 18 19 0 -1
BITMAP
000000
000000
001c00
00e000
070000
180000
070000
00e000
001c00
000000
000000
1ffc00
000000
000000
1ffc00
000000
000000
000000
000000
ENDCHAR
STARTCHAR 223a
ENCODING 8762
SWIDTH 666 0
DWIDTH 18 0
BBX 18 19 0 -1
BITMAP
000000
000000
1c0000
038000
007000
000c00
007000
038000
1c0000
000000
000000
1ffc00
000000
000000
1ffc00
000000
000000
000000
000000
ENDCHAR
STARTCHAR 223b
ENCODING 8763
SWIDTH 666 0
DWIDTH 18 0
BBX 18 19 0 -1
BITMAP
000000
000000
000000
002000
002000
004000
1ffc00
004000
008000
008000
1ffc00
010000
010000
020000
020000
000000
000000
000000
000000
ENDCHAR
STARTCHAR 223c
ENCODING 8764
SWIDTH 666 0
DWIDTH 18 0
BBX 18 19 0 -1
BITMAP
000000
000000
000000
000000
000000
000000
0e3800
114400
208200
208200
114400
0e3800
000000
000000
000000
000000
000000
000000
000000
ENDCHAR
STARTCHAR 223d
ENCODING 8765
SWIDTH 666 0
DWIDTH 18 0
BBX 18 19 0 -1
BITMAP
000000
000000
000000
100000
380000
100000
000000
3ffe00
000000
000000
3ffe00
000000
000400
000e00
000400
000000
000000
000000
000000
ENDCHAR
STARTCHAR 223e
ENCODING 8766
SWIDTH 666 0
DWIDTH 18 0
BBX 18 19 0 -1
BITMAP
000000
000000
000000
000000
000000
000000
3ffe00
000000
000000
3ffe00
000000
000000
3ffe00
000000
000000
000000
000000
000000
000000
ENDCHAR
STARTCHAR 223f
ENCODING 8767
SWIDTH 666 0
DWIDTH 18 0
BBX 18 19 0 -1
BITMAP
000000
000000
000000
000000
000000
000000
018000
018000
07e000
07e000
018000
018000
000000
000000
000000
000000
000000
000000
000000
ENDCHAR
STARTCHAR 2240
ENCODING 8768
SWIDTH 666 0
DWIDTH 18 0
BBX 18 19 0 -1
BITMAP
000000
000000
000000
000000
000000
000000
000000
000000
07e000
07e000
000000
000000
000000
000000
000000
000000
000000
000000
000000
ENDCHAR
STARTCHAR 2241
ENCODING 8769
SWIDTH 666 0
DWIDTH 18 0
BBX 18 19 0 -1
BITMAP
000000
000000
000000
000000
000000
006000
01c000
070000
0c0000
070000
01c000
006000
000000
000000
000000
000000
000000
000000
000000
ENDCHAR
STARTCHAR 2242
ENCODING 8770
SWIDTH 666 0
DWIDTH 18 0
BBX 18 19 0 -1
BITMAP
000000
000000
000000
000000
000000
060000
038000
00e000
003000
00e000
038000
060000
000000
000000
000000
000000
000000
000000
000000
ENDCHAR
STARTCHAR 2243
ENCODING 8771
SWIDTH 666 0
DWIDTH 18 0
BBX 18 19 0 -1
BITMAP
000000
000000
000000
000000
000000
000000
07e000
07e000
000000
000000
07e000
07e000
000000
000000
000000
000000
000000
000000
000000
ENDCHAR
STARTCHAR 2244
ENCODING 8772
SWIDTH 666 0
DWIDTH 18 0
BBX 18 19 0 -1
BITMAP
000000
000000
000000
000000
000000
000000
000000
0e0000
110200
208400
007800
000000
000000
000000
000000
000000
000000
000000
000000
ENDCHAR
STARTCHAR 2245
ENCODING 8773
SWIDTH 666 0
DWIDTH 18 0
BBX 18 19 0 -1
BITMAP
000000
000000
000000
03e000
041000
080800
100400
200200
200200
200200
200200
200200
200200
200200
200200
000000
000000
000000
000000
ENDCHAR
STARTCHAR 2246
ENCODING 8774
SWIDTH 666 0
DWIDTH 18 0
BBX 18 19 0 -1
BITMAP
000000
000000
000000
200200
200200
200200
200200
200200
200200
200200
200200
100400
080800
041000
03e000
000000
000000
000000
000000
ENDCHAR
STARTCHAR 2247
ENCODING 8775
SWIDTH 666 0
DWIDTH 18 0
BBX 18 19 0 -1
BITMAP
000000
000000
008000
008000
008000
008000
008000
008000
008000
008000
008000
008000
008000
008000
7fff00
000000
000000
000000
000000
ENDCHAR
STARTCHAR 2248
ENCODING 8776
SWIDTH 666 0
DWIDTH 18 0
BBX 18 19 0 -1
BITMAP
000000
000000
000000
000400
000800
001000
002000
004000
008000
010000
020000
040000
080000
100000
3ffc00
000000
000000
000000
000000
ENDCHAR
STARTCHAR 2249
ENCODING 8777
SWIDTH 666 0
DWIDTH 18 0
BBX 18 19 0 -1
BITMAP
000000
000000
000000
200000
200000
200000
200000
200000
200000
200000
200000
200000
200000
200000
3ffc00
000000
000000
000000
000000
ENDCHAR
STARTCHAR 224a
ENCODING 8778
SWIDTH 666 0
DWIDTH 18 0
BBX 18 19 0 -1
BITMAP
000000
000000
000000
000400
000c00
001400
002400
004400
008400
010400
020400
040400
080400
100400
3ffc00
000000
000000
000000
000000
ENDCHAR
STARTCHAR 224b
ENCODING 8779
SWIDTH 666 0
DWIDTH 18 0
BBX 18 19 0 -1
BITMAP
000000
400000
400000
400000
400000
400000
400000
400600
4e3800
514400
512800
511000
512800
514400
4e4400
004400
003800
000000
000000
ENDCHAR
STARTCHAR 224c
ENCODING 8780
SWIDTH 666 0
DWIDTH 18 0
BBX 18 19 0 -1
BITMAP
000000
000000
180000
080000
080000
080000
080000
090000
08f800
084400
084400
084400
084400
084400
084400
084400
1cc600
000000
000000
ENDCHAR
STARTCHAR 224d
ENCODING 8781
SWIDTH 666 0
DWIDTH 18 0
BBX 18 19 0 -1
BITMAP
000000
003000
004800
008000
008000
008000
008000
008000
008000
008000
008000
008000
008000
008000
008000
090000
060000
000000
000000
ENDCHAR
STARTCHAR 224e
ENCODING 8782
SWIDTH 666 0
DWIDTH 18 0
BBX 18 19 0 -1
BITMAP
000000
003000
004800
008000
008000
008000
03e000
049000
088800
088800
088800
049000
03e000
008000
008000
048000
030000
000000
000000
ENDCHAR
STARTCHAR 224f
ENCODING 8783
SWIDTH 666 0
DWIDTH 18 0
BBX 18 19 0 -1
BITMAP
000000
000000
000000
000000
000000
181800
181800
000000
000000
000000
000000
000000
018000
018000
000000
000000
000000
000000
000000
ENDCHAR
STARTCHAR 2250
ENCODING 8784
SWIDTH 666 0
DWIDTH 18 0
BBX 18 19 0 -1
BITMAP
000000
000000
000000
000000
00c000
00c000
000000
000000
000000
000000
000000
0c0c00
0c0c00
000000
000000
000000
000000
000000
000000
ENDCHAR
STARTCHAR 2251
ENCODING 8785
SWIDTH 666 0
DWIDTH 18 0
BBX 18 19 0 -1
BITMAP
000000
000000
01c000
022000
041000
041000
041000
022000
01c000
008000
008000
1ffc00
008000
008000
008000
008000
000000
000000
000000
ENDCHAR
STARTCHAR 2252
ENCODING 8786
SWIDTH 666 0
DWIDTH 18 0
BBX 18 19 0 -1
BITMAP
000000
000000
008000
01c000
02a000
049000
088800
108400
008000
01c000
022000
041000
041000
041000
022000
01c000
000000
000000
000000
ENDCHAR
STARTCHAR 2253
ENCODING 8787
SWIDTH 666 0
DWIDTH 18 0
BBX 18 19 0 -1
BITMAP
000000
01c000
06b000
088800
108400
208200
408100
408100
7fff00
408100
408100
208200
108400
088800
06b000
01c000
000000
000000
000000
ENDCHAR
STARTCHAR 2254
ENCODING 8788
SWIDTH 666 0
DWIDTH 18 0
BBX 18 19 0 -1
BITMAP
000000
01c000
063000
080800
100400
200200
400100
408100
41c100
408100
400100
200200
100400
080800
063000
01c000
000000
000000
000000
ENDCHAR
STARTCHAR 2255
ENCODING 8789
SWIDTH 666 0
DWIDTH 18 0
BBX 18 19 0 -1
BITMAP
000000
008000
01c000
02a000
049000
088800
008000
008000
008000
008000
008000
008000
008000
008000
008000
008000
008000
000000
000000
ENDCHAR
STARTCHAR 2256
ENCODING 8790
SWIDTH 666 0
DWIDTH 18 0
BBX 18 19 0 -1
BITMAP
000000
008000
008000
008000
008000
008000
008000
008000
008000
008000
008000
008000
088800
049000
02a000
01c000
008000
000000
000000
ENDCHAR
STARTCHAR 2257
ENCODING 8791
SWIDTH 666 0
DWIDTH 18 0
BBX 18 19 0 -1
BITMAP
000000
000000
000000
000000
001000
000800
000400
000200
7fff00
000200
000400
000800
001000
000000
000000
000000
000000
000000
000000
ENDCHAR
STARTCHAR 2258
ENCODING 8792
SWIDTH 666 0
DWIDTH 18 0
BBX 18 19 0 -1
BITMAP
000000
000000
000000
000000
040000
080000
100000
200000
7fff00
200000
100000
080000
040000
000000
000000
000000
000000
000000
000000
ENDCHAR
STARTCHAR 2259
ENCODING 8793
SWIDTH 666 0
DWIDTH 18 0
BBX 18 19 0 -1
BITMAP
000000
000000
000000
3e0000
300000
280000
240000
220000
010000
008000
004000
002000
001000
000800
000400
000000
000000
000000
000000
ENDCHAR
STARTCHAR 225a
ENCODING 8794
SWIDTH 666 0
DWIDTH 18 0
BBX 18 19 0 -1
BITMAP
000000
000000
000000
007c00
000c00
001400
002400
004400
008000
010000
020000
040000
080000
100000
200000
000000
000000
000000
000000
ENDCHAR
STARTCHAR 225b
ENCODING 8795
SWIDTH 666 0
DWIDTH 18 0
BBX 18 19 0 -1
BITMAP
000000
000000
000000
000400
000800
001000
002000
004000
008000
010000
220000
240000
280000
300000
3e0000
000000
000000
000000
000000
ENDCHAR
STARTCHAR 225c
ENCODING 8796
SWIDTH 666 0
DWIDTH 18 0
BBX 18 19 0 -1
BITMAP
000000
000000
000000
200000
100000
080000
040000
020000
010000
008000
004400
002400
001400
000c00
007c00
000000
000000
000000
000000
ENDCHAR
STARTCHAR 225d
ENCODING 8797
SWIDTH 666 0
DWIDTH 18 0
BBX 18 19 0 -1
BITMAP
000000
014000
014000
014000
014000
014000
014000
014000
014000
014000
014000
014000
014000
014000
014000
014000
014000
000000
000000
ENDCHAR
STARTCHAR 225e
ENCODING 8798
SWIDTH 666 0
DWIDTH 18 0
BBX 18 19 0 -1
BITMAP
000000
008000
008000
008000
008000
008000
008000
008000
008000
008000
008000
008000
008000
008000
008000
008000
008000
000000
000000
ENDCHAR
STARTCHAR 225f
ENCODING 8799
SWIDTH 666 0
DWIDTH 18 0
BBX 18 19 0 -1
BITMAP
000000
000100
000200
000400
000800
001000
002000
004000
008000
010000
020000
040000
080000
100000
200000
400000
800000
000000
000000
ENDCHAR
STARTCHAR 2260
ENCODING 8800
SWIDTH 666 0
DWIDTH 18 0
BBX 18 19 0 -1
BITMAP
000000
800000
400000
200000
100000
080000
040000
020000
010000
008000
004000
002000
001000
000800
000400
000200
000100
000000
000000
ENDCHAR
STARTCHAR 2261
ENCODING 8801
SWIDTH 666 0
DWIDTH 18 0
BBX 18 19 0 -1
BITMAP
000000
000000
000000
001000
001000
002000
002000
004000
004000
008000
008000
010000
010000
020000
020000
040000
040000
000000
000000
ENDCHAR
STARTCHAR 2262
ENCODING 8802
SWIDTH 666 0
DWIDTH 18 0
BBX 18 19 0 -1
BITMAP
000000
000000
000000
000000
000000
0c0000
060000
030000
018000
00c000
006000
002000
000000
000000
000000
000000
000000
000000
000000
ENDCHAR
STARTCHAR 2263
ENCODING 8803
SWIDTH 666 0
DWIDTH 18 0
BBX 18 19 0 -1
BITMAP
000000
008000
008000
01c000
06b000
088800
088800
068000
01e000
009800
008400
108400
108400
0c9800
03e000
008000
008000
000000
000000
ENDCHAR
STARTCHAR 2264
ENCODING 8804
SWIDTH 666 0
DWIDTH 18 0
BBX 18 19 0 -1
BITMAP
000000
000000
0c1800
041000
022000
022000
014000
008000
0ff800
008000
008000
0ff800
008000
008000
008000
01c000
000000
000000
000000
ENDCHAR
STARTCHAR 2265
ENCODING 8805
SWIDTH 666 0
DWIDTH 18 0
BBX 18 19 0 -1
BITMAP
000000
000000
1ffc00
000000
000000
000000
000000
3ffe00
008000
008000
008000
008000
008000
008000
008000
008000
000000
000000
000000
ENDCHAR
STARTCHAR 2266
ENCODING 8806
SWIDTH 666 0
DWIDTH 18 0
BBX 18 19 0 -1
BITMAP
000000
000000
001000
002000
03e000
045000
085800
089800
108000
110000
110000
121000
0a2000
07c000
040000
080000
000000
000000
000000
ENDCHAR
STARTCHAR 2267
ENCODING 8807
SWIDTH 666 0
DWIDTH 18 0
BBX 18 19 0 -1
BITMAP
000000
000000
01f000
020800
020800
020000
020000
1ff000
020000
020000
020000
1e0000
220200
230200
228400
1c7800
000000
000000
000000
ENDCHAR
STARTCHAR 2268
ENCODING 8808
SWIDTH 666 0
DWIDTH 18 0
BBX 18 19 0 -1
BITMAP
000000
000400
0c0800
121000
121000
222000
224000
244000
248c00
191200
011200
022200
042200
082400
082400
101800
200000
000000
000000
ENDCHAR
STARTCHAR 2269
ENCODING 8809
SWIDTH 666 0
DWIDTH 18 0
BBX 18 19 0 -1
BITMAP
000000
000000
03e000
0c1800
100400
100400
21d200
226200
242200
242200
242200
246400
139800
100200
0c0c00
03f000
000000
000000
000000
ENDCHAR
STARTCHAR 226a
ENCODING 8810
SWIDTH 666 0
DWIDTH 18 0
BBX 18 19 0 -1
BITMAP
000000
300000
48f000
490a00
320600
020200
040200
040000
040000
040000
040000
040200
020000
020400
010800
00f000
000000
000000
000000
ENDCHAR
STARTCHAR 226b
ENCODING 8811
SWIDTH 666 0
DWIDTH 18 0
BBX 18 19 0 -1
BITMAP
000000
000000
300000
480000
4bfc00
310400
010000
010000
011000
01f000
011000
010000
010000
010000
010000
038000
000000
000000
000000
ENDCHAR
STARTCHAR 226c
ENCODING 8812
SWIDTH 666 0
DWIDTH 18 0
BBX 18 19 0 -1
BITMAP
000000
000000
000000
000000
000000
018000
07e000
0d9000
078000
01e000
09b000
07e000
018000
000000
000000
000000
000000
000000
000000
ENDCHAR
STARTCHAR 226d
ENCODING 8813
SWIDTH 666 0
DWIDTH 18 0
BBX 18 19 0 -1
BITMAP
000000
000000
000000
000000
000000
071000
0da000
1b4000
0e8000
013800
026c00
04d800
087000
000000
000000
000000
000000
000000
000000
ENDCHAR
STARTCHAR 226e
ENCODING 8814
SWIDTH 666 0
DWIDTH 18 0
BBX 18 19 0 -1
BITMAP
000000
000000
000000
000000
000000
07c000
183000
63cc00
46c400
6ccc00
276800
183000
07c000
000000
000000
000000
000000
000000
000000
ENDCHAR
STARTCHAR 226f
ENCODING 8815
SWIDTH 666 0
DWIDTH 18 0
BBX 18 19 0 -1
BITMAP
000000
000200
000600
001200
003a00
001200
000200
5b9200
24b200
249200
249200
249200
249200
249200
249200
6dbb00
000000
000000
000000
ENDCHAR
STARTCHAR 2270
ENCODING 8816
SWIDTH 666 0
DWIDTH 18 0
BBX 18 19 0 -1
BITMAP
000000
000000
000000
000000
000000
000000
000000
54a800
2a5400
2a5400
2a5400
2a5400
2a5400
2a5400
2a5400
6b5600
000000
000000
000000
ENDCHAR
STARTCHAR 2271
ENCODING 8817
SWIDTH 666 0
DWIDTH 18 0
BBX 18 19 0 -1
BITMAP
000000
000000
000000
000000
000000
000000
000000
1e5400
212a00
402a00
402a00
402a00
402a00
402a00
212a00
1e6b00
000000
000000
000000
ENDCHAR
STARTCHAR 2272
ENCODING 8818
SWIDTH 666 0
DWIDTH 18 0
BBX 18 19 0 -1
BITMAP
000000
000000
200000
600000
200000
200000
200000
276c00
225400
245400
285400
305400
285400
245400
225400
775600
000000
000000
000000
ENDCHAR
STARTCHAR 2273
ENCODING 8819
SWIDTH 666 0
DWIDTH 18 0
BBX 18 19 0 -1
BITMAP
000000
000000
73c100
216300
225500
244900
284900
304900
204100
304100
284100
244100
224100
214100
214100
73c100
000000
000000
000000
ENDCHAR
STARTCHAR 2274
ENCODING 8820
SWIDTH 666 0
DWIDTH 18 0
BBX 18 19 0 -1
BITMAP
000000
000c00
001200
001200
000400
000800
001e00
2d8000
124000
124000
124000
124000
124000
124000
124000
36e000
000000
000000
000000
ENDCHAR
STARTCHAR 2275
ENCODING 8821
SWIDTH 666 0
DWIDTH 18 0
BBX 18 19 0 -1
BITMAP
000000
000000
000000
000000
000000
000600
003800
544400
2a4400
2a2800
2a1000
2a1800
2a4400
2a8200
2a8200
6b4400
003800
000000
000000
ENDCHAR
STARTCHAR 2276
ENCODING 8822
SWIDTH 666 0
DWIDTH 18 0
BBX 18 19 0 -1
BITMAP
000000
000000
300000
100000
100200
100200
11dc00
10a200
112200
121400
140800
1c1400
122200
114100
10c100
39e200
001c00
000000
000000
ENDCHAR
STARTCHAR 2277
ENCODING 8823
SWIDTH 666 0
DWIDTH 18 0
BBX 18 19 0 -1
BITMAP
000000
000000
000000
000000
000000
000000
000000
1e1e00
212100
404000
404000
404000
404000
404000
212100
1e1e00
000000
000000
000000
ENDCHAR
STARTCHAR 2278
ENCODING 8824
SWIDTH 666 0
DWIDTH 18 0
BBX 18 19 0 -1
BITMAP
000000
380000
440000
440000
440000
380000
000000
000000
000000
000000
000000
000000
000000
000000
000000
000000
000000
000000
000000
ENDCHAR
STARTCHAR 2279
ENCODING 8825
SWIDTH 666 0
DWIDTH 18 0
BBX 18 19 0 -1
BITMAP
000000
101000
101000
7e1000
101000
10ff00
7e1000
421000
421000
421000
7e1000
241000
241000
241000
241100
440100
43ff00
000000
000000
ENDCHAR
STARTCHAR 227a
ENCODING 8826
SWIDTH 666 0
DWIDTH 18 0
BBX 18 19 0 -1
BITMAP
000000
080000
080200
7f1c00
086800
080800
7f0800
417f00
410800
410800
7f0800
240800
240800
240800
240900
440100
43ff00
000000
000000
ENDCHAR
STARTCHAR 227b
ENCODING 8827
SWIDTH 666 0
DWIDTH 18 0
BBX 18 19 0 -1
BITMAP
000000
100000
100400
7e7800
10a000
102000
7efe00
422000
422000
42ff00
7e2000
282000
282100
281f00
280000
480100
47ff00
000000
000000
ENDCHAR
STARTCHAR 227c
ENCODING 8828
SWIDTH 666 0
DWIDTH 18 0
BBX 18 19 0 -1
BITMAP
000000
100000
101800
7e2400
104200
7e8100
42fe00
422200
422200
7e2200
242200
242200
244a00
248600
240000
440100
43ff00
000000
000000
ENDCHAR
STARTCHAR 227d
ENCODING 8829
SWIDTH 666 0
DWIDTH 18 0
BBX 18 19 0 -1
BITMAP
000000
100000
10fe00
7e1000
102000
104000
7efe00
428200
428200
42fe00
7e8200
288200
288200
28fe00
280100
480100
47ff00
000000
000000
ENDCHAR
STARTCHAR 227e
ENCODING 8830
SWIDTH 666 0
DWIDTH 18 0
BBX 18 19 0 -1
BITMAP
000000
10ff00
108000
7ebe00
10aa00
10be00
7eaa00
42be00
428800
428800
7ebe00
288800
290800
287f00
280000
480100
47ff00
000000
000000
ENDCHAR
STARTCHAR 2321
ENCODING 8993
SWIDTH 666 0
DWIDTH 18 0
BBX 18 19 0 -1
BITMAP
000000
100000
7e7e00
124200
124200
224200
467e00
018000
066000
181800
67e600
000000
1ffc00
122400
1ffc00
122400
122400
000000
000000
ENDCHAR
STARTCHAR 2322
ENCODING 8994
SWIDTH 666 0
DWIDTH 18 0
BBX 18 19 0 -1
BITMAP
000000
7fc000
200000
200400
3e7800
221000
221000
321000
2afe00
261000
221000
221000
221000
221000
221100
290100
70ff00
000000
000000
ENDCHAR
STARTCHAR 2323
ENCODING 8995
SWIDTH 666 0
DWIDTH 18 0
BBX 18 19 0 -1
BITMAP
000000
100000
11ff00
550000
597f00
114900
7d4900
117f00
114900
394900
557f00
110800
110800
117f00
110800
120800
147f00
000000
000000
ENDCHAR
STARTCHAR 2324
ENCODING 8996
SWIDTH 666 0
DWIDTH 18 0
BBX 18 19 0 -1
BITMAP
000000
000000
000000
000000
000000
000000
000000
000000
000000
000000
000000
000000
000000
000000
000000
ffff00
ffff00
000000
000000
ENDCHAR
STARTCHAR 2325
ENCODING 8997
SWIDTH 666 0
DWIDTH 18 0
BBX 18 19 0 -1
BITMAP
000000
000000
000000
000000
000000
000000
000000
000000
000000
000000
000000
000000
000000
ffff00
ffff00
ffff00
ffff00
000000
000000
ENDCHAR
STARTCHAR 2326
ENCODING 8998
SWIDTH 666 0
DWIDTH 18 0
BBX 18 19 0 -1
BITMAP
000000
000000
000000
000000
000000
000000
000000
000000
000000
000000
000000
ffff00
ffff00
ffff00
ffff00
ffff00
ffff00
000000
000000
ENDCHAR
STARTCHAR 2327
ENCODING 8999
SWIDTH 666 0
DWIDTH 18 0
BBX 18 19 0 -1
BITMAP
000000
000000
000000
000000
000000
000000
000000
000000
000000
ffff00
ffff00
ffff00
ffff00
ffff00
ffff00
ffff00
ffff00
000000
000000
ENDCHAR
STARTCHAR 2328
ENCODING 9000
SWIDTH 666 0
DWIDTH 18 0
BBX 18 19 0 -1
BITMAP
000000
000000
000000
000000
000000
000000
000000
ffff00
ffff00
ffff00
ffff00
ffff00
ffff00
ffff00
ffff00
ffff00
ffff00
000000
000000
ENDCHAR
STARTCHAR 2329
ENCODING 9001
SWIDTH 666 0
DWIDTH 18 0
BBX 18 19 0 -1
BITMAP
000000
000000
000000
000000
000000
ffff00
ffff00
ffff00
ffff00
ffff00
ffff00
ffff00
ffff00
ffff00
ffff00
ffff00
ffff00
000000
000000
ENDCHAR
STARTCHAR 232a
ENCODING 9002
SWIDTH 666 0
DWIDTH 18 0
BBX 18 19 0 -1
BITMAP
000000
000000
000000
ffff00
ffff00
ffff00
ffff00
ffff00
ffff00
ffff00
ffff00
ffff00
ffff00
ffff00
ffff00
ffff00
ffff00
000000
000000
ENDCHAR
STARTCHAR 232b
ENCODING 9003
SWIDTH 666 0
DWIDTH 18 0
BBX 18 19 0 -1
BITMAP
000000
ffff00
ffff00
ffff00
ffff00
ffff00
ffff00
ffff00
ffff00
ffff00
ffff00
ffff00
ffff00
ffff00
ffff00
ffff00
ffff00
000000
000000
ENDCHAR
STARTCHAR 232c
ENCODING 9004
SWIDTH 666 0
DWIDTH 18 0
BBX 18 19 0 -1
BITMAP
000000
c00000
c00000
c00000
c00000
c00000
c00000
c00000
c00000
c00000
c00000
c00000
c00000
c00000
c00000
c00000
c00000
000000
000000
ENDCHAR
STARTCHAR 232d
ENCODING 9005
SWIDTH 666 0
DWIDTH 18 0
BBX 18 19 0 -1
BITMAP
000000
f00000
f00000
f00000
f00000
f00000
f00000
f00000
f00000
f00000
f00000
f00000
f00000
f00000
f00000
f00000
f00000
000000
000000
ENDCHAR
STARTCHAR 232e
ENCODING 9006
SWIDTH 666 0
DWIDTH 18 0
BBX 18 19 0 -1
BITMAP
000000
fc0000
fc0000
fc0000
fc0000
fc0000
fc0000
fc0000
fc0000
fc0000
fc0000
fc0000
fc0000
fc0000
fc0000
fc0000
fc0000
000000
000000
ENDCHAR
STARTCHAR 232f
ENCODING 9007
SWIDTH 666 0
DWIDTH 18 0
BBX 18 19 0 -1
BITMAP
000000
ff0000
ff0000
ff0000
ff0000
ff0000
ff0000
ff0000
ff0000
ff0000
ff0000
ff0000
ff0000
ff0000
ff0000
ff0000
ff0000
000000
000000
ENDCHAR
STARTCHAR 2330
ENCODING 9008
SWIDTH 666 0
DWIDTH 18 0
BBX 18 19 0 -1
BITMAP
000000
ffc000
ffc000
ffc000
ffc000
ffc000
ffc000
ffc000
ffc000
ffc000
ffc000
ffc000
ffc000
ffc000
ffc000
ffc000
ffc000
000000
000000
ENDCHAR
STARTCHAR 2331
ENCODING 9009
SWIDTH 666 0
DWIDTH 18 0
BBX 18 19 0 -1
BITMAP
000000
fff000
fff000
fff000
fff000
fff000
fff000
fff000
fff000
fff000
fff000
fff000
fff000
fff000
fff000
fff000
fff000
000000
000000
ENDCHAR
STARTCHAR 2332
ENCODING 9010
SWIDTH 666 0
DWIDTH 18 0
BBX 18 19 0 -1
BITMAP
000000
fffc00
fffc00
fffc00
fffc00
fffc00
fffc00
fffc00
fffc00
fffc00
fffc00
fffc00
fffc00
fffc00
fffc00
fffc00
fffc00
000000
000000
ENDCHAR
STARTCHAR 2333
ENCODING 9011
SWIDTH 666 0
DWIDTH 18 0
BBX 18 19 0 -1
BITMAP
000000
010000
010000
010000
010000
010000
010000
010000
ffff00
010000
010000
010000
010000
010000
010000
010000
010000
000000
000000
ENDCHAR
STARTCHAR 2334
ENCODING 9012
SWIDTH 666 0
DWIDTH 18 0
BBX 18 19 0 -1
BITMAP
000000
010000
010000
010000
010000
010000
010000
010000
ffff00
000000
000000
000000
000000
000000
000000
000000
000000
000000
000000
ENDCHAR
STARTCHAR 2335
ENCODING 9013
SWIDTH 666 0
DWIDTH 18 0
BBX 18 19 0 -1
BITMAP
000000
000000
000000
000000
000000
000000
000000
000000
ffff00
010000
010000
010000
010000
010000
010000
010000
010000
000000
000000
ENDCHAR
STARTCHAR 2336
ENCODING 9014
SWIDTH 666 0
DWIDTH 18 0
BBX 18 19 0 -1
BITMAP
000000
010000
010000
010000
010000
010000
010000
010000
ff0000
010000
010000
010000
010000
010000
010000
010000
010000
000000
000000
ENDCHAR
STARTCHAR 2337
ENCODING 9015
SWIDTH 666 0
DWIDTH 18 0
BBX 18 19 0 -1
BITMAP
000000
010000
010000
010000
010000
010000
010000
010000
01ff00
010000
010000
010000
010000
010000
010000
010000
010000
000000
000000
ENDCHAR
STARTCHAR 2338
ENCODING 9016
SWIDTH 666 0
DWIDTH 18 0
BBX 18 19 0 -1
BITMAP
000000
ffff00
ffff00
000000
000000
000000
000000
000000
000000
000000
000000
000000
000000
000000
000000
000000
000000
000000
000000
ENDCHAR
STARTCHAR 2339
ENCODING 9017
SWIDTH 666 0
DWIDTH 18 0
BBX 18 19 0 -1
BITMAP
000000
000000
000000
000000
000000
000000
000000
000000
ffff00
000000
000000
000000
000000
000000
000000
000000
000000
000000
000000
ENDCHAR
STARTCHAR 233a
ENCODING 9018
SWIDTH 666 0
DWIDTH 18 0
BBX 18 19 0 -1
BITMAP
000000
010000
010000
010000
010000
010000
010000
010000
010000
010000
010000
010000
010000
010000
010000
010000
010000
000000
000000
ENDCHAR
STARTCHAR 233b
ENCODING 9019
SWIDTH 666 0
DWIDTH 18 0
BBX 18 19 0 -1
BITMAP
000000
000300
000300
000300
000300
000300
000300
000300
000300
000300
000300
000300
000300
000300
000300
000300
000300
000000
000000
ENDCHAR
STARTCHAR 233c
ENCODING 9020
SWIDTH 666 0
DWIDTH 18 0
BBX 18 19 0 -1
BITMAP
000000
000000
000000
000000
000000
000000
000000
000000
01ff00
010000
010000
010000
010000
010000
010000
010000
010000
000000
000000
ENDCHAR
STARTCHAR 233d
ENCODING 9021
SWIDTH 666 0
DWIDTH 18 0
BBX 18 19 0 -1
BITMAP
000000
000000
000000
000000
000000
000000
000000
000000
ff0000
010000
010000
010000
010000
010000
010000
010000
010000
000000
000000
ENDCHAR
STARTCHAR 233e
ENCODING 9022
SWIDTH 666 0
DWIDTH 18 0
BBX 18 19 0 -1
BITMAP
000000
010000
010000
010000
010000
010000
010000
010000
01ff00
000000
000000
000000
000000
000000
000000
000000
000000
000000
000000
ENDCHAR
STARTCHAR 233f
ENCODING 9023
SWIDTH 666 0
DWIDTH 18 0
BBX 18 19 0 -1
BITMAP
000000
010000
010000
010000
010000
010000
010000
010000
ff0000
000000
000000
000000
000000
000000
000000
000000
000000
000000
000000
ENDCHAR
STARTCHAR 2340
ENCODING 9024
SWIDTH 666 0
DWIDTH 18 0
BBX 18 19 0 -1
BITMAP
000000
000000
000000
000000
000000
000000
000000
000000
000300
000c00
001000
002000
004000
008000
008000
010000
010000
000000
000000
ENDCHAR
STARTCHAR 2341
ENCODING 9025
SWIDTH 666 0
DWIDTH 18 0
BBX 18 19 0 -1
BITMAP
000000
000000
000000
000000
000000
000000
000000
000000
c00000
300000
080000
040000
040000
020000
020000
010000
010000
000000
000000
ENDCHAR
STARTCHAR 2342
ENCODING 9026
SWIDTH 666 0
DWIDTH 18 0
BBX 18 19 0 -1
BITMAP
000000
010000
010000
008000
008000
006000
001000
000c00
000300
000000
000000
000000
000000
000000
000000
000000
000000
000000
000000
ENDCHAR
STARTCHAR 2343
ENCODING 9027
SWIDTH 666 0
DWIDTH 18 0
BBX 18 19 0 -1
BITMAP
000000
010000
010000
020000
020000
040000
080000
300000
c00000
000000
000000
000000
000000
000000
000000
000000
000000
000000
000000
ENDCHAR
STARTCHAR 2344
ENCODING 9028
SWIDTH 666 0
DWIDTH 18 0
BBX 18 19 0 -1
BITMAP
000000
000000
000000
000000
000000
000000
ffff00
000000
000000
000000
000000
ffff00
000000
000000
000000
000000
000000
000000
000000
ENDCHAR
STARTCHAR 2345
ENCODING 9029
SWIDTH 666 0
DWIDTH 18 0
BBX 18 19 0 -1
BITMAP
000000
010000
010000
010000
010000
010000
01ff00
010000
010000
010000
010000
01ff00
010000
010000
010000
010000
010000
000000
000000
ENDCHAR
STARTCHAR 2346
ENCODING 9030
SWIDTH 666 0
DWIDTH 18 0
BBX 18 19 0 -1
BITMAP
000000
010000
010000
010000
010000
010000
ffff00
010000
010000
010000
010000
ffff00
010000
010000
010000
010000
010000
000000
000000
ENDCHAR
STARTCHAR 2347
ENCODING 9031
SWIDTH 666 0
DWIDTH 18 0
BBX 18 19 0 -1
BITMAP
000000
010000
010000
010000
010000
010000
ff0000
010000
010000
010000
010000
ff0000
010000
010000
010000
010000
010000
000000
000000
ENDCHAR
STARTCHAR 2348
ENCODING 9032
SWIDTH 666 0
DWIDTH 18 0
BBX 18 19 0 -1
BITMAP
000000
000100
000300
000700
000f00
001f00
003f00
007f00
00ff00
01ff00
03ff00
07ff00
0fff00
1fff00
3fff00
7fff00
ffff00
000000
000000
ENDCHAR
STARTCHAR 2349
ENCODING 9033
SWIDTH 666 0
DWIDTH 18 0
BBX 18 19 0 -1
BITMAP
000000
800000
c00000
e00000
f00000
f80000
fc0000
fe0000
ff0000
ff8000
ffc000
ffe000
fff000
fff800
fffc00
fffe00
ffff00
000000
000000
ENDCHAR
STARTCHAR 234a
ENCODING 9034
SWIDTH 666 0
DWIDTH 18 0
BBX 18 19 0 -1
BITMAP
000000
ffff00
7fff00
3fff00
1fff00
0fff00
07ff00
03ff00
01ff00
00ff00
007f00
003f00
001f00
000f00
000700
000300
000100
000000
000000
ENDCHAR
STARTCHAR 234b
ENCODING 9035
SWIDTH 666 0
DWIDTH 18 0
BBX 18 19 0 -1
BITMAP
000000
ffff00
fffe00
fffc00
fff800
fff000
ffe000
ffc000
ff8000
ff0000
fe0000
fc0000
f80000
f00000
e00000
c00000
800000
000000
000000
ENDCHAR
STARTCHAR 234c
ENCODING 9036
SWIDTH 666 0
DWIDTH 18 0
BBX 18 19 0 -1
BITMAP
000000
000100
000200
000400
000800
001000
002000
004000
008000
010000
020000
040000
080000
100000
200000
400000
800000
000000
000000
ENDCHAR
STARTCHAR 234d
ENCODING 9037
SWIDTH 666 0
DWIDTH 18 0
BBX 18 19 0 -1
BITMAP
000000
800000
400000
200000
100000
080000
040000
020000
010000
008000
004000
002000
001000
000800
000400
000200
000100
000000
000000
ENDCHAR
STARTCHAR 234e
ENCODING 9038
SWIDTH 666 0
DWIDTH 18 0
BBX 18 19 0 -1
BITMAP
000000
800100
400200
200400
100800
081000
042000
024000
018000
018000
024000
042000
081000
100800
200400
400200
800100
000000
000000
ENDCHAR
STARTCHAR 2421
ENCODING 9249
SWIDTH 666 0
DWIDTH 18 0
BBX 18 19 0 -1
BITMAP
000000
000000
03c000
042000
081000
081000
100800
100800
100800
100800
100800
100800
081000
081000
042000
03c000
000000
000000
000000
ENDCHAR
STARTCHAR 2422
ENCODING 9250
SWIDTH 666 0
DWIDTH 18 0
BBX 18 19 0 -1
BITMAP
000000
000000
008000
018000
028000
008000
008000
008000
008000
008000
008000
008000
008000
008000
008000
03e000
000000
000000
000000
ENDCHAR
STARTCHAR 2423
ENCODING 9251
SWIDTH 666 0
DWIDTH 18 0
BBX 18 19 0 -1
BITMAP
000000
000000
03c000
042000
081000
081000
081000
001000
002000
004000
008000
010000
020000
040000
080000
1ff800
000000
000000
000000
ENDCHAR
STARTCHAR 2424
ENCODING 9252
SWIDTH 666 0
DWIDTH 18 0
BBX 18 19 0 -1
BITMAP
000000
000000
03c000
042000
081000
001000
001000
002000
03e000
001000
000800
000800
000800
100800
081000
07e000
000000
000000
000000
ENDCHAR
STARTCHAR 2425
ENCODING 9253
SWIDTH 666 0
DWIDTH 18 0
BBX 18 19 0 -1
BITMAP
000000
000000
002000
006000
00a000
012000
012000
022000
042000
042000
082000
102000
1ffc00
002000
002000
002000
000000
000000
000000
ENDCHAR
STARTCHAR 2426
ENCODING 9254
SWIDTH 666 0
DWIDTH 18 0
BBX 18 19 0 -1
BITMAP
000000
000000
0ff800
080000
080000
080000
080000
0be000
0c1000
080800
000800
000800
000800
080800
041000
03e000
000000
000000
000000
ENDCHAR
STARTCHAR 2427
ENCODING 9255
SWIDTH 666 0
DWIDTH 18 0
BBX 18 19 0 -1
BITMAP
000000
000000
03e000
041000
080800
080000
080000
0be000
0c1000
080800
080800
080800
080800
080800
041000
03e000
000000
000000
000000
ENDCHAR
STARTCHAR 2428
ENCODING 9256
SWIDTH 666 0
DWIDTH 18 0
BBX 18 19 0 -1
BITMAP
000000
000000
1ff800
001000
001000
002000
002000
004000
004000
004000
008000
008000
008000
010000
010000
010000
000000
000000
000000
ENDCHAR
STARTCHAR 2429
ENCODING 9257
SWIDTH 666 0
DWIDTH 18 0
BBX 18 19 0 -1
BITMAP
000000
000000
03c000
042000
081000
081000
081000
042000
07e000
081000
100800
100800
100800
100800
081000
07e000
000000
000000
000000
ENDCHAR
STARTCHAR 242a
ENCODING 9258
SWIDTH 666 0
DWIDTH 18 0
BBX 18 19 0 -1
BITMAP
000000
000000
03e000
041000
080800
080800
080800
080800
080800
041800
03e800
000800
000800
080800
041000
03e000
000000
000000
000000
ENDCHAR
STARTCHAR 242b
ENCODING 9259
SWIDTH 666 0
DWIDTH 18 0
BBX 18 19 0 -1
BITMAP
000000
000000
000000
000000
000000
01c000
008000
008000
008000
008000
008000
008000
008000
008000
008000
01c000
000000
000000
000000
ENDCHAR
STARTCHAR 242c
ENCODING 9260
SWIDTH 666 0
DWIDTH 18 0
BBX 18 19 0 -1
BITMAP
000000
000000
000000
000000
000000
077000
022000
022000
022000
022000
022000
022000
022000
022000
022000
077000
000000
000000
000000
ENDCHAR
STARTCHAR 242d
ENCODING 9261
SWIDTH 666 0
DWIDTH 18 0
BBX 18 19 0 -1
BITMAP
000000
000000
000000
000000
000000
1ddc00
088800
088800
088800
088800
088800
088800
088800
088800
088800
1ddc00
000000
000000
000000
ENDCHAR
STARTCHAR 242e
ENCODING 9262
SWIDTH 666 0
DWIDTH 18 0
BBX 18 19 0 -1
BITMAP
000000
000000
000000
000000
000000
3b8e00
110400
110400
108800
108800
108800
105000
105000
105000
102000
382000
000000
000000
000000
ENDCHAR
STARTCHAR 242f
ENCODING 9263
SWIDTH 666 0
DWIDTH 18 0
BBX 18 19 0 -1
BITMAP
000000
000000
000000
000000
000000
0e3800
041000
041000
022000
022000
022000
014000
014000
014000
008000
008000
000000
000000
000000
ENDCHAR
STARTCHAR 2430
ENCODING 9264
SWIDTH 666 0
DWIDTH 18 0
BBX 18 19 0 -1
BITMAP
000000
000000
000000
000000
000000
38ee00
104400
104400
088400
088400
088400
050400
050400
050400
020400
020e00
000000
000000
000000
ENDCHAR
STARTCHAR 2431
ENCODING 9265
SWIDTH 666 0
DWIDTH 18 0
BBX 18 19 0 -1
BITMAP
000000
000000
000000
000000
000000
3bfe00
112400
112400
112400
0a2400
0a2400
0a2400
0a2400
042400
042400
047e00
000000
000000
000000
ENDCHAR
STARTCHAR 2432
ENCODING 9266
SWIDTH 666 0
DWIDTH 18 0
BBX 18 19 0 -1
BITMAP
000000
000000
000000
000000
000000
3bfe00
115400
115400
115400
0a5400
0a5400
0a5400
0a5400
045400
045400
04fe00
000000
000000
000000
ENDCHAR
STARTCHAR 2433
ENCODING 9267
SWIDTH 666 0
DWIDTH 18 0
BBX 18 19 0 -1
BITMAP
000000
000000
000000
000000
000000
1ddc00
088800
088800
085000
085000
082000
085000
085000
088800
088800
1ddc00
000000
000000
000000
ENDCHAR
STARTCHAR 2434
ENCODING 9268
SWIDTH 666 0
DWIDTH 18 0
BBX 18 19 0 -1
BITMAP
000000
000000
000000
000000
000000
1e3c00
041000
022000
022000
014000
008000
014000
022000
022000
041000
1e3c00
000000
000000
000000
ENDCHAR
STARTCHAR 2435
ENCODING 9269
SWIDTH 666 0
DWIDTH 18 0
BBX 18 19 0 -1
BITMAP
000000
000000
010000
010000
010000
010000
010000
010000
010000
010000
010000
010000
010000
010000
010000
010000
000000
000000
000000
ENDCHAR
STARTCHAR 2436
ENCODING 9270
SWIDTH 666 0
DWIDTH 18 0
BBX 18 19 0 -1
BITMAP
000000
000000
004000
004000
004000
044000
044000
044000
044000
044000
044000
044000
044000
004000
004000
004000
000000
000000
000000
ENDCHAR
STARTCHAR 2437
ENCODING 9271
SWIDTH 666 0
DWIDTH 18 0
BBX 18 19 0 -1
BITMAP
000000
000000
000800
000800
080800
080800
088800
088800
088800
088800
088800
088800
080800
080800
000800
000800
000000
000000
000000
ENDCHAR
STARTCHAR 2438
ENCODING 9272
SWIDTH 666 0
DWIDTH 18 0
BBX 18 19 0 -1
BITMAP
000000
000000
000200
200200
100400
080800
041000
022000
014000
008000
014000
022000
041000
080800
100400
600200
000000
000000
000000
ENDCHAR
STARTCHAR 2439
ENCODING 9273
SWIDTH 666 0
DWIDTH 18 0
BBX 18 19 0 -1
BITMAP
000000
000000
000000
001000
011000
022000
044000
028000
010000
028000
044000
082000
082000
082000
082000
044000
038000
000000
000000
ENDCHAR
STARTCHAR 243a
ENCODING 9274
SWIDTH 666 0
DWIDTH 18 0
BBX 18 19 0 -1
BITMAP
000000
000000
000000
000000
010000
010000
010000
010000
010000
7ffc00
000000
000000
000000
000000
000000
000000
000000
000000
000000
ENDCHAR
STARTCHAR 243b
ENCODING 9275
SWIDTH 666 0
DWIDTH 18 0
BBX 18 19 0 -1
BITMAP
000000
000000
000000
010000
010000
010000
010000
010000
7ffc00
000000
000000
1ff000
000000
000000
000000
000000
000000
000000
000000
ENDCHAR
STARTCHAR 243c
ENCODING 9276
SWIDTH 666 0
DWIDTH 18 0
BBX 18 19 0 -1
BITMAP
000000
000000
010000
010000
010000
010000
010000
3ffc00
000000
000000
0ff000
000000
000000
7ffe00
000000
000000
000000
000000
000000
ENDCHAR
STARTCHAR 243d
ENCODING 9277
SWIDTH 666 0
DWIDTH 18 0
BBX 18 19 0 -1
BITMAP
000000
000000
020000
040000
080000
1ff800
000800
101000
082000
044000
028000
010000
028000
044000
082000
301c00
000000
000000
000000
ENDCHAR
STARTCHAR 243e
ENCODING 9278
SWIDTH 666 0
DWIDTH 18 0
BBX 18 19 0 -1
BITMAP
000000
000000
010000
010000
010000
010000
010000
010000
7ffe00
010000
010000
010000
010000
010000
010000
010000
000000
000000
000000
ENDCHAR
STARTCHAR 243f
ENCODING 9279
SWIDTH 666 0
DWIDTH 18 0
BBX 18 19 0 -1
BITMAP
000000
000000
000000
042000
042000
042000
042000
042000
7ffe00
042000
042000
042000
042000
042000
042000
000000
000000
000000
000000
ENDCHAR
STARTCHAR 2440
ENCODING 9280
SWIDTH 666 0
DWIDTH 18 0
BBX 18 19 0 -1
BITMAP
000000
000000
000000
111000
111000
111000
111000
111000
7ffe00
111000
111000
111000
111000
111000
111000
000000
000000
000000
000000
ENDCHAR
STARTCHAR 2441
ENCODING 9281
SWIDTH 666 0
DWIDTH 18 0
BBX 18 19 0 -1
BITMAP
000000
000000
018000
018000
024000
024000
024000
042000
042000
042000
0ff000
081000
081000
100800
100800
381c00
000000
000000
000000
ENDCHAR
STARTCHAR 2442
ENCODING 9282
SWIDTH 666 0
DWIDTH 18 0
BBX 18 19 0 -1
BITMAP
000000
000000
1ff000
080800
080400
080400
080400
080800
0ff000
080800
080400
080400
080400
080400
080800
1ff000
000000
000000
000000
ENDCHAR
STARTCHAR 2443
ENCODING 9283
SWIDTH 666 0
DWIDTH 18 0
BBX 18 19 0 -1
BITMAP
000000
000000
03e000
041400
080c00
080400
100400
100000
100000
100000
100000
100000
080400
080800
041000
03e000
000000
000000
000000
ENDCHAR
STARTCHAR 2444
ENCODING 9284
SWIDTH 666 0
DWIDTH 18 0
BBX 18 19 0 -1
BITMAP
000000
000000
1fe000
081000
080800
080800
080400
080400
080400
080400
080400
080400
080800
080800
081000
1fe000
000000
000000
000000
ENDCHAR
STARTCHAR 2445
ENCODING 9285
SWIDTH 666 0
DWIDTH 18 0
BBX 18 19 0 -1
BITMAP
000000
000000
1ffc00
080400
080000
080000
080000
081000
0ff000
081000
080000
080000
080000
080000
080400
1ffc00
000000
000000
000000
ENDCHAR
STARTCHAR 2446
ENCODING 9286
SWIDTH 666 0
DWIDTH 18 0
BBX 18 19 0 -1
BITMAP
000000
000000
1ffc00
080400
080000
080000
080000
081000
0ff000
081000
080000
080000
080000
080000
080000
1c0000
000000
000000
000000
ENDCHAR
STARTCHAR 2447
ENCODING 9287
SWIDTH 666 0
DWIDTH 18 0
BBX 18 19 0 -1
BITMAP
000000
000000
03e400
041400
080c00
080400
100400
100000
100000
101e00
100400
100400
080400
080c00
041400
03e400
000000
000000
000000
ENDCHAR
STARTCHAR 2448
ENCODING 9288
SWIDTH 666 0
DWIDTH 18 0
BBX 18 19 0 -1
BITMAP
000000
000000
1c1c00
080800
080800
080800
080800
080800
0ff800
080800
080800
080800
080800
080800
080800
1c1c00
000000
000000
000000
ENDCHAR
STARTCHAR 2449
ENCODING 9289
SWIDTH 666 0
DWIDTH 18 0
BBX 18 19 0 -1
BITMAP
000000
000000
03e000
008000
008000
008000
008000
008000
008000
008000
008000
008000
008000
008000
008000
03e000
000000
000000
000000
ENDCHAR
STARTCHAR 244a
ENCODING 9290
SWIDTH 666 0
DWIDTH 18 0
BBX 18 19 0 -1
BITMAP
000000
000000
00f800
002000
002000
002000
002000
002000
002000
002000
002000
002000
082000
0c2000
044000
038000
000000
000000
000000
ENDCHAR
STARTCHAR 244b
ENCODING 9291
SWIDTH 666 0
DWIDTH 18 0
BBX 18 19 0 -1
BITMAP
000000
000000
1c3c00
081000
082000
084000
088000
090000
0b0000
0c8000
084000
082000
082000
081000
080800
1c1e00
000000
000000
000000
ENDCHAR
STARTCHAR 244c
ENCODING 9292
SWIDTH 666 0
DWIDTH 18 0
BBX 18 19 0 -1
BITMAP
000000
000000
0e0000
040000
040000
040000
040000
040000
040000
040000
040000
040000
040000
040400
040400
0ffc00
000000
000000
000000
ENDCHAR
STARTCHAR 244d
ENCODING 9293
SWIDTH 666 0
DWIDTH 18 0
BBX 18 19 0 -1
BITMAP
000000
000000
380e00
180c00
180c00
141400
141400
122400
122400
114400
114400
108400
108400
100400
100400
380e00
000000
000000
000000
ENDCHAR
STARTCHAR 244e
ENCODING 9294
SWIDTH 666 0
DWIDTH 18 0
BBX 18 19 0 -1
BITMAP
000000
000000
181c00
0c0800
0c0800
0a0800
0a0800
090800
090800
088800
088800
084800
084800
082800
082800
1c1800
000000
000000
000000
ENDCHAR
STARTCHAR 244f
ENCODING 9295
SWIDTH 666 0
DWIDTH 18 0
BBX 18 19 0 -1
BITMAP
000000
000000
03e000
041000
080800
080800
100400
100400
100400
100400
100400
100400
080800
080800
041000
03e000
000000
000000
000000
ENDCHAR
STARTCHAR 2450
ENCODING 9296
SWIDTH 666 0
DWIDTH 18 0
BBX 18 19 0 -1
BITMAP
000000
000000
1ff000
080800
080400
080400
080400
080400
080800
0ff000
080000
080000
080000
080000
080000
1c0000
000000
000000
000000
ENDCHAR
STARTCHAR 2451
ENCODING 9297
SWIDTH 666 0
DWIDTH 18 0
BBX 18 19 0 -1
BITMAP
000000
000000
03e000
041000
080800
080800
100400
100400
100400
100400
100400
100400
09c800
082800
041000
03f200
000c00
000000
000000
ENDCHAR
STARTCHAR 2452
ENCODING 9298
SWIDTH 666 0
DWIDTH 18 0
BBX 18 19 0 -1
BITMAP
000000
000000
1fe000
081000
080800
080800
080800
080800
081000
0fe000
084000
082000
081000
081000
080800
1c1e00
000000
000000
000000
ENDCHAR
STARTCHAR 2453
ENCODING 9299
SWIDTH 666 0
DWIDTH 18 0
BBX 18 19 0 -1
BITMAP
000000
000000
03c000
042800
081800
080800
080800
060000
01c000
003000
000800
100400
100400
180400
140800
03f000
000000
000000
000000
ENDCHAR
STARTCHAR 2454
ENCODING 9300
SWIDTH 666 0
DWIDTH 18 0
BBX 18 19 0 -1
BITMAP
000000
000000
3ffe00
208200
208200
008000
008000
008000
008000
008000
008000
008000
008000
008000
008000
03e000
000000
000000
000000
ENDCHAR
STARTCHAR 2455
ENCODING 9301
SWIDTH 666 0
DWIDTH 18 0
BBX 18 19 0 -1
BITMAP
000000
000000
381c00
100800
100800
100800
100800
100800
100800
100800
100800
100800
100800
081000
042000
03c000
000000
000000
000000
ENDCHAR
STARTCHAR 2456
ENCODING 9302
SWIDTH 666 0
DWIDTH 18 0
BBX 18 19 0 -1
BITMAP
000000
000000
380e00
100400
080800
080800
080800
041000
041000
022000
022000
022000
014000
014000
008000
008000
000000
000000
000000
ENDCHAR
STARTCHAR 2457
ENCODING 9303
SWIDTH 666 0
DWIDTH 18 0
BBX 18 19 0 -1
BITMAP
000000
000000
700700
200200
200200
108400
108400
108400
114400
094800
094800
0a2800
0a2800
063000
041000
041000
000000
000000
000000
ENDCHAR
STARTCHAR 2458
ENCODING 9304
SWIDTH 666 0
DWIDTH 18 0
BBX 18 19 0 -1
BITMAP
000000
000000
3c3c00
081000
042000
042000
024000
024000
018000
018000
024000
024000
042000
042000
081000
3c3c00
000000
000000
000000
ENDCHAR
STARTCHAR 2459
ENCODING 9305
SWIDTH 666 0
DWIDTH 18 0
BBX 18 19 0 -1
BITMAP
000000
000000
1c1c00
080800
041000
041000
022000
022000
014000
014000
008000
008000
008000
008000
008000
01c000
000000
000000
000000
ENDCHAR
STARTCHAR 245a
ENCODING 9306
SWIDTH 666 0
DWIDTH 18 0
BBX 18 19 0 -1
BITMAP
000000
000000
1ffc00
100800
101000
001000
002000
004000
004000
008000
010000
020000
020000
040400
080400
1ffc00
000000
000000
000000
ENDCHAR
STARTCHAR 245b
ENCODING 9307
SWIDTH 666 0
DWIDTH 18 0
BBX 18 19 0 -1
BITMAP
000000
000000
000000
000000
000000
000000
03c000
042000
0c1000
001000
01f000
061000
081000
081000
087000
079800
000000
000000
000000
ENDCHAR
STARTCHAR 245c
ENCODING 9308
SWIDTH 666 0
DWIDTH 18 0
BBX 18 19 0 -1
BITMAP
000000
000000
0c0000
040000
040000
040000
05e000
061000
040800
040800
040800
040800
040800
040800
061000
05e000
000000
000000
000000
ENDCHAR
STARTCHAR 245d
ENCODING 9309
SWIDTH 666 0
DWIDTH 18 0
BBX 18 19 0 -1
BITMAP
000000
000000
000000
000000
000000
000000
03e000
041000
081800
080000
080000
080000
080000
080800
041000
03e000
000000
000000
000000
ENDCHAR
STARTCHAR 245e
ENCODING 9310
SWIDTH 666 0
DWIDTH 18 0
BBX 18 19 0 -1
BITMAP
000000
000000
003000
001000
001000
001000
03d000
043000
081000
081000
081000
081000
081000
081000
043000
03d800
000000
000000
000000
ENDCHAR
STARTCHAR 245f
ENCODING 9311
SWIDTH 666 0
DWIDTH 18 0
BBX 18 19 0 -1
BITMAP
000000
000000
000000
000000
000000
000000
03e000
041000
080800
080800
0ff800
080000
080000
080800
041000
03e000
000000
000000
000000
ENDCHAR
STARTCHAR 2460
ENCODING 9312
SWIDTH 666 0
DWIDTH 18 0
BBX 18 19 0 -1
BITMAP
000000
000000
00e000
013000
010000
010000
07e000
010000
010000
010000
010000
010000
010000
010000
010000
07c000
000000
000000
000000
ENDCHAR
STARTCHAR 2461
ENCODING 9313
SWIDTH 666 0
DWIDTH 18 0
BBX 18 19 0 -1
BITMAP
000000
000000
000000
000000
000000
000000
03cc00
043400
042000
042000
03c000
080000
07e000
081000
100800
081000
07e000
000000
000000
ENDCHAR
STARTCHAR 2462
ENCODING 9314
SWIDTH 666 0
DWIDTH 18 0
BBX 18 19 0 -1
BITMAP
000000
000000
0c0000
040000
040000
040000
05e000
061000
040800
040800
040800
040800
040800
040800
040800
0e1c00
000000
000000
000000
ENDCHAR
STARTCHAR 2463
ENCODING 9315
SWIDTH 666 0
DWIDTH 18 0
BBX 18 19 0 -1
BITMAP
000000
000000
018000
018000
000000
000000
038000
008000
008000
008000
008000
008000
008000
008000
008000
03e000
000000
000000
000000
ENDCHAR
STARTCHAR 2464
ENCODING 9316
SWIDTH 666 0
DWIDTH 18 0
BBX 18 19 0 -1
BITMAP
000000
000000
00c000
00c000
000000
000000
01c000
004000
004000
004000
004000
004000
004000
004000
004000
064000
038000
000000
000000
ENDCHAR
STARTCHAR 2465
ENCODING 9317
SWIDTH 666 0
DWIDTH 18 0
BBX 18 19 0 -1
BITMAP
000000
000000
0c0000
040000
040000
040000
043800
042000
044000
048000
050000
068000
044000
042000
041000
0e1c00
000000
000000
000000
ENDCHAR
STARTCHAR 2466
ENCODING 9318
SWIDTH 666 0
DWIDTH 18 0
BBX 18 19 0 -1
BITMAP
000000
000000
018000
008000
008000
008000
008000
008000
008000
008000
008000
008000
008000
008000
008000
01c000
000000
000000
000000
ENDCHAR
STARTCHAR 2467
ENCODING 9319
SWIDTH 666 0
DWIDTH 18 0
BBX 18 19 0 -1
BITMAP
000000
000000
000000
000000
000000
000000
373800
18c400
108400
108400
108400
108400
108400
108400
108400
39ce00
000000
000000
000000
ENDCHAR
STARTCHAR 2468
ENCODING 9320
SWIDTH 666 0
DWIDTH 18 0
BBX 18 19 0 -1
BITMAP
000000
000000
000000
000000
000000
000000
1bc000
0c2000
081000
081000
081000
081000
081000
081000
081000
1c3800
000000
000000
000000
ENDCHAR
STARTCHAR 2469
ENCODING 9321
SWIDTH 666 0
DWIDTH 18 0
BBX 18 19 0 -1
BITMAP
000000
000000
000000
000000
000000
000000
03e000
041000
080800
080800
080800
080800
080800
080800
041000
03e000
000000
000000
000000
ENDCHAR
STARTCHAR 246a
ENCODING 9322
SWIDTH 666 0
DWIDTH 18 0
BBX 18 19 0 -1
BITMAP
000000
000000
000000
000000
000000
000000
0de000
061000
040800
040800
040800
040800
061000
05e000
040000
040000
0e0000
000000
000000
ENDCHAR
STARTCHAR 246b
ENCODING 9323
SWIDTH 666 0
DWIDTH 18 0
BBX 18 19 0 -1
BITMAP
000000
000000
000000
000000
000000
000000
03d000
043000
081000
081000
081000
081000
043000
03d000
001000
001000
003800
000000
000000
ENDCHAR
STARTCHAR 246c
ENCODING 9324
SWIDTH 666 0
DWIDTH 18 0
BBX 18 19 0 -1
BITMAP
000000
000000
000000
000000
000000
000000
06e000
033000
020000
020000
020000
020000
020000
020000
020000
070000
000000
000000
000000
ENDCHAR
STARTCHAR 246d
ENCODING 9325
SWIDTH 666 0
DWIDTH 18 0
BBX 18 19 0 -1
BITMAP
000000
000000
000000
000000
000000
000000
03d000
043000
081000
040000
03e000
001000
080800
080800
0c1000
0be000
000000
000000
000000
ENDCHAR
STARTCHAR 246e
ENCODING 9326
SWIDTH 666 0
DWIDTH 18 0
BBX 18 19 0 -1
BITMAP
000000
000000
010000
010000
010000
010000
07e000
010000
010000
010000
010000
010000
010000
010800
009000
006000
000000
000000
000000
ENDCHAR
STARTCHAR 246f
ENCODING 9327
SWIDTH 666 0
DWIDTH 18 0
BBX 18 19 0 -1
BITMAP
000000
000000
000000
000000
000000
000000
183000
081000
081000
081000
081000
081000
081000
081000
043000
03d800
000000
000000
000000
ENDCHAR
STARTCHAR 2470
ENCODING 9328
SWIDTH 666 0
DWIDTH 18 0
BBX 18 19 0 -1
BITMAP
000000
000000
000000
000000
000000
000000
1c1c00
080800
041000
041000
022000
022000
014000
014000
008000
008000
000000
000000
000000
ENDCHAR
STARTCHAR 2471
ENCODING 9329
SWIDTH 666 0
DWIDTH 18 0
BBX 18 19 0 -1
BITMAP
000000
000000
000000
000000
000000
000000
380e00
100400
108400
088800
094800
094800
0a2800
063000
041000
041000
000000
000000
000000
ENDCHAR
STARTCHAR 2472
ENCODING 9330
SWIDTH 666 0
DWIDTH 18 0
BBX 18 19 0 -1
BITMAP
000000
000000
000000
000000
000000
000000
1c1c00
041000
022000
014000
008000
008000
014000
022000
041000
1c1c00
000000
000000
000000
ENDCHAR
STARTCHAR 2473
ENCODING 9331
SWIDTH 666 0
DWIDTH 18 0
BBX 18 19 0 -1
BITMAP
000000
000000
000000
000000
000000
000000
0e1c00
040800
021000
022000
012000
014000
00c000
008000
010000
0d0000
060000
000000
000000
ENDCHAR
STARTCHAR 2474
ENCODING 9332
SWIDTH 666 0
DWIDTH 18 0
BBX 18 19 0 -1
BITMAP
000000
000000
000000
000000
000000
000000
0ff800
081000
002000
004000
008000
010000
020000
040000
080800
0ff800
000000
000000
000000
ENDCHAR
STARTCHAR 2475
ENCODING 9333
SWIDTH 666 0
DWIDTH 18 0
BBX 18 19 0 -1
BITMAP
000000
000000
008000
008000
014000
014000
014000
022000
022000
022000
07f000
041000
041000
080800
080800
1c1c00
000000
000000
000000
ENDCHAR
STARTCHAR 2476
ENCODING 9334
SWIDTH 666 0
DWIDTH 18 0
BBX 18 19 0 -1
BITMAP
000000
000000
1ff000
080800
080400
080400
080400
080800
0ff000
080800
080400
080400
080400
080400
080800
1ff000
000000
000000
000000
ENDCHAR
STARTCHAR 2477
ENCODING 9335
SWIDTH 666 0
DWIDTH 18 0
BBX 18 19 0 -1
BITMAP
000000
000000
1ffc00
080400
080400
080000
080000
080000
080000
080000
080000
080000
080000
080000
080000
1c0000
000000
000000
000000
ENDCHAR
STARTCHAR 2478
ENCODING 9336
SWIDTH 666 0
DWIDTH 18 0
BBX 18 19 0 -1
BITMAP
000000
000000
008000
008000
014000
014000
014000
022000
022000
022000
041000
041000
041000
080800
080800
1ffc00
000000
000000
000000
ENDCHAR
STARTCHAR 2479
ENCODING 9337
SWIDTH 666 0
DWIDTH 18 0
BBX 18 19 0 -1
BITMAP
000000
000000
1ffc00
080400
080000
080000
080000
081000
0ff000
081000
080000
080000
080000
080000
080400
1ffc00
000000
000000
000000
ENDCHAR
STARTCHAR 247a
ENCODING 9338
SWIDTH 666 0
DWIDTH 18 0
BBX 18 19 0 -1
BITMAP
000000
000000
1ffc00
100800
101000
001000
002000
004000
004000
008000
010000
020000
020000
040400
080400
1ffc00
000000
000000
000000
ENDCHAR
STARTCHAR 247b
ENCODING 9339
SWIDTH 666 0
DWIDTH 18 0
BBX 18 19 0 -1
BITMAP
000000
000000
1c1c00
080800
080800
080800
080800
080800
0ff800
080800
080800
080800
080800
080800
080800
1c1c00
000000
000000
000000
ENDCHAR
STARTCHAR 247c
ENCODING 9340
SWIDTH 666 0
DWIDTH 18 0
BBX 18 19 0 -1
BITMAP
000000
000000
03e000
041000
080800
080800
100400
122400
13e400
122400
100400
100400
080800
080800
041000
03e000
000000
000000
000000
ENDCHAR
STARTCHAR 247d
ENCODING 9341
SWIDTH 666 0
DWIDTH 18 0
BBX 18 19 0 -1
BITMAP
000000
000000
03e000
008000
008000
008000
008000
008000
008000
008000
008000
008000
008000
008000
008000
03e000
000000
000000
000000
ENDCHAR
STARTCHAR 247e
ENCODING 9342
SWIDTH 666 0
DWIDTH 18 0
BBX 18 19 0 -1
BITMAP
000000
000000
1c3c00
081000
082000
084000
088000
090000
0b0000
0c8000
084000
082000
082000
081000
080800
1c1e00
000000
000000
000000
ENDCHAR
STARTCHAR 2521
ENCODING 9505
SWIDTH 666 0
DWIDTH 18 0
BBX 18 19 0 -1
BITMAP
000000
000000
008000
008000
014000
014000
014000
022000
022000
022000
041000
041000
041000
080800
080800
1c1c00
000000
000000
000000
ENDCHAR
STARTCHAR 2522
ENCODING 9506
SWIDTH 666 0
DWIDTH 18 0
BBX 18 19 0 -1
BITMAP
000000
000000
380e00
180c00
180c00
141400
141400
122400
122400
114400
114400
108400
108400
100400
100400
380e00
000000
000000
000000
ENDCHAR
STARTCHAR 2523
ENCODING 9507
SWIDTH 666 0
DWIDTH 18 0
BBX 18 19 0 -1
BITMAP
000000
000000
1c1c00
0c0800
0a0800
0a0800
090800
090800
088800
088800
084800
084800
082800
082800
081800
1c1800
000000
000000
000000
ENDCHAR
STARTCHAR 2524
ENCODING 9508
SWIDTH 666 0
DWIDTH 18 0
BBX 18 19 0 -1
BITMAP
000000
000000
0ffc00
080400
000000
000000
000000
041000
07f000
041000
000000
000000
000000
000000
100800
1ff800
000000
000000
000000
ENDCHAR
STARTCHAR 2525
ENCODING 9509
SWIDTH 666 0
DWIDTH 18 0
BBX 18 19 0 -1
BITMAP
000000
000000
03e000
041000
080800
080800
100400
100400
100400
100400
100400
100400
080800
080800
041000
03e000
000000
000000
000000
ENDCHAR
STARTCHAR 2526
ENCODING 9510
SWIDTH 666 0
DWIDTH 18 0
BBX 18 19 0 -1
BITMAP
000000
000000
1ffc00
080800
080800
080800
080800
080800
080800
080800
080800
080800
080800
080800
080800
1c1c00
000000
000000
000000
ENDCHAR
STARTCHAR 2527
ENCODING 9511
SWIDTH 666 0
DWIDTH 18 0
BBX 18 19 0 -1
BITMAP
000000
000000
1ff000
080800
080400
080400
080400
080400
080800
0ff000
080000
080000
080000
080000
080000
1c0000
000000
000000
000000
ENDCHAR
STARTCHAR 2528
ENCODING 9512
SWIDTH 666 0
DWIDTH 18 0
BBX 18 19 0 -1
BITMAP
000000
000000
1ffc00
080400
040000
020000
010000
008000
004000
004000
008000
010000
020000
040000
080400
1ffc00
000000
000000
000000
ENDCHAR
STARTCHAR 2529
ENCODING 9513
SWIDTH 666 0
DWIDTH 18 0
BBX 18 19 0 -1
BITMAP
000000
000000
3ffe00
208200
208200
008000
008000
008000
008000
008000
008000
008000
008000
008000
008000
03e000
000000
000000
000000
ENDCHAR
STARTCHAR 252a
ENCODING 9514
SWIDTH 666 0
DWIDTH 18 0
BBX 18 19 0 -1
BITMAP
000000
000000
0e3800
114400
208200
008000
008000
008000
008000
008000
008000
008000
008000
008000
008000
03e000
000000
000000
000000
ENDCHAR
STARTCHAR 252b
ENCODING 9515
SWIDTH 666 0
DWIDTH 18 0
BBX 18 19 0 -1
BITMAP
000000
000000
01c000
008000
008000
07f000
088800
108400
108400
108400
088800
07f000
008000
008000
008000
01c000
000000
000000
000000
ENDCHAR
STARTCHAR 252c
ENCODING 9516
SWIDTH 666 0
DWIDTH 18 0
BBX 18 19 0 -1
BITMAP
000000
000000
3c1e00
080800
041000
022000
022000
014000
008000
014000
014000
022000
041000
041000
080800
3c1e00
000000
000000
000000
ENDCHAR
STARTCHAR 252d
ENCODING 9517
SWIDTH 666 0
DWIDTH 18 0
BBX 18 19 0 -1
BITMAP
000000
000000
01c000
188c00
349600
049000
049000
049000
049000
049000
02a000
02a000
01c000
008000
008000
03e000
000000
000000
000000
ENDCHAR
STARTCHAR 252e
ENCODING 9518
SWIDTH 666 0
DWIDTH 18 0
BBX 18 19 0 -1
BITMAP
000000
000000
03e000
041000
080800
100400
100400
100400
100400
100400
080800
041000
022000
114400
114400
1f7c00
000000
000000
000000
ENDCHAR
STARTCHAR 252f
ENCODING 9519
SWIDTH 666 0
DWIDTH 18 0
BBX 18 19 0 -1
BITMAP
000000
000000
000000
000000
000000
000000
039000
045000
085000
082000
102000
102000
104000
106000
08a000
071c00
000000
000000
000000
ENDCHAR
STARTCHAR 2530
ENCODING 9520
SWIDTH 666 0
DWIDTH 18 0
BBX 18 19 0 -1
BITMAP
000000
000000
00e000
011000
020800
020800
020800
041000
05e000
041000
080800
080800
0c0800
0a1000
11e000
100000
100000
000000
000000
ENDCHAR
STARTCHAR 2531
ENCODING 9521
SWIDTH 666 0
DWIDTH 18 0
BBX 18 19 0 -1
BITMAP
000000
000000
000000
000000
000000
000000
038800
044800
082800
003000
001000
001000
002000
002000
002000
004000
004000
000000
000000
ENDCHAR
STARTCHAR 2532
ENCODING 9522
SWIDTH 666 0
DWIDTH 18 0
BBX 18 19 0 -1
BITMAP
000000
000000
018000
026000
021800
010000
01c000
022000
041000
041000
081000
081000
082000
082000
044000
038000
000000
000000
000000
ENDCHAR
STARTCHAR 2533
ENCODING 9523
SWIDTH 666 0
DWIDTH 18 0
BBX 18 19 0 -1
BITMAP
000000
000000
000000
000000
000000
000000
01f000
020800
040000
020000
03f000
040000
080000
080400
040800
03f000
000000
000000
000000
ENDCHAR
STARTCHAR 2534
ENCODING 9524
SWIDTH 666 0
DWIDTH 18 0
BBX 18 19 0 -1
BITMAP
000000
010000
030800
023000
01c000
008000
010000
020000
020000
040000
040000
020000
018000
006000
001000
031000
01e000
000000
000000
ENDCHAR
STARTCHAR 2535
ENCODING 9525
SWIDTH 666 0
DWIDTH 18 0
BBX 18 19 0 -1
BITMAP
000000
000000
000000
000000
000000
000000
067800
098400
010400
010800
020800
020800
041000
041000
081000
082000
002000
000000
000000
ENDCHAR
STARTCHAR 2536
ENCODING 9526
SWIDTH 666 0
DWIDTH 18 0
BBX 18 19 0 -1
BITMAP
000000
000000
00e000
011000
021000
021000
041000
041000
07e000
082000
082000
082000
084000
084000
088000
070000
000000
000000
000000
ENDCHAR
STARTCHAR 2537
ENCODING 9527
SWIDTH 666 0
DWIDTH 18 0
BBX 18 19 0 -1
BITMAP
000000
000000
000000
000000
000000
000000
008000
010000
010000
020000
020000
020000
040000
042000
044000
038000
000000
000000
000000
ENDCHAR
STARTCHAR 2538
ENCODING 9528
SWIDTH 666 0
DWIDTH 18 0
BBX 18 19 0 -1
BITMAP
000000
000000
000000
000000
000000
000000
021800
022000
024000
048000
070000
048000
088000
084000
104800
103000
000000
000000
000000
ENDCHAR
STARTCHAR 2539
ENCODING 9529
SWIDTH 666 0
DWIDTH 18 0
BBX 18 19 0 -1
BITMAP
000000
000000
030000
008000
008000
008000
008000
014000
014000
024000
024000
042000
042000
042000
082000
081800
000000
000000
000000
ENDCHAR
STARTCHAR 253a
ENCODING 9530
SWIDTH 666 0
DWIDTH 18 0
BBX 18 19 0 -1
BITMAP
000000
000000
000000
000000
000000
000000
020800
020800
041000
041000
041000
082000
082000
082000
146800
139000
100000
000000
000000
ENDCHAR
STARTCHAR 253b
ENCODING 9531
SWIDTH 666 0
DWIDTH 18 0
BBX 18 19 0 -1
BITMAP
000000
000000
000000
000000
000000
000000
081000
081000
041000
042000
042000
044000
048000
050000
060000
040000
000000
000000
000000
ENDCHAR
STARTCHAR 253c
ENCODING 9532
SWIDTH 666 0
DWIDTH 18 0
BBX 18 19 0 -1
BITMAP
000000
010000
030800
023000
01c000
010000
020000
01f000
020000
040000
040000
020000
018000
006000
001000
031000
01e000
000000
000000
ENDCHAR
STARTCHAR 253d
ENCODING 9533
SWIDTH 666 0
DWIDTH 18 0
BBX 18 19 0 -1
BITMAP
000000
000000
000000
000000
000000
000000
01c000
022000
041000
041000
081000
081000
082000
082000
044000
038000
000000
000000
000000
ENDCHAR
STARTCHAR 253e
ENCODING 9534
SWIDTH 666 0
DWIDTH 18 0
BBX 18 19 0 -1
BITMAP
000000
000000
000000
000000
000000
000000
000000
078800
0a7000
124000
024000
024000
024000
044400
044800
083000
100000
000000
000000
ENDCHAR
STARTCHAR 253f
ENCODING 9535
SWIDTH 666 0
DWIDTH 18 0
BBX 18 19 0 -1
BITMAP
000000
000000
000000
000000
000000
000000
00e000
011000
010800
020800
020800
041000
041000
062000
09c000
080000
080000
000000
000000
ENDCHAR
STARTCHAR 2540
ENCODING 9536
SWIDTH 666 0
DWIDTH 18 0
BBX 18 19 0 -1
BITMAP
000000
000000
000000
000000
000000
000000
01c400
023800
041000
041000
081000
081000
082000
082000
044000
038000
000000
000000
000000
ENDCHAR
STARTCHAR 2541
ENCODING 9537
SWIDTH 666 0
DWIDTH 18 0
BBX 18 19 0 -1
BITMAP
000000
000000
000000
000000
000000
000000
0f0800
11f000
010000
020000
020000
020000
040000
042000
044000
038000
000000
000000
000000
ENDCHAR
STARTCHAR 2542
ENCODING 9538
SWIDTH 666 0
DWIDTH 18 0
BBX 18 19 0 -1
BITMAP
000000
000000
000000
000000
000000
000000
021000
021000
041000
041000
081000
082000
082000
082000
044000
038000
000000
000000
000000
ENDCHAR
STARTCHAR 2543
ENCODING 9539
SWIDTH 666 0
DWIDTH 18 0
BBX 18 19 0 -1
BITMAP
000000
000000
002000
002000
004000
03e000
049000
088800
088800
110800
111000
111000
0a2000
07c000
020000
040000
040000
000000
000000
ENDCHAR
STARTCHAR 2544
ENCODING 9540
SWIDTH 666 0
DWIDTH 18 0
BBX 18 19 0 -1
BITMAP
000000
000000
000000
000000
000000
000000
0c3000
124000
028000
028000
010000
010000
028000
028000
049000
186000
000000
000000
000000
ENDCHAR
STARTCHAR 2545
ENCODING 9541
SWIDTH 666 0
DWIDTH 18 0
BBX 18 19 0 -1
BITMAP
000000
000000
002000
002000
004000
004000
044800
088800
088800
110800
111000
111000
0a2000
07c000
020000
040000
040000
000000
000000
ENDCHAR
STARTCHAR 2546
ENCODING 9542
SWIDTH 666 0
DWIDTH 18 0
BBX 18 19 0 -1
BITMAP
000000
000000
000000
000000
000000
000000
011000
020800
040800
080800
088800
108800
110800
111000
111000
0ee000
000000
000000
000000
ENDCHAR
STARTCHAR 2547
ENCODING 9543
SWIDTH 666 0
DWIDTH 18 0
BBX 18 19 0 -1
BITMAP
000000
060000
070000
0e0000
180400
3ffe00
1fff00
000600
000600
000600
000600
000600
000c00
000c00
061c00
01f800
00f000
000000
000000
ENDCHAR
STARTCHAR 2548
ENCODING 9544
SWIDTH 666 0
DWIDTH 18 0
BBX 18 19 0 -1
BITMAP
000000
060000
070000
0c0000
180400
3ffe00
1fff00
040e00
021c00
01b800
00f000
00f000
01b800
071c00
0c0e00
180700
600200
000000
000000
ENDCHAR
STARTCHAR 2549
ENCODING 9545
SWIDTH 666 0
DWIDTH 18 0
BBX 18 19 0 -1
BITMAP
000000
200600
3fff00
3fff00
300600
300600
300600
300600
300600
300600
300600
300600
300600
300600
300600
200600
000000
000000
000000
ENDCHAR
STARTCHAR 254a
ENCODING 9546
SWIDTH 666 0
DWIDTH 18 0
BBX 18 19 0 -1
BITMAP
000000
000000
3fff00
1fff00
180000
180000
180000
180000
180000
180000
180000
180000
180000
180000
180000
1fff00
0ffe00
000000
000000
ENDCHAR
STARTCHAR 254b
ENCODING 9547
SWIDTH 666 0
DWIDTH 18 0
BBX 18 19 0 -1
BITMAP
000000
060000
070000
0c0000
180400
7ffe00
3fff00
030600
030600
030600
030600
060600
060600
0c0c00
181c00
31f800
407000
000000
000000
ENDCHAR
STARTCHAR 254c
ENCODING 9548
SWIDTH 666 0
DWIDTH 18 0
BBX 18 19 0 -1
BITMAP
000000
00c000
00e000
00c000
00c000
7fff00
3fff00
030000
030000
060000
060000
0c0000
0c0c00
180600
7fff00
3f8300
080200
000000
000000
ENDCHAR
STARTCHAR 254d
ENCODING 9549
SWIDTH 666 0
DWIDTH 18 0
BBX 18 19 0 -1
BITMAP
000000
001800
1ffc00
0c3800
006000
00c000
018400
03fe00
018700
000600
000600
000600
000e00
001c00
07f800
01e000
008000
000000
000000
ENDCHAR
STARTCHAR 254e
ENCODING 9550
SWIDTH 666 0
DWIDTH 18 0
BBX 18 19 0 -1
BITMAP
000000
0c6000
0e7000
186000
30c600
7fff00
3fff00
018600
018600
018600
030600
030600
060600
060c00
0c1c00
19f800
306000
000000
000000
ENDCHAR
STARTCHAR 254f
ENCODING 9551
SWIDTH 666 0
DWIDTH 18 0
BBX 18 19 0 -1
BITMAP
000000
018600
01c700
018600
030c00
061800
0c3000
186000
71c000
186000
0c3000
061800
030c00
018600
01c700
00c300
000000
000000
000000
ENDCHAR
STARTCHAR 2550
ENCODING 9552
SWIDTH 666 0
DWIDTH 18 0
BBX 18 19 0 -1
BITMAP
000000
000000
7fff00
3fff00
070000
0c0400
1ffe00
0fff00
000600
000600
000600
000600
000c00
001c00
07f800
01e000
008000
000000
000000
ENDCHAR
STARTCHAR 2551
ENCODING 9553
SWIDTH 666 0
DWIDTH 18 0
BBX 18 19 0 -1
BITMAP
000000
000000
1fff00
0fff00
0c0000
0c0000
0c0000
0c0000
0c0000
0c0000
180000
180000
180000
300000
300000
600000
400000
000000
000000
ENDCHAR
STARTCHAR 2552
ENCODING 9554
SWIDTH 666 0
DWIDTH 18 0
BBX 18 19 0 -1
BITMAP
000000
180600
1c0700
180600
180600
180600
180600
180600
1ffe00
1ffe00
080600
000600
000600
000600
000600
000600
000400
000000
000000
ENDCHAR
STARTCHAR 2553
ENCODING 9555
SWIDTH 666 0
DWIDTH 18 0
BBX 18 19 0 -1
BITMAP
000000
001800
001e00
003800
007000
01c000
030000
0c0000
380000
0e0000
038000
00e000
007000
001c00
000e00
000600
000000
000000
000000
ENDCHAR
STARTCHAR 2554
ENCODING 9556
SWIDTH 666 0
DWIDTH 18 0
BBX 18 19 0 -1
BITMAP
000000
000000
3fff00
1fff00
00c000
00c000
00c000
00c000
00c000
00c000
00c000
00c000
00c000
00c000
00c000
00c000
008000
000000
000000
ENDCHAR
STARTCHAR 2555
ENCODING 9557
SWIDTH 666 0
DWIDTH 18 0
BBX 18 19 0 -1
BITMAP
000000
018000
01c000
618600
718700
618600
618600
618600
618600
7ffe00
7ffe00
218000
018000
018000
018000
7fff00
3fff00
000000
000000
ENDCHAR
STARTCHAR 2556
ENCODING 9558
SWIDTH 666 0
DWIDTH 18 0
BBX 18 19 0 -1
BITMAP
000000
00c000
00e600
01c700
030e00
061800
0c3000
187000
21f000
033000
0c3000
183000
003000
003000
003000
003000
002000
000000
000000
ENDCHAR
STARTCHAR 2557
ENCODING 9559
SWIDTH 666 0
DWIDTH 18 0
BBX 18 19 0 -1
BITMAP
000000
000600
0fff00
07ff00
000600
000600
000600
0ffe00
07fe00
060000
060000
060000
0c0000
0c0000
180000
300000
600000
000000
000000
ENDCHAR
STARTCHAR 2558
ENCODING 9560
SWIDTH 666 0
DWIDTH 18 0
BBX 18 19 0 -1
BITMAP
000000
200600
3fff00
3fff00
300600
300600
340600
330600
31c600
30e600
306600
300600
300600
300600
3ffe00
3ffe00
300400
000000
000000
ENDCHAR
STARTCHAR 2559
ENCODING 9561
SWIDTH 666 0
DWIDTH 18 0
BBX 18 19 0 -1
BITMAP
000000
000400
7ffe00
3fff00
060600
060600
060600
060600
060e00
061c00
07f800
066000
060000
060000
060000
060000
040000
000000
000000
ENDCHAR
STARTCHAR 255a
ENCODING 9562
SWIDTH 666 0
DWIDTH 18 0
BBX 18 19 0 -1
BITMAP
000000
018000
01c000
018200
3fff00
1fff00
030000
060000
060600
0fff00
07ff00
000e00
000c00
001800
001800
003000
006000
000000
000000
ENDCHAR
STARTCHAR 255b
ENCODING 9563
SWIDTH 666 0
DWIDTH 18 0
BBX 18 19 0 -1
BITMAP
000000
000000
000000
003000
003800
007000
00e000
00c000
018000
030000
060000
0c0800
180c00
300600
7fff00
3f8300
180200
000000
000000
ENDCHAR
STARTCHAR 255c
ENCODING 9564
SWIDTH 666 0
DWIDTH 18 0
BBX 18 19 0 -1
BITMAP
000000
000200
600700
300e00
0c1800
077000
03c000
018000
018000
018000
018000
018000
018000
018000
018000
018000
018000
000000
000000
ENDCHAR
STARTCHAR 255d
ENCODING 9565
SWIDTH 666 0
DWIDTH 18 0
BBX 18 19 0 -1
BITMAP
000000
000000
7fff00
3fff00
00c000
00c000
00c000
03c000
0fc000
1c0000
380000
300000
300000
380c00
1c1c00
0ff800
03e000
000000
000000
ENDCHAR
STARTCHAR 255e
ENCODING 9566
SWIDTH 666 0
DWIDTH 18 0
BBX 18 19 0 -1
BITMAP
000000
00c000
00e000
00c000
7fff00
3fff00
00c000
00c000
03c000
0fc000
1c0000
300000
300000
300c00
381c00
1ff800
07e000
000000
000000
ENDCHAR
STARTCHAR 255f
ENCODING 9567
SWIDTH 666 0
DWIDTH 18 0
BBX 18 19 0 -1
BITMAP
000000
063000
073800
063000
063000
063000
7fff00
3fff00
063000
063000
063000
063000
062000
060000
070000
03ff00
01fe00
000000
000000
ENDCHAR
STARTCHAR 2560
ENCODING 9568
SWIDTH 666 0
DWIDTH 18 0
BBX 18 19 0 -1
BITMAP
000000
000200
3fff00
1fff00
186000
186600
3fff00
1fff00
00c600
00c600
00c600
018600
018600
030600
060600
0c0600
100400
000000
000000
ENDCHAR
STARTCHAR 2561
ENCODING 9569
SWIDTH 666 0
DWIDTH 18 0
BBX 18 19 0 -1
BITMAP
000000
018000
03c000
06c000
1cc000
78c000
306000
006000
006000
003000
003000
001800
001c00
000f00
000700
000200
000000
000000
000000
ENDCHAR
STARTCHAR 2562
ENCODING 9570
SWIDTH 666 0
DWIDTH 18 0
BBX 18 19 0 -1
BITMAP
000000
030000
038000
070000
0c0800
381c00
1c3800
076000
01c000
018000
030000
063000
0c1800
180e00
7fff00
3f0300
180200
000000
000000
ENDCHAR
STARTCHAR 2563
ENCODING 9571
SWIDTH 666 0
DWIDTH 18 0
BBX 18 19 0 -1
BITMAP
000000
000600
3fff00
1fff00
000e00
0c0c00
061800
031800
01b000
00e000
00e000
01b000
031c00
060e00
0c0700
300300
400200
000000
000000
ENDCHAR
STARTCHAR 2564
ENCODING 9572
SWIDTH 666 0
DWIDTH 18 0
BBX 18 19 0 -1
BITMAP
000000
001000
7ff800
3ffc00
0c1800
0c1800
183000
3ffe00
1fff00
000600
000600
000600
000c00
000c00
001800
003000
002000
000000
000000
ENDCHAR
STARTCHAR 2565
ENCODING 9573
SWIDTH 666 0
DWIDTH 18 0
BBX 18 19 0 -1
BITMAP
000000
180000
1c0000
180000
180000
300600
3fff00
3fff00
100600
000600
000c00
000c00
001800
001800
003000
006000
004000
000000
000000
ENDCHAR
STARTCHAR 2566
ENCODING 9574
SWIDTH 666 0
DWIDTH 18 0
BBX 18 19 0 -1
BITMAP
000000
018000
01c000
018000
018200
7fff00
3fff00
01a000
01b800
033000
033000
063000
063000
0c3000
183000
303f00
401f00
000000
000000
ENDCHAR
STARTCHAR 2567
ENCODING 9575
SWIDTH 666 0
DWIDTH 18 0
BBX 18 19 0 -1
BITMAP
000000
000000
006000
007000
00e000
00c000
00c000
018000
018000
030000
030000
060000
0c0000
180000
7fff00
3fff00
180000
000000
000000
ENDCHAR
STARTCHAR 2568
ENCODING 9576
SWIDTH 666 0
DWIDTH 18 0
BBX 18 19 0 -1
BITMAP
000000
006000
067000
076000
066000
066000
066000
066000
066000
066000
066000
0c6000
0c6000
186000
186200
307f00
403e00
000000
000000
ENDCHAR
STARTCHAR 2569
ENCODING 9577
SWIDTH 666 0
DWIDTH 18 0
BBX 18 19 0 -1
BITMAP
000000
000000
000000
000000
000000
000000
000000
000200
7fff00
3fff00
000000
000000
000000
000000
000000
000000
000000
000000
000000
ENDCHAR
STARTCHAR 256a
ENCODING 9578
SWIDTH 666 0
DWIDTH 18 0
BBX 18 19 0 -1
BITMAP
000000
000200
100300
0c0700
060600
030c00
019800
00f000
006000
00f000
019800
030c00
060c00
0c0600
180700
300300
400200
000000
000000
ENDCHAR
STARTCHAR 256b
ENCODING 9579
SWIDTH 666 0
DWIDTH 18 0
BBX 18 19 0 -1
BITMAP
000000
000000
300600
380700
300600
300600
300600
300600
300600
300600
300600
300600
300600
300600
7ffe00
3ffe00
100400
000000
000000
ENDCHAR
STARTCHAR 256c
ENCODING 9580
SWIDTH 666 0
DWIDTH 18 0
BBX 18 19 0 -1
BITMAP
000000
000000
000000
000000
000000
000000
000000
000000
018000
03c000
018000
000000
000000
000000
000000
000000
000000
000000
000000
ENDCHAR
STARTCHAR 256d
ENCODING 9581
SWIDTH 666 0
DWIDTH 18 0
BBX 18 19 0 -1
BITMAP
000000
000000
000000
000000
000000
000000
000000
000000
000000
000000
000000
000000
000000
000000
000000
000000
000000
000000
000000
ENDCHAR
STARTCHAR 256e
ENCODING 9582
SWIDTH 666 0
DWIDTH 18 0
BBX 18 19 0 -1
BITMAP
000000
000000
000000
000000
001000
002000
004000
008000
018000
030000
060000
0c0000
180000
100000
000000
000000
000000
000000
000000
ENDCHAR
STARTCHAR 256f
ENCODING 9583
SWIDTH 666 0
DWIDTH 18 0
BBX 18 19 0 -1
BITMAP
000000
000000
000000
000000
000000
000400
000800
001000
002000
006000
30c000
198000
0f0000
060000
000000
000000
000000
000000
000000
ENDCHAR
STARTCHAR 2570
ENCODING 9584
SWIDTH 666 0
DWIDTH 18 0
BBX 18 19 0 -1
BITMAP
000000
000000
000000
000000
000000
0c0000
0e0000
030000
018000
00c000
002000
001000
000000
000000
000000
000000
000000
000000
000000
ENDCHAR
STARTCHAR 2621
ENCODING 9761
SWIDTH 666 0
DWIDTH 18 0
BBX 18 19 0 -1
BITMAP
000000
0ff800
100400
204200
40c100
414100
424100
404100
404100
404100
404100
404100
404100
404100
23fa00
100400
0ff800
000000
000000
ENDCHAR
STARTCHAR 2622
ENCODING 9762
SWIDTH 666 0
DWIDTH 18 0
BBX 18 19 0 -1
BITMAP
000000
0ff800
100400
23c200
442100
442100
402100
402100
40c100
410100
420100
440100
440100
440100
27f200
100400
0ff800
000000
000000
ENDCHAR
STARTCHAR 2623
ENCODING 9763
SWIDTH 666 0
DWIDTH 18 0
BBX 18 19 0 -1
BITMAP
000000
0ff800
100400
23e200
441100
441100
401100
401100
41e100
401100
401100
401100
441100
441100
23e200
100400
0ff800
000000
000000
ENDCHAR
STARTCHAR 2624
ENCODING 9764
SWIDTH 666 0
DWIDTH 18 0
BBX 18 19 0 -1
BITMAP
000000
0ff800
100400
204200
40c100
414100
424100
444100
484100
484100
484100
4ff900
404100
404100
21f200
100400
0ff800
000000
000000
ENDCHAR
STARTCHAR 2625
ENCODING 9765
SWIDTH 666 0
DWIDTH 18 0
BBX 18 19 0 -1
BITMAP
000000
0ff800
100400
27f200
440100
440100
440100
440100
47e100
401100
401100
401100
401100
441100
23e200
100400
0ff800
000000
000000
ENDCHAR
STARTCHAR 2626
ENCODING 9766
SWIDTH 666 0
DWIDTH 18 0
BBX 18 19 0 -1
BITMAP
000000
0ff800
100400
23e200
441100
440100
440100
440100
47e100
441100
441100
441100
441100
441100
23e200
100400
0ff800
000000
000000
ENDCHAR
STARTCHAR 2627
ENCODING 9767
SWIDTH 666 0
DWIDTH 18 0
BBX 18 19 0 -1
BITMAP
000000
0ff800
100400
27f200
441100
441100
402100
402100
404100
404100
404100
404100
404100
404100
204200
100400
0ff800
000000
000000
ENDCHAR
STARTCHAR 2628
ENCODING 9768
SWIDTH 666 0
DWIDTH 18 0
BBX 18 19 0 -1
BITMAP
000000
0ff800
100400
23e200
441100
441100
441100
441100
43e100
441100
441100
441100
441100
441100
23e200
100400
0ff800
000000
000000
ENDCHAR
STARTCHAR 2629
ENCODING 9769
SWIDTH 666 0
DWIDTH 18 0
BBX 18 19 0 -1
BITMAP
000000
0ff800
100400
23e200
441100
441100
441100
441100
43f100
401100
401100
401100
401100
441100
23e200
100400
0ff800
000000
000000
ENDCHAR
STARTCHAR 262a
ENCODING 9770
SWIDTH 666 0
DWIDTH 18 0
BBX 18 19 0 -1
BITMAP
000000
0ff800
100400
223200
464900
424900
424900
424900
424900
424900
424900
424900
424900
424900
273200
100400
0ff800
000000
000000
ENDCHAR
STARTCHAR 262b
ENCODING 9771
SWIDTH 666 0
DWIDTH 18 0
BBX 18 19 0 -1
BITMAP
000000
080800
100400
208200
418100
428100
448100
408100
408100
408100
408100
408100
408100
408100
27f200
100400
080800
000000
000000
ENDCHAR
STARTCHAR 262c
ENCODING 9772
SWIDTH 666 0
DWIDTH 18 0
BBX 18 19 0 -1
BITMAP
000000
080800
100400
23c200
442100
442100
402100
402100
40c100
410100
420100
440100
440100
440100
27f200
100400
080800
000000
000000
ENDCHAR
STARTCHAR 262d
ENCODING 9773
SWIDTH 666 0
DWIDTH 18 0
BBX 18 19 0 -1
BITMAP
000000
080800
100400
23e200
441100
441100
401100
401100
41e100
401100
401100
401100
441100
441100
23e200
100400
080800
000000
000000
ENDCHAR
STARTCHAR 262e
ENCODING 9774
SWIDTH 666 0
DWIDTH 18 0
BBX 18 19 0 -1
BITMAP
000000
080800
100400
202200
406100
40a100
412100
422100
442100
482100
482100
4ffd00
402100
402100
20fa00
100400
080800
000000
000000
ENDCHAR
STARTCHAR 262f
ENCODING 9775
SWIDTH 666 0
DWIDTH 18 0
BBX 18 19 0 -1
BITMAP
000000
080800
100400
27f200
440100
440100
440100
440100
47e100
401100
401100
401100
401100
441100
23e200
100400
080800
000000
000000
ENDCHAR
STARTCHAR 2630
ENCODING 9776
SWIDTH 666 0
DWIDTH 18 0
BBX 18 19 0 -1
BITMAP
000000
080800
100400
23e200
441100
440100
440100
440100
47e100
441100
441100
441100
441100
441100
23e200
100400
080800
000000
000000
ENDCHAR
STARTCHAR 2631
ENCODING 9777
SWIDTH 666 0
DWIDTH 18 0
BBX 18 19 0 -1
BITMAP
000000
080800
100400
27f200
441100
441100
402100
402100
404100
404100
404100
404100
404100
404100
204200
100400
080800
000000
000000
ENDCHAR
STARTCHAR 2632
ENCODING 9778
SWIDTH 666 0
DWIDTH 18 0
BBX 18 19 0 -1
BITMAP
000000
080800
100400
23e200
441100
441100
441100
441100
43e100
441100
441100
441100
441100
441100
23e200
100400
080800
000000
000000
ENDCHAR
STARTCHAR 2633
ENCODING 9779
SWIDTH 666 0
DWIDTH 18 0
BBX 18 19 0 -1
BITMAP
000000
080800
100400
23e200
441100
441100
441100
441100
43f100
401100
401100
401100
401100
441100
23e200
100400
080800
000000
000000
ENDCHAR
STARTCHAR 2634
ENCODING 9780
SWIDTH 666 0
DWIDTH 18 0
BBX 18 19 0 -1
BITMAP
000000
080800
100400
223200
464900
4a4900
424900
424900
424900
424900
424900
424900
424900
424900
2fb200
100400
080800
000000
000000
ENDCHAR
STARTCHAR 2635
ENCODING 9781
SWIDTH 666 0
DWIDTH 18 0
BBX 18 19 0 -1
BITMAP
000000
000000
008000
01c000
008000
000000
018000
008000
008000
008000
008000
008000
008000
008000
008000
01c000
000000
000000
000000
ENDCHAR
STARTCHAR 2636
ENCODING 9782
SWIDTH 666 0
DWIDTH 18 0
BBX 18 19 0 -1
BITMAP
000000
000000
022000
077000
022000
000000
066000
022000
022000
022000
022000
022000
022000
022000
022000
077000
000000
000000
000000
ENDCHAR
STARTCHAR 2637
ENCODING 9783
SWIDTH 666 0
DWIDTH 18 0
BBX 18 19 0 -1
BITMAP
000000
000000
088800
1ddc00
088800
000000
199800
088800
088800
088800
088800
088800
088800
088800
088800
1ddc00
000000
000000
000000
ENDCHAR
STARTCHAR 2638
ENCODING 9784
SWIDTH 666 0
DWIDTH 18 0
BBX 18 19 0 -1
BITMAP
000000
000000
080000
1c0000
080000
000000
1b8e00
090400
088800
088800
088800
085000
085000
085000
082000
1c2000
000000
000000
000000
ENDCHAR
STARTCHAR 2639
ENCODING 9785
SWIDTH 666 0
DWIDTH 18 0
BBX 18 19 0 -1
BITMAP
000000
000000
000000
000000
000000
000000
0e3800
041000
022000
022000
022000
014000
014000
014000
008000
008000
000000
000000
000000
ENDCHAR
STARTCHAR 263a
ENCODING 9786
SWIDTH 666 0
DWIDTH 18 0
BBX 18 19 0 -1
BITMAP
000000
000000
000400
000e00
000400
000000
38ec00
104400
088400
088400
088400
050400
050400
050400
020400
020e00
000000
000000
000000
ENDCHAR
STARTCHAR 263b
ENCODING 9787
SWIDTH 666 0
DWIDTH 18 0
BBX 18 19 0 -1
BITMAP
000000
000000
002200
007700
002200
000000
776600
222200
222200
142200
142200
142200
142200
082200
082200
087700
000000
000000
000000
ENDCHAR
STARTCHAR 263c
ENCODING 9788
SWIDTH 666 0
DWIDTH 18 0
BBX 18 19 0 -1
BITMAP
000000
000000
009200
01ff00
009200
000000
77b600
229200
229200
149200
149200
149200
149200
089200
089200
09d700
000000
000000
000000
ENDCHAR
STARTCHAR 263d
ENCODING 9789
SWIDTH 666 0
DWIDTH 18 0
BBX 18 19 0 -1
BITMAP
000000
000000
100000
380000
100000
000000
33cf00
108400
104800
104800
103000
103000
104800
104800
108400
3bcf00
000000
000000
000000
ENDCHAR
STARTCHAR 263e
ENCODING 9790
SWIDTH 666 0
DWIDTH 18 0
BBX 18 19 0 -1
BITMAP
000000
000000
000000
000000
000000
000000
1e3c00
041000
022000
014000
008000
008000
014000
022000
041000
1e3c00
000000
000000
000000
ENDCHAR
STARTCHAR 2721
ENCODING 10017
SWIDTH 666 0
DWIDTH 18 0
BBX 18 19 0 -1
BITMAP
000000
000000
000000
000000
000000
000000
000000
000000
7fff00
000000
000000
000000
000000
000000
000000
000000
000000
000000
000000
ENDCHAR
STARTCHAR 2722
ENCODING 10018
SWIDTH 666 0
DWIDTH 18 0
BBX 18 19 0 -1
BITMAP
000000
010000
010000
010000
010000
010000
010000
010000
010000
010000
010000
010000
010000
010000
010000
010000
010000
000000
000000
ENDCHAR
STARTCHAR 2723
ENCODING 10019
SWIDTH 666 0
DWIDTH 18 0
BBX 18 19 0 -1
BITMAP
000000
000000
000000
000000
000000
020000
010000
008000
004000
004000
000000
000000
000000
000000
000000
000000
000000
000000
000000
ENDCHAR
STARTCHAR 2724
ENCODING 10020
SWIDTH 666 0
DWIDTH 18 0
BBX 18 19 0 -1
BITMAP
000000
000000
001000
001000
001000
002000
002000
002000
004000
004000
008000
008000
010000
010000
020000
040000
000000
000000
000000
ENDCHAR
STARTCHAR 2725
ENCODING 10021
SWIDTH 666 0
DWIDTH 18 0
BBX 18 19 0 -1
BITMAP
000000
000000
3ff800
001000
002000
004000
008000
010000
020000
040000
080000
100000
200000
400000
400200
400200
3ffc00
000000
000000
ENDCHAR
STARTCHAR 2726
ENCODING 10022
SWIDTH 666 0
DWIDTH 18 0
BBX 18 19 0 -1
BITMAP
000000
010000
010000
010000
010000
010000
010000
010000
010000
010000
010000
010000
010000
010000
090000
050000
020000
000000
000000
ENDCHAR
STARTCHAR 2727
ENCODING 10023
SWIDTH 666 0
DWIDTH 18 0
BBX 18 19 0 -1
BITMAP
000000
000000
000000
3ffc00
000000
000000
000000
000000
000000
000000
000000
000000
000000
7fff00
000000
000000
000000
000000
000000
ENDCHAR
STARTCHAR 2728
ENCODING 10024
SWIDTH 666 0
DWIDTH 18 0
BBX 18 19 0 -1
BITMAP
000000
000000
000000
000000
000000
000000
010000
010000
010000
010000
010000
7fff00
000000
000000
000000
000000
000000
000000
000000
ENDCHAR
STARTCHAR 2729
ENCODING 10025
SWIDTH 666 0
DWIDTH 18 0
BBX 18 19 0 -1
BITMAP
000000
010000
010000
010000
010000
010000
010000
010000
028000
028000
024000
044000
042000
081000
100800
200400
400300
000000
000000
ENDCHAR
STARTCHAR 272a
ENCODING 10026
SWIDTH 666 0
DWIDTH 18 0
BBX 18 19 0 -1
BITMAP
000000
000000
084000
084000
084000
084000
084000
084000
084000
084000
084000
084000
104000
104000
204100
204100
403e00
000000
000000
ENDCHAR
STARTCHAR 272b
ENCODING 10027
SWIDTH 666 0
DWIDTH 18 0
BBX 18 19 0 -1
BITMAP
000000
038000
008000
008000
008000
008000
008000
018000
018000
014000
024000
022000
041000
080800
100400
200200
400100
000000
000000
ENDCHAR
STARTCHAR 272c
ENCODING 10028
SWIDTH 666 0
DWIDTH 18 0
BBX 18 19 0 -1
BITMAP
000000
000000
00c000
044000
044000
044000
042000
082000
082000
082000
081000
101000
101000
200800
200800
400400
400300
000000
000000
ENDCHAR
STARTCHAR 272d
ENCODING 10029
SWIDTH 666 0
DWIDTH 18 0
BBX 18 19 0 -1
BITMAP
000000
400400
7ffc00
400400
400400
400400
400400
400400
400400
400400
400400
400400
400400
400400
400400
401400
400800
000000
000000
ENDCHAR
STARTCHAR 272e
ENCODING 10030
SWIDTH 666 0
DWIDTH 18 0
BBX 18 19 0 -1
BITMAP
000000
000000
000000
000000
000000
000000
400100
7fff00
400100
400100
400200
000000
000000
000000
000000
000000
000000
000000
000000
ENDCHAR
STARTCHAR 272f
ENCODING 10031
SWIDTH 666 0
DWIDTH 18 0
BBX 18 19 0 -1
BITMAP
000000
000000
000000
040000
020000
010000
008000
004000
000800
001000
002000
004000
008000
010000
020000
040000
000000
000000
000000
ENDCHAR
STARTCHAR 2730
ENCODING 10032
SWIDTH 666 0
DWIDTH 18 0
BBX 18 19 0 -1
BITMAP
000000
000000
0fe000
082000
082000
082000
082000
082000
082000
082000
082000
102000
102000
102000
202100
202100
401e00
000000
000000
ENDCHAR
STARTCHAR 2731
ENCODING 10033
SWIDTH 666 0
DWIDTH 18 0
BBX 18 19 0 -1
BITMAP
000000
400200
400200
400200
400200
400200
400200
400200
400200
400200
400200
400200
400200
400200
400200
7ffe00
400200
000000
000000
ENDCHAR
STARTCHAR 2732
ENCODING 10034
SWIDTH 666 0
DWIDTH 18 0
BBX 18 19 0 -1
BITMAP
000000
000000
7ffe00
010200
010200
010200
010200
010200
010200
010200
020200
020200
040200
080400
100400
208800
407000
000000
000000
ENDCHAR
STARTCHAR 2733
ENCODING 10035
SWIDTH 666 0
DWIDTH 18 0
BBX 18 19 0 -1
BITMAP
000000
010000
010000
010000
010000
7ffe00
010200
010200
010200
020200
020200
040200
040400
080400
100400
204800
403000
000000
000000
ENDCHAR
STARTCHAR 2734
ENCODING 10036
SWIDTH 666 0
DWIDTH 18 0
BBX 18 19 0 -1
BITMAP
000000
040000
040000
080000
1ffe00
200200
400200
000200
000200
000200
000200
000200
000400
000400
000400
008800
007000
000000
000000
ENDCHAR
STARTCHAR 2735
ENCODING 10037
SWIDTH 666 0
DWIDTH 18 0
BBX 18 19 0 -1
BITMAP
000000
200000
200000
200800
201000
202000
204000
218000
260000
380000
600000
200000
200000
200000
200200
200200
1ffc00
000000
000000
ENDCHAR
STARTCHAR 2736
ENCODING 10038
SWIDTH 666 0
DWIDTH 18 0
BBX 18 19 0 -1
BITMAP
000000
000000
7fff00
400000
400000
400000
400000
400000
400000
400000
400000
400000
400000
400000
400000
7fff00
000000
000000
000000
ENDCHAR
STARTCHAR 2737
ENCODING 10039
SWIDTH 666 0
DWIDTH 18 0
BBX 18 19 0 -1
BITMAP
000000
000000
7fff00
400000
400000
400000
400000
400000
400000
400000
400000
400000
400000
400000
400000
3fff00
000000
000000
000000
ENDCHAR
STARTCHAR 2738
ENCODING 10040
SWIDTH 666 0
DWIDTH 18 0
BBX 18 19 0 -1
BITMAP
000000
008000
008000
008000
008000
008000
008000
008000
7fff00
008000
008000
008000
008000
008000
008000
008000
008000
000000
000000
ENDCHAR
STARTCHAR 2739
ENCODING 10041
SWIDTH 666 0
DWIDTH 18 0
BBX 18 19 0 -1
BITMAP
000000
040000
040000
040000
040000
040000
050000
048000
044000
042000
042000
040000
040000
040000
040000
040000
040000
000000
000000
ENDCHAR
STARTCHAR 273a
ENCODING 10042
SWIDTH 666 0
DWIDTH 18 0
BBX 18 19 0 -1
BITMAP
000000
000000
1ff000
081000
081000
081000
081000
081000
081000
081000
089000
086000
080000
080000
080000
080000
080000
000000
000000
ENDCHAR
STARTCHAR 273b
ENCODING 10043
SWIDTH 666 0
DWIDTH 18 0
BBX 18 19 0 -1
BITMAP
000000
000000
3fff00
200000
200000
200000
200000
200000
200000
200000
200000
200000
200000
200000
400000
400000
000000
000000
000000
ENDCHAR
STARTCHAR 273c
ENCODING 10044
SWIDTH 666 0
DWIDTH 18 0
BBX 18 19 0 -1
BITMAP
000000
010000
010000
010000
010000
010000
020000
020000
020000
040000
041000
040800
080400
107e00
278100
780100
000000
000000
000000
ENDCHAR
STARTCHAR 273d
ENCODING 10045
SWIDTH 666 0
DWIDTH 18 0
BBX 18 19 0 -1
BITMAP
000000
000000
7ffc00
000400
200800
100800
081000
042000
024000
014000
008000
014000
022000
041000
080800
300600
400100
000000
000000
ENDCHAR
STARTCHAR 273e
ENCODING 10046
SWIDTH 666 0
DWIDTH 18 0
BBX 18 19 0 -1
BITMAP
000000
000000
000000
1ffc00
100400
100400
100400
100400
100400
100400
100400
100400
100400
1ffc00
100400
000000
000000
000000
000000
ENDCHAR
STARTCHAR 273f
ENCODING 10047
SWIDTH 666 0
DWIDTH 18 0
BBX 18 19 0 -1
BITMAP
000000
000000
7ffe00
400200
400200
400200
400200
400200
400200
400200
400200
400200
400200
400200
400200
7ffe00
400200
000000
000000
ENDCHAR
STARTCHAR 2740
ENCODING 10048
SWIDTH 666 0
DWIDTH 18 0
BBX 18 19 0 -1
BITMAP
000000
008000
008000
008000
008000
008000
3ffe00
008000
008000
008000
008000
008000
008000
008000
008000
7fff00
000000
000000
000000
ENDCHAR
STARTCHAR 2741
ENCODING 10049
SWIDTH 666 0
DWIDTH 18 0
BBX 18 19 0 -1
BITMAP
000000
008000
008000
008000
008000
008000
7fff00
008000
008000
008000
008000
008000
008000
008000
1ffc00
000000
000000
000000
000000
ENDCHAR
STARTCHAR 2742
ENCODING 10050
SWIDTH 666 0
DWIDTH 18 0
BBX 18 19 0 -1
BITMAP
000000
040000
040000
040000
0ffe00
080200
080400
140400
220800
011000
00a000
004000
00a000
011000
040800
100600
400100
000000
000000
ENDCHAR
STARTCHAR 2743
ENCODING 10051
SWIDTH 666 0
DWIDTH 18 0
BBX 18 19 0 -1
BITMAP
000000
020000
020000
03fe00
040200
080400
100400
240800
421000
012000
004000
008000
010000
020000
040000
080000
100000
000000
000000
ENDCHAR
STARTCHAR 2744
ENCODING 10052
SWIDTH 666 0
DWIDTH 18 0
BBX 18 19 0 -1
BITMAP
000000
008000
008000
008000
008000
7fff00
008000
008000
014000
014000
022000
022000
041000
080800
100400
200200
400100
000000
000000
ENDCHAR
STARTCHAR 2745
ENCODING 10053
SWIDTH 666 0
DWIDTH 18 0
BBX 18 19 0 -1
BITMAP
000000
020000
020000
020000
020800
7fff00
041000
041000
082000
102000
304000
0c8000
030000
048000
086000
301000
400800
000000
000000
ENDCHAR
STARTCHAR 2746
ENCODING 10054
SWIDTH 666 0
DWIDTH 18 0
BBX 18 19 0 -1
BITMAP
000000
000000
1ffc00
001000
002000
014000
008000
004000
004000
7fff00
004000
004000
004000
004000
004000
024000
018000
000000
000000
ENDCHAR
STARTCHAR 2747
ENCODING 10055
SWIDTH 666 0
DWIDTH 18 0
BBX 18 19 0 -1
BITMAP
000000
000000
000000
000000
008000
008000
008000
408100
7fff00
400100
400100
400200
000000
000000
000000
000000
000000
000000
000000
ENDCHAR
STARTCHAR 2748
ENCODING 10056
SWIDTH 666 0
DWIDTH 18 0
BBX 18 19 0 -1
BITMAP
000000
001000
001000
001000
001000
7fff00
001000
001000
101000
081000
041000
021000
001000
001000
011000
009000
006000
000000
000000
ENDCHAR
STARTCHAR 2749
ENCODING 10057
SWIDTH 666 0
DWIDTH 18 0
BBX 18 19 0 -1
BITMAP
000000
008000
008000
008000
008000
008000
089000
108800
208400
408200
008100
008000
008000
008000
008000
048000
030000
000000
000000
ENDCHAR
STARTCHAR 274a
ENCODING 10058
SWIDTH 666 0
DWIDTH 18 0
BBX 18 19 0 -1
BITMAP
000000
008000
008000
008000
008000
7fff00
008000
008000
014000
014000
014000
024000
024000
044000
084100
104100
603f00
000000
000000
ENDCHAR
STARTCHAR 274b
ENCODING 10059
SWIDTH 666 0
DWIDTH 18 0
BBX 18 19 0 -1
BITMAP
000000
000000
1ffe00
100200
100200
100200
100200
1ffe00
100000
100000
100000
100000
100000
100000
100000
200000
000000
000000
000000
ENDCHAR
STARTCHAR 274c
ENCODING 10060
SWIDTH 666 0
DWIDTH 18 0
BBX 18 19 0 -1
BITMAP
000000
010000
410200
410200
410200
410200
410200
410200
410200
7ffe00
010000
010000
010000
010000
010000
010000
010000
000000
000000
ENDCHAR
STARTCHAR 274d
ENCODING 10061
SWIDTH 666 0
DWIDTH 18 0
BBX 18 19 0 -1
BITMAP
000000
008000
008000
008000
008000
408200
408200
408200
408200
408200
408200
408200
408200
408200
7ffe00
400200
000000
000000
000000
ENDCHAR
STARTCHAR 274e
ENCODING 10062
SWIDTH 666 0
DWIDTH 18 0
BBX 18 19 0 -1
BITMAP
000000
080200
084200
084200
108400
108400
210800
421000
442000
421000
210800
108400
108400
084200
084200
084200
080200
000000
000000
ENDCHAR
STARTCHAR 274f
ENCODING 10063
SWIDTH 666 0
DWIDTH 18 0
BBX 18 19 0 -1
BITMAP
000000
000000
000000
7ffe00
010000
010000
010000
010000
010000
010000
010000
010000
010000
010000
010000
7fff00
000000
000000
000000
ENDCHAR
STARTCHAR 2750
ENCODING 10064
SWIDTH 666 0
DWIDTH 18 0
BBX 18 19 0 -1
BITMAP
000000
000000
3ffc00
000400
000400
000400
000400
000400
3ffc00
200000
200000
200000
200000
200200
200200
200200
1ffc00
000000
000000
ENDCHAR
STARTCHAR 2751
ENCODING 10065
SWIDTH 666 0
DWIDTH 18 0
BBX 18 19 0 -1
BITMAP
000000
010000
010000
010000
010000
7ffe00
410200
410200
410200
410200
410200
410200
411200
410c00
010000
010000
010000
000000
000000
ENDCHAR
STARTCHAR 2752
ENCODING 10066
SWIDTH 666 0
DWIDTH 18 0
BBX 18 19 0 -1
BITMAP
000000
000000
1ffc00
008000
008000
008000
008000
008000
008000
7fff00
008000
008000
008000
008000
008000
008000
008000
000000
000000
ENDCHAR
STARTCHAR 2753
ENCODING 10067
SWIDTH 666 0
DWIDTH 18 0
BBX 18 19 0 -1
BITMAP
000000
010000
010000
020000
040000
081000
302000
104000
088000
050000
020000
040000
081000
100800
23fc00
7c0200
200200
000000
000000
ENDCHAR
STARTCHAR 2754
ENCODING 10068
SWIDTH 666 0
DWIDTH 18 0
BBX 18 19 0 -1
BITMAP
000000
004000
004000
004000
1fff00
100000
100000
100000
100000
100000
100000
100000
200000
200000
200000
400000
400000
000000
000000
ENDCHAR
STARTCHAR 2755
ENCODING 10069
SWIDTH 666 0
DWIDTH 18 0
BBX 18 19 0 -1
BITMAP
000000
000000
7e0000
040000
080000
100000
3e0000
020000
020000
040000
040000
080000
080000
500000
200000
300000
4fff00
000000
000000
ENDCHAR
STARTCHAR 2756
ENCODING 10070
SWIDTH 666 0
DWIDTH 18 0
BBX 18 19 0 -1
BITMAP
000000
041000
041000
041000
041000
041000
041000
041000
7fff00
041000
041000
041000
041000
081000
081000
101000
201000
000000
000000
ENDCHAR
STARTCHAR 2757
ENCODING 10071
SWIDTH 666 0
DWIDTH 18 0
BBX 18 19 0 -1
BITMAP
000000
044000
042000
041000
040000
7fff00
020000
020000
020000
010000
010000
010000
008000
008000
004400
002400
001c00
000000
000000
ENDCHAR
STARTCHAR 2758
ENCODING 10072
SWIDTH 666 0
DWIDTH 18 0
BBX 18 19 0 -1
BITMAP
000000
000000
3ffc00
000400
000400
000400
3ffc00
200000
200000
3ffe00
000200
000200
000200
000400
000400
008800
007000
000000
000000
ENDCHAR
STARTCHAR 2759
ENCODING 10073
SWIDTH 666 0
DWIDTH 18 0
BBX 18 19 0 -1
BITMAP
000000
000000
000000
000000
7ff800
000800
000800
000800
3ff800
000800
000800
000800
7fff00
000000
000000
000000
000000
000000
000000
ENDCHAR
STARTCHAR 275a
ENCODING 10074
SWIDTH 666 0
DWIDTH 18 0
BBX 18 19 0 -1
BITMAP
000000
000000
001000
002000
004000
008000
010400
020800
081000
204000
008200
020400
080800
201000
004000
010000
040000
000000
000000
ENDCHAR
STARTCHAR 275b
ENCODING 10075
SWIDTH 666 0
DWIDTH 18 0
BBX 18 19 0 -1
BITMAP
000000
008000
010400
020800
041000
082000
204000
008000
018000
028000
048000
088000
208000
008000
008000
008000
008000
000000
000000
ENDCHAR
STARTCHAR 275c
ENCODING 10076
SWIDTH 666 0
DWIDTH 18 0
BBX 18 19 0 -1
BITMAP
000000
020000
010000
008000
004000
020000
120000
120000
120800
120400
120200
220100
220900
420800
420800
020800
01f800
000000
000000
ENDCHAR
STARTCHAR 275d
ENCODING 10077
SWIDTH 666 0
DWIDTH 18 0
BBX 18 19 0 -1
BITMAP
000000
042000
041000
040800
040000
7fff00
020000
020400
020800
011000
012000
014000
008000
034000
0c4200
302200
401e00
000000
000000
ENDCHAR
STARTCHAR 275e
ENCODING 10078
SWIDTH 666 0
DWIDTH 18 0
BBX 18 19 0 -1
BITMAP
000000
000e00
003000
01c000
060000
7ffe00
100200
100200
100200
1ffe00
100000
100000
100000
100000
200000
200000
400000
000000
000000
ENDCHAR
STARTCHAR 275f
ENCODING 10079
SWIDTH 666 0
DWIDTH 18 0
BBX 18 19 0 -1
BITMAP
000000
003c00
1fc000
008000
004000
004000
3ffe00
004000
004000
004000
7fff00
004000
004000
004000
004000
048000
030000
000000
000000
ENDCHAR
STARTCHAR 2760
ENCODING 10080
SWIDTH 666 0
DWIDTH 18 0
BBX 18 19 0 -1
BITMAP
000000
008000
008000
7fff00
008000
008000
008000
3ffc00
080800
041000
022000
014000
008000
014000
042000
100c00
400300
000000
000000
ENDCHAR
STARTCHAR 2761
ENCODING 10081
SWIDTH 666 0
DWIDTH 18 0
BBX 18 19 0 -1
BITMAP
000000
010000
010000
010000
01fe00
010000
010000
3ffc00
080800
041000
022000
014000
008000
014000
041000
100c00
400300
000000
000000
ENDCHAR
STARTCHAR 2762
ENCODING 10082
SWIDTH 666 0
DWIDTH 18 0
BBX 18 19 0 -1
BITMAP
000000
008000
008000
008000
7fff00
100400
080800
080800
041000
022000
014000
008000
014000
022000
041000
180c00
600300
000000
000000
ENDCHAR
STARTCHAR 2763
ENCODING 10083
SWIDTH 666 0
DWIDTH 18 0
BBX 18 19 0 -1
BITMAP
000000
002000
002000
082000
042000
022000
012000
102000
082000
042000
022000
002000
7ffe00
002000
002000
002000
002000
000000
000000
ENDCHAR
STARTCHAR 2764
ENCODING 10084
SWIDTH 666 0
DWIDTH 18 0
BBX 18 19 0 -1
BITMAP
000000
000e00
1ff000
100000
100000
100000
100000
1fff00
102000
102000
102000
102000
102000
102000
202000
202000
402000
000000
000000
ENDCHAR
STARTCHAR 2765
ENCODING 10085
SWIDTH 666 0
DWIDTH 18 0
BBX 18 19 0 -1
BITMAP
000000
020000
010000
008000
7fff00
020000
020000
020000
03fc00
040400
040400
080400
080400
100400
100400
204400
403800
000000
000000
ENDCHAR
STARTCHAR 2766
ENCODING 10086
SWIDTH 666 0
DWIDTH 18 0
BBX 18 19 0 -1
BITMAP
000000
000000
3ffe00
020000
020000
020000
020000
7fff00
040000
050000
050000
090000
090000
110100
110100
210100
40ff00
000000
000000
ENDCHAR
STARTCHAR 2767
ENCODING 10087
SWIDTH 666 0
DWIDTH 18 0
BBX 18 19 0 -1
BITMAP
000000
000000
3ffc00
200400
200400
200400
200400
200400
200400
3ffc00
200400
200400
200400
200400
200400
200400
3ffc00
000000
000000
ENDCHAR
STARTCHAR 2768
ENCODING 10088
SWIDTH 666 0
DWIDTH 18 0
BBX 18 19 0 -1
BITMAP
000000
000000
7fff00
400100
400100
400100
400100
400100
7fff00
400100
400100
400100
400100
400100
400100
7fff00
000000
000000
000000
ENDCHAR
STARTCHAR 2769
ENCODING 10089
SWIDTH 666 0
DWIDTH 18 0
BBX 18 19 0 -1
BITMAP
000000
000000
1ff800
100800
100800
100800
1ff800
100800
100800
100800
1ff800
100800
100800
100800
200800
202800
401800
000000
000000
ENDCHAR
STARTCHAR 276a
ENCODING 10090
SWIDTH 666 0
DWIDTH 18 0
BBX 18 19 0 -1
BITMAP
000000
008000
008000
008000
008000
7fff00
008000
018000
01c000
02a000
02a000
049000
088800
108400
208300
408000
008000
000000
000000
ENDCHAR
STARTCHAR 276b
ENCODING 10091
SWIDTH 666 0
DWIDTH 18 0
BBX 18 19 0 -1
BITMAP
000000
080000
080000
0fff00
100200
208400
408800
008000
010000
010000
028000
028000
044000
082000
101000
200c00
400300
000000
000000
ENDCHAR
STARTCHAR 276c
ENCODING 10092
SWIDTH 666 0
DWIDTH 18 0
BBX 18 19 0 -1
BITMAP
000000
004000
004000
004000
004000
084000
084000
087e00
084000
084000
084000
084000
084000
084000
084000
7fff00
000000
000000
000000
ENDCHAR
STARTCHAR 276d
ENCODING 10093
SWIDTH 666 0
DWIDTH 18 0
BBX 18 19 0 -1
BITMAP
000000
000000
7fff00
020000
020000
040000
07fc00
080400
080800
120800
211000
00a000
004000
008000
010000
060000
380000
000000
000000
ENDCHAR
STARTCHAR 276e
ENCODING 10094
SWIDTH 666 0
DWIDTH 18 0
BBX 18 19 0 -1
BITMAP
000000
000000
07f000
041000
041000
081000
700f00
000000
0ff800
040800
041000
022000
014000
008000
014000
063000
380e00
000000
000000
ENDCHAR
STARTCHAR 276f
ENCODING 10095
SWIDTH 666 0
DWIDTH 18 0
BBX 18 19 0 -1
BITMAP
000000
1ffc00
108400
108400
108400
108400
108400
7fff00
210400
210400
210400
210400
210400
210400
3ffe00
020400
043800
000000
000000
ENDCHAR
STARTCHAR 2770
ENCODING 10096
SWIDTH 666 0
DWIDTH 18 0
BBX 18 19 0 -1
BITMAP
000000
404000
404000
404000
404000
404000
404300
404c00
7e7000
404000
404000
404000
404000
404000
424100
424100
3e3f00
000000
000000
ENDCHAR
STARTCHAR 2771
ENCODING 10097
SWIDTH 666 0
DWIDTH 18 0
BBX 18 19 0 -1
BITMAP
000000
000c00
007000
7f8000
020000
020000
020000
3ffc00
020000
020000
020000
7ffe00
020000
020000
020100
020100
01ff00
000000
000000
ENDCHAR
STARTCHAR 2772
ENCODING 10098
SWIDTH 666 0
DWIDTH 18 0
BBX 18 19 0 -1
BITMAP
000000
000e00
7ff000
210000
210000
210000
210000
208000
3fff00
208000
204000
204000
202000
201100
230900
2c0500
700300
000000
000000
ENDCHAR
STARTCHAR 2773
ENCODING 10099
SWIDTH 666 0
DWIDTH 18 0
BBX 18 19 0 -1
BITMAP
000000
100000
100000
1ffc00
200000
200000
5ff000
000000
000000
7ff800
000800
000800
000800
000900
000900
000500
000300
000000
000000
ENDCHAR
STARTCHAR 2774
ENCODING 10100
SWIDTH 666 0
DWIDTH 18 0
BBX 18 19 0 -1
BITMAP
000000
008000
008000
008000
008200
008400
7e8800
02d000
04a000
04a000
089000
088800
108400
208200
408100
028000
018000
000000
000000
ENDCHAR
STARTCHAR 2775
ENCODING 10101
SWIDTH 666 0
DWIDTH 18 0
BBX 18 19 0 -1
BITMAP
000000
010000
010000
010000
210200
210400
210800
211000
430000
020000
028000
044000
042000
081000
100800
200600
400100
000000
000000
ENDCHAR
STARTCHAR 2776
ENCODING 10102
SWIDTH 666 0
DWIDTH 18 0
BBX 18 19 0 -1
BITMAP
000000
001800
01e000
3e1000
111000
111000
111000
111000
111000
111000
111000
110800
210800
210400
210400
410200
410100
000000
000000
ENDCHAR
STARTCHAR 2777
ENCODING 10103
SWIDTH 666 0
DWIDTH 18 0
BBX 18 19 0 -1
BITMAP
000000
041000
041000
080800
080400
100a00
280900
441100
022000
014000
008000
014000
022000
041000
080800
300400
400300
000000
000000
ENDCHAR
STARTCHAR 2778
ENCODING 10104
SWIDTH 666 0
DWIDTH 18 0
BBX 18 19 0 -1
BITMAP
000000
181800
066000
018000
026000
0c1800
300400
000000
100c00
0c1000
022000
014000
008000
014000
062000
181800
600700
000000
000000
ENDCHAR
STARTCHAR 2779
ENCODING 10105
SWIDTH 666 0
DWIDTH 18 0
BBX 18 19 0 -1
BITMAP
000000
000800
080800
080800
080800
080800
0ff800
000800
000800
0ff800
080800
080800
080800
080800
100800
200800
400800
000000
000000
ENDCHAR
STARTCHAR 277a
ENCODING 10106
SWIDTH 666 0
DWIDTH 18 0
BBX 18 19 0 -1
BITMAP
000000
201000
201000
201000
201000
201000
3ff000
200000
200000
3ff000
201000
201000
201000
201000
201000
400800
400400
000000
000000
ENDCHAR
STARTCHAR 277b
ENCODING 10107
SWIDTH 666 0
DWIDTH 18 0
BBX 18 19 0 -1
BITMAP
000000
000000
3ffe00
081000
081000
081000
101000
101000
3fff00
009000
009000
011000
011000
021000
041000
185000
602000
000000
000000
ENDCHAR
STARTCHAR 277c
ENCODING 10108
SWIDTH 666 0
DWIDTH 18 0
BBX 18 19 0 -1
BITMAP
000000
008000
108000
108000
108000
1ffe00
108000
208000
408000
008000
008000
7fff00
008000
008000
008000
008000
008000
000000
000000
ENDCHAR
STARTCHAR 277d
ENCODING 10109
SWIDTH 666 0
DWIDTH 18 0
BBX 18 19 0 -1
BITMAP
000000
008400
008200
008100
008000
7fff00
008000
008000
014000
014000
022000
022000
041000
080800
100400
200200
400100
000000
000000
ENDCHAR
STARTCHAR 277e
ENCODING 10110
SWIDTH 666 0
DWIDTH 18 0
BBX 18 19 0 -1
BITMAP
000000
008000
008000
7fff00
000000
010000
020000
141000
082000
044000
028000
010000
021000
040800
080400
7ffe00
000100
000000
000000
ENDCHAR
STARTCHAR 2821
ENCODING 10273
SWIDTH 666 0
DWIDTH 18 0
BBX 18 19 0 -1
BITMAP
000000
000000
7ffe00
010000
010000
010000
010000
010000
3ffc00
010000
012000
011000
010800
010000
010000
7fff00
000000
000000
000000
ENDCHAR
STARTCHAR 2822
ENCODING 10274
SWIDTH 666 0
DWIDTH 18 0
BBX 18 19 0 -1
BITMAP
000000
001800
00e000
1f1000
111000
111000
111000
111000
111000
111000
111000
110800
110800
124400
242400
2ff200
400900
000000
000000
ENDCHAR
STARTCHAR 2823
ENCODING 10275
SWIDTH 666 0
DWIDTH 18 0
BBX 18 19 0 -1
BITMAP
000000
000000
7ffc00
100000
100000
100000
1ff000
101000
101000
121000
111000
109000
101000
101000
101100
139100
7c1f00
000000
000000
ENDCHAR
STARTCHAR 2824
ENCODING 10276
SWIDTH 666 0
DWIDTH 18 0
BBX 18 19 0 -1
BITMAP
000000
100800
100800
100800
7ffe00
100800
100800
100800
100800
100800
1ff800
100800
100800
100800
100800
100800
1ff800
000000
000000
ENDCHAR
STARTCHAR 2825
ENCODING 10277
SWIDTH 666 0
DWIDTH 18 0
BBX 18 19 0 -1
BITMAP
000000
008000
108000
108000
108000
1ffe00
108000
208000
408000
008000
1ffc00
008000
008000
008000
008000
008000
7fff00
000000
000000
ENDCHAR
STARTCHAR 2826
ENCODING 10278
SWIDTH 666 0
DWIDTH 18 0
BBX 18 19 0 -1
BITMAP
000000
000000
3ffe00
208200
208200
208200
208200
3ffe00
208200
208200
208200
3ffe00
208200
208200
208200
208a00
408600
000000
000000
ENDCHAR
STARTCHAR 2827
ENCODING 10279
SWIDTH 666 0
DWIDTH 18 0
BBX 18 19 0 -1
BITMAP
000000
000000
7fff00
408100
408100
408100
408100
408100
7fff00
408100
408100
408100
408100
408100
408100
7fff00
000000
000000
000000
ENDCHAR
STARTCHAR 2828
ENCODING 10280
SWIDTH 666 0
DWIDTH 18 0
BBX 18 19 0 -1
BITMAP
000000
000000
7fff00
008100
008200
008400
108800
108000
108000
10fc00
108000
188000
148000
128000
218000
208000
407f00
000000
000000
ENDCHAR
STARTCHAR 2829
ENCODING 10281
SWIDTH 666 0
DWIDTH 18 0
BBX 18 19 0 -1
BITMAP
000000
004000
004000
1fff00
100000
100000
500000
300000
100000
100000
300000
500000
100000
100000
200000
200000
400000
000000
000000
ENDCHAR
STARTCHAR 282a
ENCODING 10282
SWIDTH 666 0
DWIDTH 18 0
BBX 18 19 0 -1
BITMAP
000000
000000
000000
000000
7e4000
024200
024400
022800
442100
242200
081400
081000
100800
200400
400300
000000
000000
000000
000000
ENDCHAR
STARTCHAR 282b
ENCODING 10283
SWIDTH 666 0
DWIDTH 18 0
BBX 18 19 0 -1
BITMAP
000000
020000
040000
080000
3ffc00
200400
200400
200400
200400
200400
3ffc00
200400
200400
200400
200400
200400
3ffc00
000000
000000
ENDCHAR
STARTCHAR 282c
ENCODING 10284
SWIDTH 666 0
DWIDTH 18 0
BBX 18 19 0 -1
BITMAP
000000
008000
008000
3ffe00
208200
208400
208800
208000
3ffc00
240400
220800
211000
20a000
204000
20a000
211000
4e0e00
000000
000000
ENDCHAR
STARTCHAR 282d
ENCODING 10285
SWIDTH 666 0
DWIDTH 18 0
BBX 18 19 0 -1
BITMAP
000000
000000
000000
3ffc00
224400
224400
224400
224400
224400
224400
224400
224400
224400
224400
224400
7fff00
000000
000000
000000
ENDCHAR
STARTCHAR 282e
ENCODING 10286
SWIDTH 666 0
DWIDTH 18 0
BBX 18 19 0 -1
BITMAP
000000
000000
3ffc00
200400
200400
200400
200400
3ffc00
200400
200400
200400
3ffc00
200400
200400
200400
200400
3ffc00
000000
000000
ENDCHAR
STARTCHAR 282f
ENCODING 10287
SWIDTH 666 0
DWIDTH 18 0
BBX 18 19 0 -1
BITMAP
000000
000000
3ff800
001000
022000
014000
008000
7fff00
008200
018400
028800
048000
088000
108000
208000
428000
018000
000000
000000
ENDCHAR
STARTCHAR 2830
ENCODING 10288
SWIDTH 666 0
DWIDTH 18 0
BBX 18 19 0 -1
BITMAP
000000
040000
080000
100000
3ffe00
408000
008000
008000
008000
7fff00
008000
014000
022000
041000
080800
100400
200200
000000
000000
ENDCHAR
STARTCHAR 2831
ENCODING 10289
SWIDTH 666 0
DWIDTH 18 0
BBX 18 19 0 -1
BITMAP
000000
000000
7fff00
008000
010000
020000
040000
080000
100000
2ffe00
480200
080200
080200
080200
080200
080200
0ffe00
000000
000000
ENDCHAR
STARTCHAR 2832
ENCODING 10290
SWIDTH 666 0
DWIDTH 18 0
BBX 18 19 0 -1
BITMAP
000000
000000
1ff800
000000
000000
000000
000000
7fff00
008000
008000
008000
088800
108400
208200
408100
028000
018000
000000
000000
ENDCHAR
STARTCHAR 2833
ENCODING 10291
SWIDTH 666 0
DWIDTH 18 0
BBX 18 19 0 -1
BITMAP
000000
008000
008000
008000
7ffe00
410200
410200
410200
410200
422200
441200
487a00
5f8600
400200
400200
400a00
400600
000000
000000
ENDCHAR
STARTCHAR 2834
ENCODING 10292
SWIDTH 666 0
DWIDTH 18 0
BBX 18 19 0 -1
BITMAP
000000
000c00
007000
1f8000
008000
008000
008000
7fff00
008000
01c000
02a000
029000
048800
088400
108200
208100
008000
000000
000000
ENDCHAR
STARTCHAR 2835
ENCODING 10293
SWIDTH 666 0
DWIDTH 18 0
BBX 18 19 0 -1
BITMAP
000000
008000
008000
008000
7fff00
400100
400100
424200
024000
024000
042000
042000
081000
080800
100400
200200
400100
000000
000000
ENDCHAR
STARTCHAR 2836
ENCODING 10294
SWIDTH 666 0
DWIDTH 18 0
BBX 18 19 0 -1
BITMAP
000000
010000
010000
010000
7ffe00
001000
081000
081000
082000
082000
042000
044000
044000
044000
048000
008000
7fff00
000000
000000
ENDCHAR
STARTCHAR 2837
ENCODING 10295
SWIDTH 666 0
DWIDTH 18 0
BBX 18 19 0 -1
BITMAP
000000
040800
081000
102000
3f7f00
488800
090800
080800
080800
080800
080800
080800
080800
080800
080800
082800
081800
000000
000000
ENDCHAR
STARTCHAR 2838
ENCODING 10296
SWIDTH 666 0
DWIDTH 18 0
BBX 18 19 0 -1
BITMAP
000000
010000
410400
210800
111000
092000
010000
010000
7ffe00
010000
038000
054000
092000
111000
210800
410400
010200
000000
000000
ENDCHAR
STARTCHAR 2839
ENCODING 10297
SWIDTH 666 0
DWIDTH 18 0
BBX 18 19 0 -1
BITMAP
000000
010000
010000
020000
142000
082000
044000
028000
010800
060400
7ffe00
010100
092000
111000
210800
410400
010000
000000
000000
ENDCHAR
STARTCHAR 283a
ENCODING 10298
SWIDTH 666 0
DWIDTH 18 0
BBX 18 19 0 -1
BITMAP
000000
020000
040000
0ffe00
108000
208000
408000
008000
008000
7fff00
008000
008000
208200
208200
208200
208200
3ffe00
000000
000000
ENDCHAR
STARTCHAR 283b
ENCODING 10299
SWIDTH 666 0
DWIDTH 18 0
BBX 18 19 0 -1
BITMAP
000000
7fff00
400100
400100
400500
614500
512500
4a1900
441100
4c2900
524500
618300
400100
400100
400100
400500
000300
000000
000000
ENDCHAR
STARTCHAR 283c
ENCODING 10300
SWIDTH 666 0
DWIDTH 18 0
BBX 18 19 0 -1
BITMAP
000000
101000
082000
044000
7ffe00
010000
010000
010000
3ffc00
010000
010000
010000
7fff00
010000
010000
010000
010000
000000
000000
ENDCHAR
STARTCHAR 283d
ENCODING 10301
SWIDTH 666 0
DWIDTH 18 0
BBX 18 19 0 -1
BITMAP
000000
000000
7f7f00
010100
010100
212100
111100
090900
010100
090900
111100
212100
414100
414100
010100
090900
060600
000000
000000
ENDCHAR
STARTCHAR 283e
ENCODING 10302
SWIDTH 666 0
DWIDTH 18 0
BBX 18 19 0 -1
BITMAP
000000
010000
010400
010400
3fe800
011000
012000
014000
7fff00
010000
020000
043c00
0fc000
140000
240200
440200
03fe00
000000
000000
ENDCHAR
STARTCHAR 283f
ENCODING 10303
SWIDTH 666 0
DWIDTH 18 0
BBX 18 19 0 -1
BITMAP
000000
000000
7fff00
008000
010000
020000
7ffe00
444200
444200
444200
444200
444200
444200
444200
444200
444a00
400600
000000
000000
ENDCHAR
STARTCHAR 2840
ENCODING 10304
SWIDTH 666 0
DWIDTH 18 0
BBX 18 19 0 -1
BITMAP
000000
008000
00fe00
3f8000
008000
008000
1ffe00
008000
008000
7fff00
018000
02c000
02a000
049000
088800
108600
608100
000000
000000
ENDCHAR
STARTCHAR 2841
ENCODING 10305
SWIDTH 666 0
DWIDTH 18 0
BBX 18 19 0 -1
BITMAP
000000
000000
7fff00
100800
100800
100800
1ff800
100800
100800
1ff800
100800
100800
100800
7ffe00
000800
000800
000800
000000
000000
ENDCHAR
STARTCHAR 2842
ENCODING 10306
SWIDTH 666 0
DWIDTH 18 0
BBX 18 19 0 -1
BITMAP
000000
010000
3ffc00
010400
010400
7fff00
010400
010400
3ffc00
010000
010000
3ffc00
010000
010000
7fff00
010000
010000
000000
000000
ENDCHAR
STARTCHAR 2843
ENCODING 10307
SWIDTH 666 0
DWIDTH 18 0
BBX 18 19 0 -1
BITMAP
000000
010000
010000
7ffe00
410200
410200
410200
428200
444200
492200
511200
410200
428200
444200
583200
400200
400e00
000000
000000
ENDCHAR
STARTCHAR 2844
ENCODING 10308
SWIDTH 666 0
DWIDTH 18 0
BBX 18 19 0 -1
BITMAP
000000
000000
7fff00
408000
408000
408000
408000
7ffe00
400200
400200
400200
7ffe00
408000
408000
408000
408000
7fff00
000000
000000
ENDCHAR
STARTCHAR 2845
ENCODING 10309
SWIDTH 666 0
DWIDTH 18 0
BBX 18 19 0 -1
BITMAP
000000
010000
020000
040000
3ffc00
200400
200400
200400
3ffc00
200400
200400
200400
3ffc00
200400
200400
200400
3ffc00
000000
000000
ENDCHAR
STARTCHAR 2846
ENCODING 10310
SWIDTH 666 0
DWIDTH 18 0
BBX 18 19 0 -1
BITMAP
000000
000000
7fff00
010000
020000
042000
081000
100800
3ffc00
010200
010000
010000
3ffc00
010000
010000
010000
7ffe00
000000
000000
ENDCHAR
STARTCHAR 2847
ENCODING 10311
SWIDTH 666 0
DWIDTH 18 0
BBX 18 19 0 -1
BITMAP
000000
020000
040000
180000
607e00
400200
400200
400200
400200
400200
7e7e00
400200
400200
400200
400200
400200
7ffe00
000000
000000
ENDCHAR
STARTCHAR 2848
ENCODING 10312
SWIDTH 666 0
DWIDTH 18 0
BBX 18 19 0 -1
BITMAP
000000
000000
3ffe00
008000
008000
008000
008000
7fff00
008000
008000
008000
1ffc00
100400
100400
100400
1ffc00
100400
000000
000000
ENDCHAR
STARTCHAR 2849
ENCODING 10313
SWIDTH 666 0
DWIDTH 18 0
BBX 18 19 0 -1
BITMAP
000000
000400
100400
100400
1f7f00
210400
224400
324400
4a4400
044400
0c4400
084400
107f00
100400
200400
400400
000400
000000
000000
ENDCHAR
STARTCHAR 284a
ENCODING 10314
SWIDTH 666 0
DWIDTH 18 0
BBX 18 19 0 -1
BITMAP
000000
020000
040000
1ffc00
100400
110400
108400
108400
100400
7fff00
100400
110400
108400
108400
200400
202400
401800
000000
000000
ENDCHAR
STARTCHAR 284b
ENCODING 10315
SWIDTH 666 0
DWIDTH 18 0
BBX 18 19 0 -1
BITMAP
000000
000000
3ff800
200800
200800
3ff800
200800
200800
3ff800
200800
220200
210400
208800
205000
212000
261800
380700
000000
000000
ENDCHAR
STARTCHAR 284c
ENCODING 10316
SWIDTH 666 0
DWIDTH 18 0
BBX 18 19 0 -1
BITMAP
000000
100000
1ff000
202000
404000
008000
3ffe00
208200
208200
208200
208200
3ffe00
200000
200000
200100
100100
0fff00
000000
000000
ENDCHAR
STARTCHAR 284d
ENCODING 10317
SWIDTH 666 0
DWIDTH 18 0
BBX 18 19 0 -1
BITMAP
000000
080800
080800
080800
494900
494900
494900
494900
494900
494900
7f7f00
100800
100800
100800
200800
400800
000800
000000
000000
ENDCHAR
STARTCHAR 284e
ENCODING 10318
SWIDTH 666 0
DWIDTH 18 0
BBX 18 19 0 -1
BITMAP
000000
008000
00f800
008000
008000
3fff00
200100
210200
2ff800
210000
210000
20fc00
200000
200000
200000
400000
000000
000000
000000
ENDCHAR
STARTCHAR 284f
ENCODING 10319
SWIDTH 666 0
DWIDTH 18 0
BBX 18 19 0 -1
BITMAP
000000
010000
010000
010000
7ffc00
410400
410400
410400
410400
410400
7ffc00
010000
011000
010800
010400
7ffe00
000100
000000
000000
ENDCHAR
STARTCHAR 2850
ENCODING 10320
SWIDTH 666 0
DWIDTH 18 0
BBX 18 19 0 -1
BITMAP
000000
020000
040000
080000
3ffc00
224400
224400
224400
224400
224400
224400
224400
224400
224400
224400
7fff00
000000
000000
000000
ENDCHAR
STARTCHAR 2851
ENCODING 10321
SWIDTH 666 0
DWIDTH 18 0
BBX 18 19 0 -1
BITMAP
000000
080000
11fe00
200000
440000
080000
100000
33ff00
500800
100800
100800
100800
100800
100800
104800
102800
101800
000000
000000
ENDCHAR
STARTCHAR 2852
ENCODING 10322
SWIDTH 666 0
DWIDTH 18 0
BBX 18 19 0 -1
BITMAP
000000
010000
010000
010000
7fff00
040000
040000
090400
090800
189000
28a000
284000
482000
081000
088800
0b0400
1c0300
000000
000000
ENDCHAR
STARTCHAR 2853
ENCODING 10323
SWIDTH 666 0
DWIDTH 18 0
BBX 18 19 0 -1
BITMAP
000000
000000
7fff00
042000
042000
042000
7ffe00
442200
442200
442200
442200
442200
47e200
400200
400200
400200
400200
000000
000000
ENDCHAR
STARTCHAR 2854
ENCODING 10324
SWIDTH 666 0
DWIDTH 18 0
BBX 18 19 0 -1
BITMAP
000000
3ff800
200800
200800
3ff800
200800
200800
3ff800
200800
200800
3ff800
248800
048000
088000
088200
108200
607e00
000000
000000
ENDCHAR
STARTCHAR 2855
ENCODING 10325
SWIDTH 666 0
DWIDTH 18 0
BBX 18 19 0 -1
BITMAP
000000
080000
0ff000
102000
204000
408000
3ffe00
208200
208200
3ffe00
208200
208200
3ffe00
200200
200200
400a00
000600
000000
000000
ENDCHAR
STARTCHAR 2856
ENCODING 10326
SWIDTH 666 0
DWIDTH 18 0
BBX 18 19 0 -1
BITMAP
000000
008000
008000
7fff00
000000
000000
3ffc00
000000
000000
3ffc00
000000
000000
3ffc00
200400
200400
200400
3ffc00
000000
000000
ENDCHAR
STARTCHAR 2857
ENCODING 10327
SWIDTH 666 0
DWIDTH 18 0
BBX 18 19 0 -1
BITMAP
000000
000000
081000
100800
218400
424200
042000
081000
100800
200400
5ffa00
100900
100800
100800
100800
100800
1ff800
000000
000000
ENDCHAR
STARTCHAR 2858
ENCODING 10328
SWIDTH 666 0
DWIDTH 18 0
BBX 18 19 0 -1
BITMAP
000000
000000
7ffe00
000000
000000
3ffc00
200400
200400
200400
200400
3ffc00
000000
100800
081000
042000
004000
7fff00
000000
000000
ENDCHAR
STARTCHAR 2859
ENCODING 10329
SWIDTH 666 0
DWIDTH 18 0
BBX 18 19 0 -1
BITMAP
000000
000000
7fff00
022000
052000
092000
112200
62a400
04a800
08a000
11a000
629000
049000
088800
308400
450300
020000
000000
000000
ENDCHAR
STARTCHAR 285a
ENCODING 10330
SWIDTH 666 0
DWIDTH 18 0
BBX 18 19 0 -1
BITMAP
000000
008000
011000
032000
04c000
0c8000
334000
022000
043000
085000
109000
011000
023000
0c5000
309000
031000
0c6000
000000
000000
ENDCHAR
STARTCHAR 285b
ENCODING 10331
SWIDTH 666 0
DWIDTH 18 0
BBX 18 19 0 -1
BITMAP
000000
3ffc00
200400
200400
200400
3ffc00
200400
200400
3ffc00
200400
200400
200400
3ffc00
000000
100800
200400
400200
000000
000000
ENDCHAR
STARTCHAR 285c
ENCODING 10332
SWIDTH 666 0
DWIDTH 18 0
BBX 18 19 0 -1
BITMAP
000000
008000
008000
008000
3ffc00
008000
008000
7fff00
022000
022000
022000
222400
222200
442200
042000
08a000
106000
000000
000000
ENDCHAR
STARTCHAR 285d
ENCODING 10333
SWIDTH 666 0
DWIDTH 18 0
BBX 18 19 0 -1
BITMAP
000000
008000
008000
3ffc00
008000
008000
7fff00
008000
008000
088000
08fe00
088000
108000
188000
248000
238000
40ff00
000000
000000
ENDCHAR
STARTCHAR 285e
ENCODING 10334
SWIDTH 666 0
DWIDTH 18 0
BBX 18 19 0 -1
BITMAP
000000
000000
1ffc00
100400
100400
100400
1ffc00
108400
008000
008000
108000
10fc00
108000
188000
248000
238000
40ff00
000000
000000
ENDCHAR
STARTCHAR 285f
ENCODING 10335
SWIDTH 666 0
DWIDTH 18 0
BBX 18 19 0 -1
BITMAP
000000
020000
040000
1ff800
100800
1ff800
100900
1ff900
100a00
1ffc00
100800
001800
002800
004800
018800
062800
381000
000000
000000
ENDCHAR
STARTCHAR 2860
ENCODING 10336
SWIDTH 666 0
DWIDTH 18 0
BBX 18 19 0 -1
BITMAP
000000
008000
7fff00
008000
008000
3ffe00
208200
208200
3ffe00
208200
208200
3ffe00
008000
008000
7fff00
008000
008000
000000
000000
ENDCHAR
STARTCHAR 2861
ENCODING 10337
SWIDTH 666 0
DWIDTH 18 0
BBX 18 19 0 -1
BITMAP
000000
010000
010000
7ffe00
081000
081000
081000
081000
7fff00
010000
010000
010000
7ffe00
010000
010000
010000
010000
000000
000000
ENDCHAR
STARTCHAR 2862
ENCODING 10338
SWIDTH 666 0
DWIDTH 18 0
BBX 18 19 0 -1
BITMAP
000000
000000
3fff00
200000
200000
27fc00
200000
200000
3fff00
250000
248200
244400
242800
241000
448800
050400
060200
000000
000000
ENDCHAR
STARTCHAR 2863
ENCODING 10339
SWIDTH 666 0
DWIDTH 18 0
BBX 18 19 0 -1
BITMAP
000000
020000
040000
084000
308400
010800
061000
182000
00c000
038000
0c8000
008000
10fc00
108000
188000
268000
41ff00
000000
000000
ENDCHAR
STARTCHAR 2864
ENCODING 10340
SWIDTH 666 0
DWIDTH 18 0
BBX 18 19 0 -1
BITMAP
000000
000000
1ff800
100800
100800
1ff800
000000
7ffe00
410200
410200
410200
7ffe00
400000
400000
400100
400100
3fff00
000000
000000
ENDCHAR
STARTCHAR 2865
ENCODING 10341
SWIDTH 666 0
DWIDTH 18 0
BBX 18 19 0 -1
BITMAP
000000
000000
7fff00
024000
024000
7ffe00
424200
424200
424200
444200
484200
503e00
600200
4ff200
400200
400200
7ffe00
000000
000000
ENDCHAR
STARTCHAR 2866
ENCODING 10342
SWIDTH 666 0
DWIDTH 18 0
BBX 18 19 0 -1
BITMAP
000000
001e00
3fe000
000000
108200
084200
084400
008000
008000
7fff00
01c000
01a000
029000
048800
088400
108200
608100
000000
000000
ENDCHAR
STARTCHAR 2867
ENCODING 10343
SWIDTH 666 0
DWIDTH 18 0
BBX 18 19 0 -1
BITMAP
000000
000000
3ffe00
208200
208200
208200
3ffe00
208200
208200
208200
3ffe00
008000
008000
3ffe00
008000
008000
7fff00
000000
000000
ENDCHAR
STARTCHAR 2868
ENCODING 10344
SWIDTH 666 0
DWIDTH 18 0
BBX 18 19 0 -1
BITMAP
000000
018000
024000
042000
081000
100800
2ff400
410200
010100
010000
7ffe00
010000
210800
111000
092000
010000
7ffe00
000000
000000
ENDCHAR
STARTCHAR 2869
ENCODING 10345
SWIDTH 666 0
DWIDTH 18 0
BBX 18 19 0 -1
BITMAP
000000
1ffc00
100000
100000
1ff800
100000
1ff800
100000
7fff00
120000
110400
108800
105000
102000
121000
140c00
380300
000000
000000
ENDCHAR
STARTCHAR 286a
ENCODING 10346
SWIDTH 666 0
DWIDTH 18 0
BBX 18 19 0 -1
BITMAP
000000
000000
7f7f00
414100
414100
7f7f00
414100
414100
7f7f00
400100
400100
400100
400100
400100
401100
400900
400700
000000
000000
ENDCHAR
STARTCHAR 286b
ENCODING 10347
SWIDTH 666 0
DWIDTH 18 0
BBX 18 19 0 -1
BITMAP
000000
020000
040000
3ffc00
200400
200400
3ffc00
200000
3ffe00
200200
200200
3ffe00
008000
7fff00
008000
008000
008000
000000
000000
ENDCHAR
STARTCHAR 286c
ENCODING 10348
SWIDTH 666 0
DWIDTH 18 0
BBX 18 19 0 -1
BITMAP
000000
010000
3ffc00
010400
010400
7fff00
010400
010400
3ffc00
010000
210200
118400
034800
052000
091000
110800
430700
000000
000000
ENDCHAR
STARTCHAR 286d
ENCODING 10349
SWIDTH 666 0
DWIDTH 18 0
BBX 18 19 0 -1
BITMAP
000000
041000
082000
104000
3fff00
504000
104000
104000
1ffe00
104000
104000
104000
1ffe00
104000
104000
104000
1fff00
000000
000000
ENDCHAR
STARTCHAR 286e
ENCODING 10350
SWIDTH 666 0
DWIDTH 18 0
BBX 18 19 0 -1
BITMAP
000000
000000
7fff00
010000
010000
010000
7ffe00
410200
511200
492200
454200
410200
454200
492200
511200
410200
410e00
000000
000000
ENDCHAR
STARTCHAR 286f
ENCODING 10351
SWIDTH 666 0
DWIDTH 18 0
BBX 18 19 0 -1
BITMAP
000000
010000
010000
7ffe00
010000
3ffc00
010000
7fff00
000000
1ff800
100800
1ff800
100800
1ff800
100800
102800
101800
000000
000000
ENDCHAR
STARTCHAR 2870
ENCODING 10352
SWIDTH 666 0
DWIDTH 18 0
BBX 18 19 0 -1
BITMAP
000000
022000
022000
022000
7e3f00
022000
022000
3e3e00
022000
022000
032000
1e3f00
642000
042000
082000
102000
202000
000000
000000
ENDCHAR
STARTCHAR 2871
ENCODING 10353
SWIDTH 666 0
DWIDTH 18 0
BBX 18 19 0 -1
BITMAP
000000
000000
7fff00
010000
020000
040000
7ffe00
442200
442200
47e200
442200
442200
47e200
442200
442200
442200
7ffe00
000000
000000
ENDCHAR
STARTCHAR 2872
ENCODING 10354
SWIDTH 666 0
DWIDTH 18 0
BBX 18 19 0 -1
BITMAP
000000
082000
082000
7ffe00
082000
082000
0fe000
010000
3ff800
210800
210800
3ff800
010000
010000
7fff00
010000
010000
000000
000000
ENDCHAR
STARTCHAR 2873
ENCODING 10355
SWIDTH 666 0
DWIDTH 18 0
BBX 18 19 0 -1
BITMAP
000000
010000
1ff800
010800
010800
7fff00
000000
1ffc00
100400
1ffc00
004000
3ffe00
204000
204000
3fff00
004000
004000
000000
000000
ENDCHAR
STARTCHAR 2874
ENCODING 10356
SWIDTH 666 0
DWIDTH 18 0
BBX 18 19 0 -1
BITMAP
000000
024000
024000
024000
7e7e00
024000
024000
024000
7e7e00
024000
024000
024000
7e7e00
024000
024000
024000
7fff00
000000
000000
ENDCHAR
STARTCHAR 2875
ENCODING 10357
SWIDTH 666 0
DWIDTH 18 0
BBX 18 19 0 -1
BITMAP
000000
010000
010000
7ffe00
081000
081000
081000
7fff00
000000
000000
1ff800
100800
100800
1ff800
100800
100800
1ff800
000000
000000
ENDCHAR
STARTCHAR 2876
ENCODING 10358
SWIDTH 666 0
DWIDTH 18 0
BBX 18 19 0 -1
BITMAP
000000
000000
7fff00
020000
040000
3ffc00
200400
200400
3ffc00
200400
3ffc00
200400
200400
3ffc00
081000
100800
600600
000000
000000
ENDCHAR
STARTCHAR 2877
ENCODING 10359
SWIDTH 666 0
DWIDTH 18 0
BBX 18 19 0 -1
BITMAP
000000
000000
3ffc00
200400
202400
2fc400
210400
210400
2fe400
292400
292400
2fe400
210400
211500
211500
4ff300
001100
000000
000000
ENDCHAR
STARTCHAR 2878
ENCODING 10360
SWIDTH 666 0
DWIDTH 18 0
BBX 18 19 0 -1
BITMAP
000000
000200
7ff400
011000
051400
791200
111000
111f00
110000
7ff200
111400
111000
111400
111200
210800
410500
010300
000000
000000
ENDCHAR
STARTCHAR 2879
ENCODING 10361
SWIDTH 666 0
DWIDTH 18 0
BBX 18 19 0 -1
BITMAP
000000
018000
024000
052000
091000
1ff800
281400
481200
0ff100
081000
081000
0ff000
084400
082800
091000
0a0800
0c0600
000000
000000
ENDCHAR
STARTCHAR 287a
ENCODING 10362
SWIDTH 666 0
DWIDTH 18 0
BBX 18 19 0 -1
BITMAP
000000
100800
081000
042000
7fff00
020000
040000
3ffc00
200400
200400
3ffc00
200400
200400
3ffc00
200400
200400
3ffc00
000000
000000
ENDCHAR
STARTCHAR 287b
ENCODING 10363
SWIDTH 666 0
DWIDTH 18 0
BBX 18 19 0 -1
BITMAP
000000
000800
3ff000
010000
010000
7fff00
052000
091000
110800
200400
5ffa00
100900
100800
1ff800
100800
100800
1ff800
000000
000000
ENDCHAR
STARTCHAR 287c
ENCODING 10364
SWIDTH 666 0
DWIDTH 18 0
BBX 18 19 0 -1
BITMAP
000000
000000
3ffe00
204000
204000
3ffe00
204000
204000
3ffe00
204000
204000
3fff00
000100
249100
249100
449500
049300
000000
000000
ENDCHAR
STARTCHAR 287d
ENCODING 10365
SWIDTH 666 0
DWIDTH 18 0
BBX 18 19 0 -1
BITMAP
000000
0ff800
080800
09f800
090800
090800
7fff00
400100
400100
4ff900
080800
0ff800
080800
0ff800
080800
084800
083800
000000
000000
ENDCHAR
STARTCHAR 287e
ENCODING 10366
SWIDTH 666 0
DWIDTH 18 0
BBX 18 19 0 -1
BITMAP
000000
010000
010000
7fff00
000000
1ff800
100800
1ff800
000000
7ffe00
400200
4ff200
481200
481200
4ff200
400200
400e00
000000
000000
ENDCHAR
STARTCHAR 2921
ENCODING 10529
SWIDTH 666 0
DWIDTH 18 0
BBX 18 19 0 -1
BITMAP
000000
000200
3f8400
200800
201000
3f2100
200200
3f0400
200800
7f9000
202100
200200
220400
430800
4c9000
706000
418000
000000
000000
ENDCHAR
STARTCHAR 2922
ENCODING 10530
SWIDTH 666 0
DWIDTH 18 0
BBX 18 19 0 -1
BITMAP
000000
7f7f00
441100
441100
7f7f00
441100
441100
7f7f00
400100
400100
400100
400100
400100
400100
400100
400900
400700
000000
000000
ENDCHAR
STARTCHAR 2923
ENCODING 10531
SWIDTH 666 0
DWIDTH 18 0
BBX 18 19 0 -1
BITMAP
000000
521000
492200
444200
628200
511200
428a00
444200
492200
408200
7ffe00
100000
100800
1ff000
100100
100100
1fff00
000000
000000
ENDCHAR
STARTCHAR 2924
ENCODING 10532
SWIDTH 666 0
DWIDTH 18 0
BBX 18 19 0 -1
BITMAP
000000
000000
7fff00
000000
1ff800
100800
1ff800
000000
7ffe00
424200
444a00
487a00
400200
4ff200
410200
410200
410e00
000000
000000
ENDCHAR
STARTCHAR 2925
ENCODING 10533
SWIDTH 666 0
DWIDTH 18 0
BBX 18 19 0 -1
BITMAP
000000
020000
040000
7ffc00
410400
410400
7ffc00
410400
410400
7ffc00
048800
049000
04a400
08bc00
108500
208100
40ff00
000000
000000
ENDCHAR
STARTCHAR 2926
ENCODING 10534
SWIDTH 666 0
DWIDTH 18 0
BBX 18 19 0 -1
BITMAP
000000
080000
0ff000
102000
604000
3ffc00
210400
210400
3ffc00
210400
210400
210400
3ffc00
000000
124400
224200
424200
000000
000000
ENDCHAR
STARTCHAR 2927
ENCODING 10535
SWIDTH 666 0
DWIDTH 18 0
BBX 18 19 0 -1
BITMAP
000000
040000
080000
3ff800
200800
3ff800
200800
3ff800
200000
3fff00
200000
3ffe00
000200
249200
248a00
448200
000e00
000000
000000
ENDCHAR
STARTCHAR 2928
ENCODING 10536
SWIDTH 666 0
DWIDTH 18 0
BBX 18 19 0 -1
BITMAP
000000
010000
010000
01fc00
010000
010000
7ffe00
420200
492200
444200
628200
511200
428a00
444200
492200
408200
7ffe00
000000
000000
ENDCHAR
STARTCHAR 2929
ENCODING 10537
SWIDTH 666 0
DWIDTH 18 0
BBX 18 19 0 -1
BITMAP
000000
004000
004000
3fff00
222000
222000
3ffe00
222200
222200
3ffe00
200000
242100
242200
27bc00
442000
04a100
073f00
000000
000000
ENDCHAR
STARTCHAR 292a
ENCODING 10538
SWIDTH 666 0
DWIDTH 18 0
BBX 18 19 0 -1
BITMAP
000000
008000
008000
7fff00
008000
108400
108400
29ca00
42b100
0a0800
33f600
441100
0a2000
114000
018000
060000
380000
000000
000000
ENDCHAR
STARTCHAR 292b
ENCODING 10539
SWIDTH 666 0
DWIDTH 18 0
BBX 18 19 0 -1
BITMAP
000000
004000
004000
3fff00
200000
220800
220800
220800
2fbf00
220800
220800
271c00
2aaa00
220900
420800
420800
020800
000000
000000
ENDCHAR
STARTCHAR 292c
ENCODING 10540
SWIDTH 666 0
DWIDTH 18 0
BBX 18 19 0 -1
BITMAP
000000
081000
081000
7ffe00
081000
0ff000
000000
7fff00
010000
3ffc00
210400
3ffc00
210400
3ffc00
100800
200400
400200
000000
000000
ENDCHAR
STARTCHAR 292d
ENCODING 10541
SWIDTH 666 0
DWIDTH 18 0
BBX 18 19 0 -1
BITMAP
000000
000800
3ff000
010000
7fff00
092000
111000
238800
444700
092000
113000
314800
4b8700
054000
092000
111000
230c00
000000
000000
ENDCHAR
STARTCHAR 292e
ENCODING 10542
SWIDTH 666 0
DWIDTH 18 0
BBX 18 19 0 -1
BITMAP
000000
3ffc00
210400
291400
252400
234400
210400
3ffc00
010000
7ffe00
010000
010000
7fff00
000000
224400
224400
424200
000000
000000
ENDCHAR
STARTCHAR 292f
ENCODING 10543
SWIDTH 666 0
DWIDTH 18 0
BBX 18 19 0 -1
BITMAP
000000
024000
224400
124800
125000
7fff00
049000
088800
308400
5ffe00
108500
12a400
12a400
12a400
12a400
14a400
188c00
000000
000000
ENDCHAR
STARTCHAR 2930
ENCODING 10544
SWIDTH 666 0
DWIDTH 18 0
BBX 18 19 0 -1
BITMAP
000000
000000
7ffc00
428400
428400
7efc00
028000
7efc00
428400
428400
7efc00
428400
428400
7efc00
020100
020100
01ff00
000000
000000
ENDCHAR
STARTCHAR 2931
ENCODING 10545
SWIDTH 666 0
DWIDTH 18 0
BBX 18 19 0 -1
BITMAP
000000
000000
0ff000
081000
4ff200
481200
4ff200
481200
4ff200
400200
7e7e00
024000
7e7f00
124400
124400
224400
424400
000000
000000
ENDCHAR
STARTCHAR 2932
ENCODING 10546
SWIDTH 666 0
DWIDTH 18 0
BBX 18 19 0 -1
BITMAP
000000
080800
080800
7f7f00
080800
080800
3e0800
007f00
3e2100
222200
222200
3e1400
001800
220800
121400
142200
7f4100
000000
000000
ENDCHAR
STARTCHAR 2933
ENCODING 10547
SWIDTH 666 0
DWIDTH 18 0
BBX 18 19 0 -1
BITMAP
000000
0e0000
703e00
400200
7e7e00
400200
7ffe00
400200
210800
210800
3de800
210800
3de800
210900
210500
292500
73c300
000000
000000
ENDCHAR
STARTCHAR 2934
ENCODING 10548
SWIDTH 666 0
DWIDTH 18 0
BBX 18 19 0 -1
BITMAP
000000
040000
1ff800
100800
1ff800
100800
1ff800
100800
7ffe00
410200
7ffe00
410200
7ffe00
081000
7fff00
101000
201000
000000
000000
ENDCHAR
STARTCHAR 2935
ENCODING 10549
SWIDTH 666 0
DWIDTH 18 0
BBX 18 19 0 -1
BITMAP
000000
010000
010000
7fff00
044200
7abc00
292800
292400
597200
010000
100800
1ff800
100800
100800
1ff800
200800
400800
000000
000000
ENDCHAR
STARTCHAR 2936
ENCODING 10550
SWIDTH 666 0
DWIDTH 18 0
BBX 18 19 0 -1
BITMAP
000000
008000
088000
08fc00
088000
088000
7fff00
242200
242200
2a5200
318a00
3ffe00
242200
242200
2a5200
318a00
3ffe00
000000
000000
ENDCHAR
STARTCHAR 2937
ENCODING 10551
SWIDTH 666 0
DWIDTH 18 0
BBX 18 19 0 -1
BITMAP
000000
104000
107e00
7f4000
247e00
240200
7f7e00
004000
7e4000
427c00
7e4000
427c00
7e4000
427c00
424100
4a4100
467f00
000000
000000
ENDCHAR
STARTCHAR 2938
ENCODING 10552
SWIDTH 666 0
DWIDTH 18 0
BBX 18 19 0 -1
BITMAP
000000
0fc000
104000
008000
7ffe00
428200
7efe00
028000
7afe00
0a8200
7eaa00
0a9200
7aaa00
0a8200
7efe00
0a0000
7bff00
000000
000000
ENDCHAR
STARTCHAR 2939
ENCODING 10553
SWIDTH 666 0
DWIDTH 18 0
BBX 18 19 0 -1
BITMAP
000000
03c000
042000
081000
17e800
200400
7bde00
4a5300
7bde00
000000
3ffc00
224400
224400
3ffc00
224400
224400
224c00
000000
000000
ENDCHAR
STARTCHAR 4221
ENCODING 16929
SWIDTH 666 0
DWIDTH 18 0
BBX 18 19 0 -1
BITMAP
000000
000000
4aa400
4aa400
6aa400
6aa400
6aa400
6aa400
6aa400
7aa400
5aa400
5aa400
5aa400
4aa400
4aad00
493f00
000000
000000
000000
ENDCHAR
STARTCHAR 4222
ENCODING 16930
SWIDTH 666 0
DWIDTH 18 0
BBX 18 19 0 -1
BITMAP
000000
7dc000
122000
120400
120c00
120400
120400
122400
39ce00
200200
589500
655500
515d00
495500
655500
589500
200200
000000
000000
ENDCHAR
STARTCHAR 4223
ENCODING 16931
SWIDTH 666 0
DWIDTH 18 0
BBX 18 19 0 -1
BITMAP
000000
7dc000
122000
140600
140900
140100
140200
122400
39cf00
200200
5be300
66b500
508900
488900
649500
58a300
200200
000000
000000
ENDCHAR
STARTCHAR 4224
ENCODING 16932
SWIDTH 666 0
DWIDTH 18 0
BBX 18 19 0 -1
BITMAP
000000
7dc000
122600
120900
120100
120600
120100
122900
39c600
200200
5dd300
509500
5c8900
508900
509500
5ea300
200200
000000
000000
ENDCHAR
STARTCHAR 4225
ENCODING 16933
SWIDTH 666 0
DWIDTH 18 0
BBX 18 19 0 -1
BITMAP
000000
7dc000
122000
140200
140600
140a00
141200
123f00
39c200
200200
5cdd00
514900
5d4900
514900
514900
5d8900
200200
000000
000000
ENDCHAR
STARTCHAR 4226
ENCODING 16934
SWIDTH 666 0
DWIDTH 18 0
BBX 18 19 0 -1
BITMAP
000000
7dc000
122000
120f00
120800
120e00
120100
122900
39c600
200200
5d4900
515500
59d500
515500
515d00
5d4f00
200200
000000
000000
ENDCHAR
STARTCHAR 4227
ENCODING 16935
SWIDTH 666 0
DWIDTH 18 0
BBX 18 19 0 -1
BITMAP
000000
7dc000
122000
120600
120800
120e00
120900
122900
39c600
200200
489300
555500
551900
5d1900
555500
549300
200200
000000
000000
ENDCHAR
STARTCHAR 4228
ENCODING 16936
SWIDTH 666 0
DWIDTH 18 0
BBX 18 19 0 -1
BITMAP
000000
000000
73a400
4aa400
4a2400
4a2400
4a2400
4a2400
73a400
4a2400
4a2400
4a2400
4a2400
4a2d00
4aad00
73b700
000000
000000
000000
ENDCHAR
STARTCHAR 4229
ENCODING 16937
SWIDTH 666 0
DWIDTH 18 0
BBX 18 19 0 -1
BITMAP
000000
7bc000
420000
420600
7bc900
420900
420900
420900
43c600
200200
5e3900
514100
5e3900
510500
514500
5e3900
200200
000000
000000
ENDCHAR
STARTCHAR 422a
ENCODING 16938
SWIDTH 666 0
DWIDTH 18 0
BBX 18 19 0 -1
BITMAP
000000
7bc000
420000
420400
7bcc00
420400
420400
420400
43ce00
200200
517d00
511100
5f1100
511100
511100
511100
200200
000000
000000
ENDCHAR
STARTCHAR 422b
ENCODING 16939
SWIDTH 666 0
DWIDTH 18 0
BBX 18 19 0 -1
BITMAP
000000
7bc000
420000
420c00
7bd200
420200
420400
420800
43de00
200200
507d00
504100
507900
504100
514100
5f4100
200200
000000
000000
ENDCHAR
STARTCHAR 422c
ENCODING 16940
SWIDTH 666 0
DWIDTH 18 0
BBX 18 19 0 -1
BITMAP
000000
7bc000
420600
420900
7bc100
420600
420100
420900
43c600
200200
517d00
511100
511100
4a1100
4a1100
441100
200200
000000
000000
ENDCHAR
STARTCHAR 422d
ENCODING 16941
SWIDTH 666 0
DWIDTH 18 0
BBX 18 19 0 -1
BITMAP
000000
7bc000
420000
420200
7bc600
420a00
421200
421f00
43c200
200200
5f7d00
504100
5e7900
504100
504100
504100
200200
000000
000000
ENDCHAR
STARTCHAR 422e
ENCODING 16942
SWIDTH 666 0
DWIDTH 18 0
BBX 18 19 0 -1
BITMAP
000000
7bc000
420000
420f00
7bc800
420e00
420100
420900
43ce00
200200
4e7900
514500
504500
507900
514900
4e4500
200200
000000
000000
ENDCHAR
STARTCHAR 422f
ENCODING 16943
SWIDTH 666 0
DWIDTH 18 0
BBX 18 19 0 -1
BITMAP
000000
000000
1c1c00
232200
414100
404100
404100
204100
104100
0c4100
024100
014100
014100
414100
422200
3c1c00
000000
000000
000000
ENDCHAR
STARTCHAR 4230
ENCODING 16944
SWIDTH 666 0
DWIDTH 18 0
BBX 18 19 0 -1
BITMAP
000000
000000
1c3e00
230800
410800
400800
400800
200800
100800
0c0800
020800
010800
010800
410800
420800
3c3e00
000000
000000
000000
ENDCHAR
STARTCHAR 4231
ENCODING 16945
SWIDTH 666 0
DWIDTH 18 0
BBX 18 19 0 -1
BITMAP
000000
7dc000
122000
140f00
140900
140200
140400
122400
39c400
200200
591d00
551100
551d00
551100
551100
59dd00
200200
000000
000000
ENDCHAR
STARTCHAR 4232
ENCODING 16946
SWIDTH 666 0
DWIDTH 18 0
BBX 18 19 0 -1
BITMAP
000000
000000
70c000
492000
4a0000
4a0000
4a0000
4a0000
4a0000
4a0400
4a0c00
4a0400
4a0400
4a0400
492400
70df00
000000
000000
000000
ENDCHAR
STARTCHAR 4233
ENCODING 16947
SWIDTH 666 0
DWIDTH 18 0
BBX 18 19 0 -1
BITMAP
000000
000000
70c000
492000
4a0000
4a0000
4a0000
4a0000
4a0000
4a0e00
4a1100
4a0100
4a0200
4a0400
492900
70df00
000000
000000
000000
ENDCHAR
STARTCHAR 4234
ENCODING 16948
SWIDTH 666 0
DWIDTH 18 0
BBX 18 19 0 -1
BITMAP
000000
000000
70c000
492000
4a0000
4a0000
4a0000
4a0000
4a0000
4a0e00
4a1100
4a0100
4a0e00
4a0100
493100
70ce00
000000
000000
000000
ENDCHAR
STARTCHAR 4235
ENCODING 16949
SWIDTH 666 0
DWIDTH 18 0
BBX 18 19 0 -1
BITMAP
000000
000000
70c000
492000
4a0000
4a0000
4a0000
4a0000
4a0000
4a0200
4a0600
4a0a00
4a1200
4a2200
493f00
70c200
000000
000000
000000
ENDCHAR
STARTCHAR 4236
ENCODING 16950
SWIDTH 666 0
DWIDTH 18 0
BBX 18 19 0 -1
BITMAP
000000
7d8000
564000
140e00
141100
140e00
141100
125100
398e00
200200
524b00
5aab00
5aad00
56ed00
56ab00
52ab00
200200
000000
000000
ENDCHAR
STARTCHAR 4237
ENCODING 16951
SWIDTH 666 0
DWIDTH 18 0
BBX 18 19 0 -1
BITMAP
000000
7cc000
552000
120e00
121100
121100
120f00
112100
38de00
200200
5a2500
657500
50b500
48ad00
64ad00
58a500
200200
000000
000000
ENDCHAR
STARTCHAR 4238
ENCODING 16952
SWIDTH 666 0
DWIDTH 18 0
BBX 18 19 0 -1
BITMAP
000000
7d8000
564000
141200
143500
141500
141500
125500
39ba00
200200
5ff900
529500
5c9900
509500
529500
5e9900
200200
000000
000000
ENDCHAR
STARTCHAR 4239
ENCODING 16953
SWIDTH 666 0
DWIDTH 18 0
BBX 18 19 0 -1
BITMAP
000000
000000
308900
494900
4a2d00
422d00
422d00
422d00
422d00
422f00
43eb00
422b00
422b00
4a2b00
4a2900
322900
000000
000000
000000
ENDCHAR
STARTCHAR 423a
ENCODING 16954
SWIDTH 666 0
DWIDTH 18 0
BBX 18 19 0 -1
BITMAP
000000
000000
7e4100
424100
426300
406700
407700
405500
784900
404900
404900
404100
404100
424100
424100
7e4100
000000
000000
000000
ENDCHAR
STARTCHAR 423b
ENCODING 16955
SWIDTH 666 0
DWIDTH 18 0
BBX 18 19 0 -1
BITMAP
000000
000000
325e00
4a5100
4a5100
425100
425100
425100
225e00
125100
0a5100
0a5100
0a5100
0a5100
4a5100
319e00
000000
000000
000000
ENDCHAR
STARTCHAR 423c
ENCODING 16956
SWIDTH 666 0
DWIDTH 18 0
BBX 18 19 0 -1
BITMAP
000000
000000
79c600
4a2900
4a0800
420800
420800
410800
788800
404800
402800
402800
402800
422800
4a2900
79c600
000000
000000
000000
ENDCHAR
STARTCHAR 423d
ENCODING 16957
SWIDTH 666 0
DWIDTH 18 0
BBX 18 19 0 -1
BITMAP
000000
7b8000
244000
240200
230600
218a00
205200
247f00
7b8200
200200
5f3d00
504100
5e3900
500500
504500
503900
200200
000000
000000
ENDCHAR
STARTCHAR 423e
ENCODING 16958
SWIDTH 666 0
DWIDTH 18 0
BBX 18 19 0 -1
BITMAP
000000
7b8000
244e00
241100
230100
218e00
204100
245100
7b8e00
200200
4e3d00
514100
503100
578d00
530500
4d3900
200200
000000
000000
ENDCHAR
STARTCHAR 423f
ENCODING 16959
SWIDTH 666 0
DWIDTH 18 0
BBX 18 19 0 -1
BITMAP
000000
7b8000
244000
240e00
231100
218200
204400
244800
7b9f00
200200
5e3d00
514100
513100
5e0d00
524500
513900
200200
000000
000000
ENDCHAR
STARTCHAR 4240
ENCODING 16960
SWIDTH 666 0
DWIDTH 18 0
BBX 18 19 0 -1
BITMAP
000000
7b8000
244000
240400
230c00
218400
204400
244400
7b9f00
200200
513d00
514100
513100
510d00
514500
4e3900
200200
000000
000000
ENDCHAR
STARTCHAR 4241
ENCODING 16961
SWIDTH 666 0
DWIDTH 18 0
BBX 18 19 0 -1
BITMAP
000000
000000
73e800
4a2800
4a0800
4a0800
4a0800
4a0800
4bc800
4a0800
4a0800
4a0800
4a0800
4a2900
4a2900
73ef00
000000
000000
000000
ENDCHAR
STARTCHAR 4421
ENCODING 17441
SWIDTH 666 0
DWIDTH 18 0
BBX 18 19 0 -1
BITMAP
000000
000000
000000
000000
000000
000000
000000
000000
7fff00
000000
000000
000000
000000
000000
000000
000000
000000
000000
000000
ENDCHAR
STARTCHAR 4422
ENCODING 17442
SWIDTH 666 0
DWIDTH 18 0
BBX 18 19 0 -1
BITMAP
000000
000000
1ffe00
000400
001800
002000
004000
018000
020000
040000
080000
100000
100100
200100
200100
1ffe00
000000
000000
000000
ENDCHAR
STARTCHAR 4423
ENCODING 17443
SWIDTH 666 0
DWIDTH 18 0
BBX 18 19 0 -1
BITMAP
000000
000000
000000
7fff00
008000
008000
008000
008000
008000
008000
008000
008000
008000
008000
008000
008000
078000
000000
000000
ENDCHAR
STARTCHAR 4424
ENCODING 17444
SWIDTH 666 0
DWIDTH 18 0
BBX 18 19 0 -1
BITMAP
000000
000000
040000
040000
040000
040000
7ffe00
040000
040000
040000
040000
040000
040000
040000
03fe00
000000
000000
000000
000000
ENDCHAR
STARTCHAR 4425
ENCODING 17445
SWIDTH 666 0
DWIDTH 18 0
BBX 18 19 0 -1
BITMAP
000000
000000
3ff800
040800
040800
041000
041000
041000
043f00
042100
080100
080100
080100
100100
100200
200200
401e00
000000
000000
ENDCHAR
STARTCHAR 4426
ENCODING 17446
SWIDTH 666 0
DWIDTH 18 0
BBX 18 19 0 -1
BITMAP
000000
020000
020000
020000
020000
3ff000
021000
021000
021000
021000
021000
041000
041100
081100
101100
200f00
400000
000000
000000
ENDCHAR
STARTCHAR 4427
ENCODING 17447
SWIDTH 666 0
DWIDTH 18 0
BBX 18 19 0 -1
BITMAP
000000
000000
1ff800
001000
002000
004000
018000
008000
004000
004000
004000
004000
004000
004000
004000
008000
078000
000000
000000
ENDCHAR
STARTCHAR 4428
ENCODING 17448
SWIDTH 666 0
DWIDTH 18 0
BBX 18 19 0 -1
BITMAP
000000
000000
000000
1ffc00
000000
000000
000000
000000
000000
000000
000000
000000
000000
000000
7fff00
000000
000000
000000
000000
ENDCHAR
STARTCHAR 4429
ENCODING 17449
SWIDTH 666 0
DWIDTH 18 0
BBX 18 19 0 -1
BITMAP
000000
008000
008000
008000
008000
008000
008000
014000
014000
022000
022000
041000
041000
080800
100400
200200
400100
000000
000000
ENDCHAR
STARTCHAR 442a
ENCODING 17450
SWIDTH 666 0
DWIDTH 18 0
BBX 18 19 0 -1
BITMAP
000000
044000
044000
044000
044000
044000
044000
044000
044000
044000
084000
084000
084000
104000
104100
204100
403f00
000000
000000
ENDCHAR
STARTCHAR 442b
ENCODING 17451
SWIDTH 666 0
DWIDTH 18 0
BBX 18 19 0 -1
BITMAP
000000
000000
078000
008000
008000
008000
008000
014000
014000
022000
022000
041000
080800
080800
100400
200200
400100
000000
000000
ENDCHAR
STARTCHAR 442c
ENCODING 17452
SWIDTH 666 0
DWIDTH 18 0
BBX 18 19 0 -1
BITMAP
000000
000000
000000
002000
042000
042000
042000
042000
041000
081000
081000
080800
100800
100400
200200
400100
000000
000000
000000
ENDCHAR
STARTCHAR 442d
ENCODING 17453
SWIDTH 666 0
DWIDTH 18 0
BBX 18 19 0 -1
BITMAP
000000
000000
07f000
041000
041000
041000
041000
041000
041000
041000
041000
081000
081000
081100
101100
200f00
400000
000000
000000
ENDCHAR
STARTCHAR 442e
ENCODING 17454
SWIDTH 666 0
DWIDTH 18 0
BBX 18 19 0 -1
BITMAP
000000
000000
000000
3ffe00
010200
010200
010200
010200
010200
010200
020200
020200
020200
040200
080400
100400
203c00
000000
000000
ENDCHAR
STARTCHAR 442f
ENCODING 17455
SWIDTH 666 0
DWIDTH 18 0
BBX 18 19 0 -1
BITMAP
000000
000000
7ffe00
000200
000200
000200
008200
010200
020200
040200
080200
100200
600200
000400
004400
003800
000000
000000
000000
ENDCHAR
STARTCHAR 4430
ENCODING 17456
SWIDTH 666 0
DWIDTH 18 0
BBX 18 19 0 -1
BITMAP
000000
010000
010000
010000
010000
3ffe00
010200
010200
010200
010200
020200
020200
020200
040200
080400
100400
203c00
000000
000000
ENDCHAR
STARTCHAR 4431
ENCODING 17457
SWIDTH 666 0
DWIDTH 18 0
BBX 18 19 0 -1
BITMAP
000000
100000
100000
100200
100c00
103000
11c000
1e0000
100000
100000
100000
100000
100100
100100
100100
0fff00
000000
000000
000000
ENDCHAR
STARTCHAR 4432
ENCODING 17458
SWIDTH 666 0
DWIDTH 18 0
BBX 18 19 0 -1
BITMAP
000000
008000
008000
008000
008000
008000
008000
008000
7fff00
008000
008000
008000
008000
008000
008000
008000
008000
000000
000000
ENDCHAR
STARTCHAR 4433
ENCODING 17459
SWIDTH 666 0
DWIDTH 18 0
BBX 18 19 0 -1
BITMAP
000000
020000
020000
020000
020000
020000
030000
028000
026000
021000
020800
020000
020000
020000
020000
020000
020000
000000
000000
ENDCHAR
STARTCHAR 4434
ENCODING 17460
SWIDTH 666 0
DWIDTH 18 0
BBX 18 19 0 -1
BITMAP
000000
000000
000000
3ffc00
000400
000800
080800
041000
042000
022000
014000
008000
014000
022000
041000
180c00
600300
000000
000000
ENDCHAR
STARTCHAR 4435
ENCODING 17461
SWIDTH 666 0
DWIDTH 18 0
BBX 18 19 0 -1
BITMAP
000000
000000
000000
1ffc00
000000
000000
000000
000000
0ff800
000000
000000
000000
000000
000000
7fff00
000000
000000
000000
000000
ENDCHAR
STARTCHAR 4436
ENCODING 17462
SWIDTH 666 0
DWIDTH 18 0
BBX 18 19 0 -1
BITMAP
000000
000000
000000
7fff00
010000
010000
018000
014000
012000
011000
010800
010000
010000
010000
010000
010000
010000
000000
000000
ENDCHAR
STARTCHAR 4437
ENCODING 17463
SWIDTH 666 0
DWIDTH 18 0
BBX 18 19 0 -1
BITMAP
000000
004000
004000
004000
004000
7fff00
004000
004000
084000
048000
048000
028000
010000
028000
046000
181800
600700
000000
000000
ENDCHAR
STARTCHAR 4438
ENCODING 17464
SWIDTH 666 0
DWIDTH 18 0
BBX 18 19 0 -1
BITMAP
000000
010000
010000
010000
010000
010000
010000
01fc00
010000
010000
010000
010000
010000
010000
010000
7fff00
000000
000000
000000
ENDCHAR
STARTCHAR 4439
ENCODING 17465
SWIDTH 666 0
DWIDTH 18 0
BBX 18 19 0 -1
BITMAP
000000
400100
200200
100400
080800
041000
022000
014000
008000
008000
008000
008000
008000
008000
008000
008000
008000
000000
000000
ENDCHAR
STARTCHAR 443a
ENCODING 17466
SWIDTH 666 0
DWIDTH 18 0
BBX 18 19 0 -1
BITMAP
000000
020000
020000
020000
020000
7ff000
021000
021000
021000
021000
061000
051000
049100
081100
101100
200f00
400000
000000
000000
ENDCHAR
STARTCHAR 443b
ENCODING 17467
SWIDTH 666 0
DWIDTH 18 0
BBX 18 19 0 -1
BITMAP
000000
000000
0ff000
081000
081000
081000
081000
0a1000
099000
085000
081000
081000
101000
101100
101100
200f00
400000
000000
000000
ENDCHAR
STARTCHAR 443c
ENCODING 17468
SWIDTH 666 0
DWIDTH 18 0
BBX 18 19 0 -1
BITMAP
000000
020000
020000
040000
07f800
081000
081000
102000
202000
404000
004000
008000
014000
022000
041000
180c00
600300
000000
000000
ENDCHAR
STARTCHAR 443d
ENCODING 17469
SWIDTH 666 0
DWIDTH 18 0
BBX 18 19 0 -1
BITMAP
000000
008000
008000
010000
020000
040000
084000
104000
208000
410000
020000
040000
080000
100800
200400
7ffe00
000100
000000
000000
ENDCHAR
STARTCHAR 443e
ENCODING 17470
SWIDTH 666 0
DWIDTH 18 0
BBX 18 19 0 -1
BITMAP
000000
004000
084000
084600
085a00
08e200
0b4200
1c4200
684200
084200
084e00
084000
080000
080100
080100
07ff00
000000
000000
000000
ENDCHAR
STARTCHAR 443f
ENCODING 17471
SWIDTH 666 0
DWIDTH 18 0
BBX 18 19 0 -1
BITMAP
000000
040000
040000
0fff00
100000
100000
2ffc00
401000
006000
008000
030000
040000
080000
100200
100200
0ffe00
000000
000000
000000
ENDCHAR
STARTCHAR 4440
ENCODING 17472
SWIDTH 666 0
DWIDTH 18 0
BBX 18 19 0 -1
BITMAP
000000
000000
1ffc00
008000
008000
008000
008000
008000
7fff00
008000
008000
008000
008000
008000
008000
008000
078000
000000
000000
ENDCHAR
STARTCHAR 4441
ENCODING 17473
SWIDTH 666 0
DWIDTH 18 0
BBX 18 19 0 -1
BITMAP
000000
010000
008000
008000
008000
7fff00
100000
100000
100000
100000
100000
100000
100000
100000
100000
0ffe00
000000
000000
000000
ENDCHAR
STARTCHAR 4442
ENCODING 17474
SWIDTH 666 0
DWIDTH 18 0
BBX 18 19 0 -1
BITMAP
000000
000000
7fff00
044000
044000
044000
044000
044000
044000
044000
084000
084000
084000
104000
104100
204100
403f00
000000
000000
ENDCHAR
STARTCHAR 4443
ENCODING 17475
SWIDTH 666 0
DWIDTH 18 0
BBX 18 19 0 -1
BITMAP
000000
000000
000000
3ffe00
010200
010200
010200
110200
090200
050200
020200
040200
040200
080200
100400
200400
403c00
000000
000000
ENDCHAR
STARTCHAR 4444
ENCODING 17476
SWIDTH 666 0
DWIDTH 18 0
BBX 18 19 0 -1
BITMAP
000000
040000
040000
080000
0ffe00
100200
100200
200200
420200
010200
008200
004200
000200
000200
000400
000400
003c00
000000
000000
ENDCHAR
STARTCHAR 4445
ENCODING 17477
SWIDTH 666 0
DWIDTH 18 0
BBX 18 19 0 -1
BITMAP
000000
000c00
00f000
1f8000
008000
008000
008000
008000
7fff00
008000
008000
008000
008000
008000
008000
008000
008000
000000
000000
ENDCHAR
STARTCHAR 4446
ENCODING 17478
SWIDTH 666 0
DWIDTH 18 0
BBX 18 19 0 -1
BITMAP
000000
000000
3ffc00
000400
010400
088800
044800
041000
021000
022000
014000
008000
014000
022000
0c1800
300600
400100
000000
000000
ENDCHAR
STARTCHAR 4447
ENCODING 17479
SWIDTH 666 0
DWIDTH 18 0
BBX 18 19 0 -1
BITMAP
000000
000000
000000
1ffc00
100400
100400
100400
100400
100400
100400
100400
100400
100400
1ffc00
100400
100400
000000
000000
000000
ENDCHAR
STARTCHAR 4448
ENCODING 17480
SWIDTH 666 0
DWIDTH 18 0
BBX 18 19 0 -1
BITMAP
000000
008000
008000
008000
008000
008000
3ffe00
008000
008000
008000
008000
008000
008000
008000
7fff00
000000
000000
000000
000000
ENDCHAR
STARTCHAR 4449
ENCODING 17481
SWIDTH 666 0
DWIDTH 18 0
BBX 18 19 0 -1
BITMAP
000000
008000
008000
008000
008000
008000
7fff00
008000
008000
008000
008000
008000
008000
008000
3ffe00
000000
000000
000000
000000
ENDCHAR
STARTCHAR 444a
ENCODING 17482
SWIDTH 666 0
DWIDTH 18 0
BBX 18 19 0 -1
BITMAP
000000
008000
008000
010000
03fe00
020200
040400
080400
120800
219000
005000
002000
004000
008000
030000
0c0000
300000
000000
000000
ENDCHAR
STARTCHAR 444b
ENCODING 17483
SWIDTH 666 0
DWIDTH 18 0
BBX 18 19 0 -1
BITMAP
000000
008000
008000
008000
008000
008000
7fff00
008000
014000
014000
022000
022000
041000
080800
100400
200200
400100
000000
000000
ENDCHAR
STARTCHAR 444c
ENCODING 17484
SWIDTH 666 0
DWIDTH 18 0
BBX 18 19 0 -1
BITMAP
000000
008000
008000
010000
010000
020000
7fff00
020800
040800
040800
081000
0c1000
13a000
006000
009800
070400
380200
000000
000000
ENDCHAR
STARTCHAR 444d
ENCODING 17485
SWIDTH 666 0
DWIDTH 18 0
BBX 18 19 0 -1
BITMAP
000000
000000
1ff800
001000
002000
004000
018000
008000
7fff00
004000
004000
004000
004000
004000
004000
008000
078000
000000
000000
ENDCHAR
STARTCHAR 444e
ENCODING 17486
SWIDTH 666 0
DWIDTH 18 0
BBX 18 19 0 -1
BITMAP
000000
000000
1ff800
001000
002000
004000
018400
009800
006000
01c000
064000
184000
604000
004000
004000
008000
078000
000000
000000
ENDCHAR
STARTCHAR 444f
ENCODING 17487
SWIDTH 666 0
DWIDTH 18 0
BBX 18 19 0 -1
BITMAP
000000
000000
1ff800
001000
002000
004000
118000
0c8000
034000
00c000
006000
005800
004600
004000
004000
008000
078000
000000
000000
ENDCHAR
STARTCHAR 4450
ENCODING 17488
SWIDTH 666 0
DWIDTH 18 0
BBX 18 19 0 -1
BITMAP
000000
001000
001000
001000
001000
7fff00
001000
001000
001000
041000
021000
011000
001000
001000
001000
001000
007000
000000
000000
ENDCHAR
STARTCHAR 4451
ENCODING 17489
SWIDTH 666 0
DWIDTH 18 0
BBX 18 19 0 -1
BITMAP
000000
008000
008000
008000
008000
088800
088400
108400
108200
208200
208100
408100
008000
008000
008000
008000
038000
000000
000000
ENDCHAR
STARTCHAR 4452
ENCODING 17490
SWIDTH 666 0
DWIDTH 18 0
BBX 18 19 0 -1
BITMAP
000000
008000
008000
008000
008000
7fff00
008000
008000
00c000
014000
014000
024000
024000
044100
084100
103f00
200000
000000
000000
ENDCHAR
STARTCHAR 4453
ENCODING 17491
SWIDTH 666 0
DWIDTH 18 0
BBX 18 19 0 -1
BITMAP
000000
000000
0ffe00
080200
080200
080200
0ffe00
080200
080000
080000
080000
080000
100000
100000
100000
200000
400000
000000
000000
ENDCHAR
STARTCHAR 4454
ENCODING 17492
SWIDTH 666 0
DWIDTH 18 0
BBX 18 19 0 -1
BITMAP
000000
008000
008000
008000
008000
208200
208200
208200
208200
208200
208200
208200
208200
208200
3ffe00
200200
200200
000000
000000
ENDCHAR
STARTCHAR 4455
ENCODING 17493
SWIDTH 666 0
DWIDTH 18 0
BBX 18 19 0 -1
BITMAP
000000
000200
100200
108200
108200
108200
108200
108200
108200
108200
108200
108200
108200
208200
200200
200200
400200
000000
000000
ENDCHAR
STARTCHAR 4456
ENCODING 17494
SWIDTH 666 0
DWIDTH 18 0
BBX 18 19 0 -1
BITMAP
000000
000000
000000
3ffe00
008000
008000
008000
008000
008000
008000
008000
008000
008000
008000
7fff00
000000
000000
000000
000000
ENDCHAR
STARTCHAR 4457
ENCODING 17495
SWIDTH 666 0
DWIDTH 18 0
BBX 18 19 0 -1
BITMAP
000000
000000
3ffc00
000400
000400
000400
000400
1ffc00
100400
100000
100000
100000
100200
100200
100200
0ffc00
000000
000000
000000
ENDCHAR
STARTCHAR 4458
ENCODING 17496
SWIDTH 666 0
DWIDTH 18 0
BBX 18 19 0 -1
BITMAP
000000
000000
3ffc00
000400
000400
000400
100400
1ffc00
100400
100000
100000
100000
100200
100200
100200
0ffc00
000000
000000
000000
ENDCHAR
STARTCHAR 4459
ENCODING 17497
SWIDTH 666 0
DWIDTH 18 0
BBX 18 19 0 -1
BITMAP
000000
000000
1ffe00
100200
100200
100200
100200
1ffe00
100200
100000
100000
100000
100100
100100
100100
0ffe00
000000
000000
000000
ENDCHAR
STARTCHAR 445a
ENCODING 17498
SWIDTH 666 0
DWIDTH 18 0
BBX 18 19 0 -1
BITMAP
000000
008000
008000
008000
3ffe00
208200
208200
208200
208200
208200
208200
208200
209e00
008000
008000
008000
008000
000000
000000
ENDCHAR
STARTCHAR 445b
ENCODING 17499
SWIDTH 666 0
DWIDTH 18 0
BBX 18 19 0 -1
BITMAP
000000
000000
3ffe00
008000
008000
008000
008000
008000
7fff00
008000
008000
008000
008000
008000
008000
008000
008000
000000
000000
ENDCHAR
STARTCHAR 445c
ENCODING 17500
SWIDTH 666 0
DWIDTH 18 0
BBX 18 19 0 -1
BITMAP
000000
041000
041000
041000
041000
041000
041000
7fff00
041000
041000
081000
081000
081000
101000
101000
201000
401000
000000
000000
ENDCHAR
STARTCHAR 445d
ENCODING 17501
SWIDTH 666 0
DWIDTH 18 0
BBX 18 19 0 -1
BITMAP
000000
004800
004400
004200
004000
7fff00
004000
004000
002000
002000
002000
001000
001000
000900
000500
000300
000100
000000
000000
ENDCHAR
STARTCHAR 445e
ENCODING 17502
SWIDTH 666 0
DWIDTH 18 0
BBX 18 19 0 -1
BITMAP
000000
000000
3ffc00
000400
000400
000400
1ffc00
100000
100000
200000
3ffe00
400200
000200
000200
000400
000400
00f800
000000
000000
ENDCHAR
STARTCHAR 445f
ENCODING 17503
SWIDTH 666 0
DWIDTH 18 0
BBX 18 19 0 -1
BITMAP
000000
004000
004000
004000
004000
7fff00
004000
00c000
00c000
014000
024000
044000
084000
104000
604000
004000
03c000
000000
000000
ENDCHAR
STARTCHAR 4460
ENCODING 17504
SWIDTH 666 0
DWIDTH 18 0
BBX 18 19 0 -1
BITMAP
000000
000000
3ff800
020800
020800
020800
020800
040800
7fff00
041000
041000
041000
081000
081000
081000
7fff00
000000
000000
000000
ENDCHAR
STARTCHAR 4461
ENCODING 17505
SWIDTH 666 0
DWIDTH 18 0
BBX 18 19 0 -1
BITMAP
000000
000000
7ffe00
010000
010000
21fc00
210000
210000
210000
3ffe00
200200
000200
000200
000400
000400
000800
007800
000000
000000
ENDCHAR
STARTCHAR 4462
ENCODING 17506
SWIDTH 666 0
DWIDTH 18 0
BBX 18 19 0 -1
BITMAP
000000
000000
000000
7fff00
002000
004000
008000
01a000
029000
0c8c00
108200
608100
008000
008000
008000
008000
008000
000000
000000
ENDCHAR
STARTCHAR 4463
ENCODING 17507
SWIDTH 666 0
DWIDTH 18 0
BBX 18 19 0 -1
BITMAP
000000
008000
008000
008000
008000
3ffe00
208200
208200
208200
208200
3ffe00
208200
008000
008000
008000
008000
008000
000000
000000
ENDCHAR
STARTCHAR 4464
ENCODING 17508
SWIDTH 666 0
DWIDTH 18 0
BBX 18 19 0 -1
BITMAP
000000
008000
008000
008000
3ffe00
008000
008000
008000
1ffc00
008000
008000
008000
7fff00
008000
008000
008000
008000
000000
000000
ENDCHAR
STARTCHAR 4465
ENCODING 17509
SWIDTH 666 0
DWIDTH 18 0
BBX 18 19 0 -1
BITMAP
000000
000000
0ffc00
080400
090400
088400
088400
084400
080400
7fff00
080400
080400
100400
100400
100400
200400
403c00
000000
000000
ENDCHAR
STARTCHAR 4466
ENCODING 17510
SWIDTH 666 0
DWIDTH 18 0
BBX 18 19 0 -1
BITMAP
000000
010000
008000
008000
3ffc00
000800
001000
002000
004000
008000
010000
020000
040000
180000
260000
61ff00
000000
000000
000000
ENDCHAR
STARTCHAR 4467
ENCODING 17511
SWIDTH 666 0
DWIDTH 18 0
BBX 18 19 0 -1
BITMAP
000000
000000
1ffc00
008400
008400
008400
7fff00
008400
008400
008400
1ffc00
008000
008000
010000
010000
060000
380000
000000
000000
ENDCHAR
STARTCHAR 4468
ENCODING 17512
SWIDTH 666 0
DWIDTH 18 0
BBX 18 19 0 -1
BITMAP
000000
000000
1ff800
001000
042000
034000
008000
7fff00
008200
008400
008800
008000
008000
008000
008000
008000
078000
000000
000000
ENDCHAR
STARTCHAR 4469
ENCODING 17513
SWIDTH 666 0
DWIDTH 18 0
BBX 18 19 0 -1
BITMAP
000000
000000
1ffc00
000000
000000
000000
000000
7fff00
010000
010000
020000
020800
020800
040400
047c00
3f8200
000200
000000
000000
ENDCHAR
STARTCHAR 446a
ENCODING 17514
SWIDTH 666 0
DWIDTH 18 0
BBX 18 19 0 -1
BITMAP
000000
041000
041000
041000
041000
3ffe00
041000
041000
041000
041000
7fff00
041000
041000
081000
081000
101000
201000
000000
000000
ENDCHAR
STARTCHAR 446b
ENCODING 17515
SWIDTH 666 0
DWIDTH 18 0
BBX 18 19 0 -1
BITMAP
000000
000000
3ffe00
020000
020000
040000
07f800
040800
080800
081000
081000
1ff000
101000
002000
002000
7fff00
000000
000000
000000
ENDCHAR
STARTCHAR 446c
ENCODING 17516
SWIDTH 666 0
DWIDTH 18 0
BBX 18 19 0 -1
BITMAP
000000
000000
000000
3ffe00
008000
008000
010000
010000
1ff000
021000
021000
021000
041000
041000
7fff00
000000
000000
000000
000000
ENDCHAR
STARTCHAR 446d
ENCODING 17517
SWIDTH 666 0
DWIDTH 18 0
BBX 18 19 0 -1
BITMAP
000000
008000
008000
008000
7fff00
000000
000000
07e000
042000
042000
042000
042000
042000
082100
082100
102100
601f00
000000
000000
ENDCHAR
STARTCHAR 446e
ENCODING 17518
SWIDTH 666 0
DWIDTH 18 0
BBX 18 19 0 -1
BITMAP
000000
040000
080000
080000
11fe00
100000
300000
300000
500000
100000
100000
100000
100000
100000
13ff00
100000
100000
000000
000000
ENDCHAR
STARTCHAR 446f
ENCODING 17519
SWIDTH 666 0
DWIDTH 18 0
BBX 18 19 0 -1
BITMAP
000000
021000
021000
041000
041000
081000
081000
19ff00
281000
481000
081000
081000
081000
081000
081000
081000
081000
000000
000000
ENDCHAR
STARTCHAR 4470
ENCODING 17520
SWIDTH 666 0
DWIDTH 18 0
BBX 18 19 0 -1
BITMAP
000000
080000
100000
23ff00
501000
101000
101000
101000
101000
101000
101000
101000
101000
101000
101000
109000
107000
000000
000000
ENDCHAR
STARTCHAR 4471
ENCODING 17521
SWIDTH 666 0
DWIDTH 18 0
BBX 18 19 0 -1
BITMAP
000000
022000
022000
042000
042000
082000
082000
182000
283000
482c00
082200
082100
082000
082000
082000
082000
082000
000000
000000
ENDCHAR
STARTCHAR 4472
ENCODING 17522
SWIDTH 666 0
DWIDTH 18 0
BBX 18 19 0 -1
BITMAP
000000
048000
088000
088000
108000
17f800
308800
308800
508800
108800
108800
110800
110800
110900
110900
120f00
140000
000000
000000
ENDCHAR
STARTCHAR 4473
ENCODING 17523
SWIDTH 666 0
DWIDTH 18 0
BBX 18 19 0 -1
BITMAP
000000
040000
0bfc00
084400
104400
104400
304400
304400
504700
104100
108100
108100
108100
110100
110100
120200
140e00
000000
000000
ENDCHAR
STARTCHAR 4474
ENCODING 17524
SWIDTH 666 0
DWIDTH 18 0
BBX 18 19 0 -1
BITMAP
000000
008000
014000
022000
041000
080800
37f600
400100
000000
000000
1ffc00
000400
000800
001000
002000
00c000
030000
000000
000000
ENDCHAR
STARTCHAR 4475
ENCODING 17525
SWIDTH 666 0
DWIDTH 18 0
BBX 18 19 0 -1
BITMAP
000000
008000
018000
014000
022000
041000
080800
300600
441100
041000
041000
041000
041000
081000
081000
101000
201000
000000
000000
ENDCHAR
STARTCHAR 4476
ENCODING 17526
SWIDTH 666 0
DWIDTH 18 0
BBX 18 19 0 -1
BITMAP
000000
000000
1fff00
100000
104000
104000
104000
104000
10a000
10a000
10a000
111000
211000
220800
220800
440400
080200
000000
000000
ENDCHAR
STARTCHAR 4477
ENCODING 17527
SWIDTH 666 0
DWIDTH 18 0
BBX 18 19 0 -1
BITMAP
000000
000000
1ffc00
000000
000000
000000
000000
7fff00
022000
022000
022000
042000
042100
082100
102100
201f00
400000
000000
000000
ENDCHAR
STARTCHAR 4478
ENCODING 17528
SWIDTH 666 0
DWIDTH 18 0
BBX 18 19 0 -1
BITMAP
000000
008000
008000
011000
020800
020400
047c00
3fa200
022100
022000
022000
022000
042000
042100
082100
101f00
200000
000000
000000
ENDCHAR
STARTCHAR 4479
ENCODING 17529
SWIDTH 666 0
DWIDTH 18 0
BBX 18 19 0 -1
BITMAP
000000
018000
008000
008000
3ffe00
208200
208200
214200
214200
222200
241200
280a00
200200
200200
200200
200200
200e00
000000
000000
ENDCHAR
STARTCHAR 447a
ENCODING 17530
SWIDTH 666 0
DWIDTH 18 0
BBX 18 19 0 -1
BITMAP
000000
010000
008000
008000
008000
7fff00
000000
000000
000000
041000
040800
080400
080400
100200
200200
000000
000000
000000
000000
ENDCHAR
STARTCHAR 447b
ENCODING 17531
SWIDTH 666 0
DWIDTH 18 0
BBX 18 19 0 -1
BITMAP
000000
03f000
001000
080800
100400
200200
4ff900
020000
020000
040000
07f800
080800
000800
000800
001000
001000
00f000
000000
000000
ENDCHAR
STARTCHAR 447c
ENCODING 17532
SWIDTH 666 0
DWIDTH 18 0
BBX 18 19 0 -1
BITMAP
000000
000000
022000
022000
041000
080800
080800
110400
210200
410100
021000
020800
020800
040400
04fc00
3f0200
000200
000000
000000
ENDCHAR
STARTCHAR 447d
ENCODING 17533
SWIDTH 666 0
DWIDTH 18 0
BBX 18 19 0 -1
BITMAP
000000
000000
3ffe00
200200
200200
200200
07e000
042000
042000
042000
042000
042000
042000
082100
082100
101f00
600000
000000
000000
ENDCHAR
STARTCHAR 447e
ENCODING 17534
SWIDTH 666 0
DWIDTH 18 0
BBX 18 19 0 -1
BITMAP
000000
000000
402200
402200
482200
444200
424200
418200
408200
414200
424200
442200
482200
500200
400200
7ffe00
400200
000000
000000
ENDCHAR
STARTCHAR 4521
ENCODING 17697
SWIDTH 666 0
DWIDTH 18 0
BBX 18 19 0 -1
BITMAP
000000
00e000
022000
041000
080800
080800
100400
200200
5ff900
020800
020800
020800
040800
040800
081000
101000
20f000
000000
000000
ENDCHAR
STARTCHAR 4522
ENCODING 17698
SWIDTH 666 0
DWIDTH 18 0
BBX 18 19 0 -1
BITMAP
000000
100000
10ff00
101100
101100
101100
7f1100
101100
101100
101100
102100
112100
162100
184100
004200
008200
010e00
000000
000000
ENDCHAR
STARTCHAR 4523
ENCODING 17699
SWIDTH 666 0
DWIDTH 18 0
BBX 18 19 0 -1
BITMAP
000000
010100
011100
011100
011100
221100
121100
0a1100
061100
021100
051100
051100
088100
088100
100100
200100
400700
000000
000000
ENDCHAR
STARTCHAR 4524
ENCODING 17700
SWIDTH 666 0
DWIDTH 18 0
BBX 18 19 0 -1
BITMAP
000000
040000
040000
080000
0ffe00
100200
100200
200200
47e200
000200
000200
000200
0ff200
000200
000400
000400
003c00
000000
000000
ENDCHAR
STARTCHAR 4525
ENCODING 17701
SWIDTH 666 0
DWIDTH 18 0
BBX 18 19 0 -1
BITMAP
000000
040000
040000
080000
0fff00
100100
110100
210100
420100
024100
042100
04e100
1f1100
000100
000200
000200
001e00
000000
000000
ENDCHAR
STARTCHAR 4526
ENCODING 17702
SWIDTH 666 0
DWIDTH 18 0
BBX 18 19 0 -1
BITMAP
000000
040000
080000
0ffe00
111200
211200
422200
022200
042200
084200
104200
208200
010200
020200
040400
080400
003c00
000000
000000
ENDCHAR
STARTCHAR 4527
ENCODING 17703
SWIDTH 666 0
DWIDTH 18 0
BBX 18 19 0 -1
BITMAP
000000
024000
024000
044000
044000
084300
184c00
187000
284000
484000
084000
084000
084100
084100
084100
083f00
080000
000000
000000
ENDCHAR
STARTCHAR 4528
ENCODING 17704
SWIDTH 666 0
DWIDTH 18 0
BBX 18 19 0 -1
BITMAP
000000
000000
000000
3fff00
212000
212000
212000
212000
222000
222000
242000
281e00
200000
200000
200000
1fff00
000000
000000
000000
ENDCHAR
STARTCHAR 4529
ENCODING 17705
SWIDTH 666 0
DWIDTH 18 0
BBX 18 19 0 -1
BITMAP
000000
080000
080000
0ffc00
108000
108000
208000
008000
008000
7fff00
008000
008000
008000
008000
008000
008000
008000
000000
000000
ENDCHAR
STARTCHAR 452a
ENCODING 17706
SWIDTH 666 0
DWIDTH 18 0
BBX 18 19 0 -1
BITMAP
000000
001000
039000
3c1000
041000
041000
041000
041000
7fff00
041000
041000
081000
081000
081000
101000
201000
401000
000000
000000
ENDCHAR
STARTCHAR 452b
ENCODING 17707
SWIDTH 666 0
DWIDTH 18 0
BBX 18 19 0 -1
BITMAP
000000
080400
088400
088400
088400
088400
088400
7fff00
088400
088400
088400
088400
108400
108400
108400
208400
400400
000000
000000
ENDCHAR
STARTCHAR 452c
ENCODING 17708
SWIDTH 666 0
DWIDTH 18 0
BBX 18 19 0 -1
BITMAP
000000
020000
010000
008000
7fff00
010000
010000
018000
016000
011000
010800
010400
010000
010000
010000
010000
010000
000000
000000
ENDCHAR
STARTCHAR 452d
ENCODING 17709
SWIDTH 666 0
DWIDTH 18 0
BBX 18 19 0 -1
BITMAP
000000
000000
1fff00
100000
100000
13fc00
120400
120400
120400
120400
123800
120000
120000
220100
220100
41ff00
000000
000000
000000
ENDCHAR
STARTCHAR 452e
ENCODING 17710
SWIDTH 666 0
DWIDTH 18 0
BBX 18 19 0 -1
BITMAP
000000
010000
010000
010000
7fff00
020000
020000
020000
07f800
060800
091000
091000
10a000
204000
40a000
031800
1c0700
000000
000000
ENDCHAR
STARTCHAR 452f
ENCODING 17711
SWIDTH 666 0
DWIDTH 18 0
BBX 18 19 0 -1
BITMAP
000000
000000
3ff800
041000
041000
042000
042000
067e00
064400
090400
090800
088800
105000
102000
205000
418c00
0e0300
000000
000000
ENDCHAR
STARTCHAR 4530
ENCODING 17712
SWIDTH 666 0
DWIDTH 18 0
BBX 18 19 0 -1
BITMAP
000000
000000
003e00
1fc000
100000
100000
1ffe00
120400
120400
110800
110800
109000
206000
206000
209000
430c00
0c0300
000000
000000
ENDCHAR
STARTCHAR 4531
ENCODING 17713
SWIDTH 666 0
DWIDTH 18 0
BBX 18 19 0 -1
BITMAP
000000
000000
000000
3ffe00
008000
008000
008000
008000
7fff00
008000
008000
008000
008000
008000
008000
3ffe00
000000
000000
000000
ENDCHAR
STARTCHAR 4532
ENCODING 17714
SWIDTH 666 0
DWIDTH 18 0
BBX 18 19 0 -1
BITMAP
000000
000000
000000
7fff00
008000
008000
008000
008000
3ffe00
008000
014000
014000
022000
041000
080800
300600
400100
000000
000000
ENDCHAR
STARTCHAR 4533
ENCODING 17715
SWIDTH 666 0
DWIDTH 18 0
BBX 18 19 0 -1
BITMAP
000000
008000
008000
008000
1ffc00
008000
008000
008000
7fff00
008000
014000
014000
022000
041000
080800
300600
400100
000000
000000
ENDCHAR
STARTCHAR 4534
ENCODING 17716
SWIDTH 666 0
DWIDTH 18 0
BBX 18 19 0 -1
BITMAP
000000
008000
008000
008000
008000
7fff00
008000
014000
014000
022000
022000
041000
061000
090800
110400
208200
400100
000000
000000
ENDCHAR
STARTCHAR 4535
ENCODING 17717
SWIDTH 666 0
DWIDTH 18 0
BBX 18 19 0 -1
BITMAP
000000
000000
00fc00
1f8000
008000
008000
008000
008000
7fff00
014000
014000
022000
022000
041000
080800
100400
600300
000000
000000
ENDCHAR
STARTCHAR 4536
ENCODING 17718
SWIDTH 666 0
DWIDTH 18 0
BBX 18 19 0 -1
BITMAP
000000
002000
3fa000
012000
022000
042000
042000
05a000
0e2000
742000
042000
042000
042000
042000
042100
042100
1c1f00
000000
000000
ENDCHAR
STARTCHAR 4537
ENCODING 17719
SWIDTH 666 0
DWIDTH 18 0
BBX 18 19 0 -1
BITMAP
000000
008000
008000
008000
088800
088400
108200
108100
208800
409000
00a000
00c000
008000
010000
020000
0c0000
300000
000000
000000
ENDCHAR
STARTCHAR 4538
ENCODING 17720
SWIDTH 666 0
DWIDTH 18 0
BBX 18 19 0 -1
BITMAP
000000
009000
008800
008400
008000
7fff00
008000
008000
014000
014000
014000
024000
024000
044000
084100
304100
403f00
000000
000000
ENDCHAR
STARTCHAR 4539
ENCODING 17721
SWIDTH 666 0
DWIDTH 18 0
BBX 18 19 0 -1
BITMAP
000000
000000
0ffe00
080200
080200
080200
080200
0ffe00
084200
084000
082000
082000
081000
100800
100400
200200
400100
000000
000000
ENDCHAR
STARTCHAR 453a
ENCODING 17722
SWIDTH 666 0
DWIDTH 18 0
BBX 18 19 0 -1
BITMAP
000000
010000
010000
010000
7ffe00
010000
010000
210400
210400
210400
3ffc00
210400
010000
010200
010200
00fe00
000000
000000
000000
ENDCHAR
STARTCHAR 453b
ENCODING 17723
SWIDTH 666 0
DWIDTH 18 0
BBX 18 19 0 -1
BITMAP
000000
000000
3ffe00
208200
208200
208200
208200
3ffe00
200200
200000
200000
200000
200100
200100
200100
1ffe00
000000
000000
000000
ENDCHAR
STARTCHAR 453c
ENCODING 17724
SWIDTH 666 0
DWIDTH 18 0
BBX 18 19 0 -1
BITMAP
000000
020000
027f00
040100
440100
284100
188100
090100
050100
020100
040100
048100
084100
13c100
7c2200
000200
001e00
000000
000000
ENDCHAR
STARTCHAR 453d
ENCODING 17725
SWIDTH 666 0
DWIDTH 18 0
BBX 18 19 0 -1
BITMAP
000000
080800
080800
080800
080800
7fff00
080800
080800
080800
080800
080800
080800
080800
080800
080800
0ff800
080800
000000
000000
ENDCHAR
STARTCHAR 453e
ENCODING 17726
SWIDTH 666 0
DWIDTH 18 0
BBX 18 19 0 -1
BITMAP
000000
000000
3ffe00
008200
008200
008200
3ffe00
208000
208000
408000
7fff00
408100
008100
008200
008200
008e00
008000
000000
000000
ENDCHAR
STARTCHAR 453f
ENCODING 17727
SWIDTH 666 0
DWIDTH 18 0
BBX 18 19 0 -1
BITMAP
000000
000400
7f0400
010400
010400
010400
3f0400
200400
200400
7f0400
410400
010400
010400
010400
020400
020400
1e0400
000000
000000
ENDCHAR
STARTCHAR 4540
ENCODING 17728
SWIDTH 666 0
DWIDTH 18 0
BBX 18 19 0 -1
BITMAP
000000
020000
018000
004000
000000
020000
020400
120200
120200
120100
220100
220000
420800
020800
020800
01f800
000000
000000
000000
ENDCHAR
STARTCHAR 4541
ENCODING 17729
SWIDTH 666 0
DWIDTH 18 0
BBX 18 19 0 -1
BITMAP
000000
009000
008800
008400
008000
7fff00
008000
008400
008800
004800
005000
002000
002000
005000
018900
060500
180300
000000
000000
ENDCHAR
STARTCHAR 4542
ENCODING 17730
SWIDTH 666 0
DWIDTH 18 0
BBX 18 19 0 -1
BITMAP
000000
000000
000f00
01f000
3e0000
0ffe00
080200
080200
080200
0ffe00
080200
080000
080000
080000
100000
100000
200000
000000
000000
ENDCHAR
STARTCHAR 4543
ENCODING 17731
SWIDTH 666 0
DWIDTH 18 0
BBX 18 19 0 -1
BITMAP
000000
000000
00f800
1f8000
008000
008000
3ffe00
008000
008000
008000
7fff00
008000
008000
008000
008000
008000
038000
000000
000000
ENDCHAR
STARTCHAR 4544
ENCODING 17732
SWIDTH 666 0
DWIDTH 18 0
BBX 18 19 0 -1
BITMAP
000000
084000
084000
084000
7f4000
084000
084000
084000
084000
0b4000
1c4000
684000
084000
084100
084100
084100
383f00
000000
000000
ENDCHAR
STARTCHAR 4545
ENCODING 17733
SWIDTH 666 0
DWIDTH 18 0
BBX 18 19 0 -1
BITMAP
000000
008000
008000
008000
7fff00
008000
008000
008000
1ff800
040800
021000
022000
014000
008000
036000
0c1800
700700
000000
000000
ENDCHAR
STARTCHAR 4546
ENCODING 17734
SWIDTH 666 0
DWIDTH 18 0
BBX 18 19 0 -1
BITMAP
000000
010000
008000
008000
008000
7fff00
080800
041000
041000
022000
022000
014000
008000
014000
063000
180c00
600300
000000
000000
ENDCHAR
STARTCHAR 4547
ENCODING 17735
SWIDTH 666 0
DWIDTH 18 0
BBX 18 19 0 -1
BITMAP
000000
002000
042000
022000
012000
002000
102000
082000
042000
002000
002f00
03f000
7c2000
002000
002000
002000
002000
000000
000000
ENDCHAR
STARTCHAR 4548
ENCODING 17736
SWIDTH 666 0
DWIDTH 18 0
BBX 18 19 0 -1
BITMAP
000000
000000
101e00
1fe000
100000
100000
100000
1fff00
104000
104000
104000
104000
104000
204000
204000
404000
004000
000000
000000
ENDCHAR
STARTCHAR 4549
ENCODING 17737
SWIDTH 666 0
DWIDTH 18 0
BBX 18 19 0 -1
BITMAP
000000
010000
008000
008000
7fff00
020000
020000
020000
03f800
020800
020800
040800
040800
080800
100800
201000
40f000
000000
000000
ENDCHAR
STARTCHAR 454a
ENCODING 17738
SWIDTH 666 0
DWIDTH 18 0
BBX 18 19 0 -1
BITMAP
000000
000000
000000
0ff800
080800
080800
080800
080800
080800
0ff800
080800
080800
080800
080800
080800
0ff800
080800
000000
000000
ENDCHAR
STARTCHAR 454b
ENCODING 17739
SWIDTH 666 0
DWIDTH 18 0
BBX 18 19 0 -1
BITMAP
000000
000000
000000
3ffe00
200200
200200
200200
200200
3ffe00
200200
200200
200200
200200
3ffe00
200200
000000
000000
000000
000000
ENDCHAR
STARTCHAR 454c
ENCODING 17740
SWIDTH 666 0
DWIDTH 18 0
BBX 18 19 0 -1
BITMAP
000000
000000
0ffc00
080400
080400
080400
0ffc00
080400
080400
080400
0ffc00
080400
080400
080400
100400
100400
201c00
000000
000000
ENDCHAR
STARTCHAR 454d
ENCODING 17741
SWIDTH 666 0
DWIDTH 18 0
BBX 18 19 0 -1
BITMAP
000000
008000
008000
008000
008000
7fff00
01c000
02a000
02a000
049000
088800
088800
108400
208200
408100
008000
008000
000000
000000
ENDCHAR
STARTCHAR 454e
ENCODING 17742
SWIDTH 666 0
DWIDTH 18 0
BBX 18 19 0 -1
BITMAP
000000
020000
020000
040000
07fe00
080200
088400
108400
208800
008000
008000
014000
014000
022000
041000
180c00
600300
000000
000000
ENDCHAR
STARTCHAR 454f
ENCODING 17743
SWIDTH 666 0
DWIDTH 18 0
BBX 18 19 0 -1
BITMAP
000000
008000
008000
008000
008000
008000
088000
08fc00
088000
088000
088000
088000
088000
088000
088000
7fff00
000000
000000
000000
ENDCHAR
STARTCHAR 4550
ENCODING 17744
SWIDTH 666 0
DWIDTH 18 0
BBX 18 19 0 -1
BITMAP
000000
000000
7fff00
010000
010000
020000
03fc00
040800
080800
141000
231000
00a000
004000
008000
010000
060000
180000
000000
000000
ENDCHAR
STARTCHAR 4551
ENCODING 17745
SWIDTH 666 0
DWIDTH 18 0
BBX 18 19 0 -1
BITMAP
000000
000000
0ffe00
084200
084200
084200
084200
3fff00
108200
108200
108200
108200
108200
108200
1fff00
010200
020e00
000000
000000
ENDCHAR
STARTCHAR 4552
ENCODING 17746
SWIDTH 666 0
DWIDTH 18 0
BBX 18 19 0 -1
BITMAP
000000
004000
204000
204000
204000
204300
3f4c00
207000
204000
204000
204000
204000
204100
204100
274100
383f00
000000
000000
000000
ENDCHAR
STARTCHAR 4553
ENCODING 17747
SWIDTH 666 0
DWIDTH 18 0
BBX 18 19 0 -1
BITMAP
000000
000c00
00f000
1f0000
010000
010000
01fe00
3f0000
010000
010000
01ff00
7f0000
010000
010000
010100
010100
00ff00
000000
000000
ENDCHAR
STARTCHAR 4554
ENCODING 17748
SWIDTH 666 0
DWIDTH 18 0
BBX 18 19 0 -1
BITMAP
000000
000000
10fc00
1f4000
104000
104000
104000
104000
1fff00
102000
102000
101000
101000
118900
1e0500
700300
000100
000000
000000
ENDCHAR
STARTCHAR 4555
ENCODING 17749
SWIDTH 666 0
DWIDTH 18 0
BBX 18 19 0 -1
BITMAP
000000
008000
008000
008000
008000
00c200
7ecc00
02d000
04a000
049000
089000
088800
108400
208200
408100
008000
038000
000000
000000
ENDCHAR
STARTCHAR 4556
ENCODING 17750
SWIDTH 666 0
DWIDTH 18 0
BBX 18 19 0 -1
BITMAP
000000
008000
008000
008000
008200
088200
088400
088400
108800
118000
014000
014000
022000
021000
040800
180600
600100
000000
000000
ENDCHAR
STARTCHAR 4557
ENCODING 17751
SWIDTH 666 0
DWIDTH 18 0
BBX 18 19 0 -1
BITMAP
000000
000c00
08f800
0f8800
088800
088800
088800
088800
088800
088800
088800
088400
108400
108400
108200
208200
400100
000000
000000
ENDCHAR
STARTCHAR 4558
ENCODING 17752
SWIDTH 666 0
DWIDTH 18 0
BBX 18 19 0 -1
BITMAP
000000
022000
041000
080800
100400
200200
041000
041000
022000
022000
014000
008000
014000
022000
041000
180c00
600300
000000
000000
ENDCHAR
STARTCHAR 4559
ENCODING 17753
SWIDTH 666 0
DWIDTH 18 0
BBX 18 19 0 -1
BITMAP
000000
000800
1c1000
03a000
004000
01b000
060800
380400
000000
080800
041000
022000
014000
00c000
032000
0c1800
700700
000000
000000
ENDCHAR
STARTCHAR 455a
ENCODING 17754
SWIDTH 666 0
DWIDTH 18 0
BBX 18 19 0 -1
BITMAP
000000
080800
080800
080800
080800
0ff800
080000
080000
080000
0ff800
080800
080800
100800
100800
200800
400800
000800
000000
000000
ENDCHAR
STARTCHAR 455b
ENCODING 17755
SWIDTH 666 0
DWIDTH 18 0
BBX 18 19 0 -1
BITMAP
000000
000000
1ffe00
001000
041000
041000
081000
081000
1fff00
105000
009000
011000
021000
041000
181000
601000
00f000
000000
000000
ENDCHAR
STARTCHAR 455c
ENCODING 17756
SWIDTH 666 0
DWIDTH 18 0
BBX 18 19 0 -1
BITMAP
000000
008000
048000
088000
088000
1ffc00
108000
208000
408000
008000
7fff00
008000
008000
008000
008000
008000
008000
000000
000000
ENDCHAR
STARTCHAR 455d
ENCODING 17757
SWIDTH 666 0
DWIDTH 18 0
BBX 18 19 0 -1
BITMAP
000000
008000
009000
008800
008400
008000
7fff00
008000
014000
014000
022000
022000
041000
041000
080800
100400
600300
000000
000000
ENDCHAR
STARTCHAR 455e
ENCODING 17758
SWIDTH 666 0
DWIDTH 18 0
BBX 18 19 0 -1
BITMAP
000000
000000
3ffe00
008000
008000
008000
008000
008000
1ffc00
008000
008000
008000
008000
008000
008000
7fff00
000000
000000
000000
ENDCHAR
STARTCHAR 455f
ENCODING 17759
SWIDTH 666 0
DWIDTH 18 0
BBX 18 19 0 -1
BITMAP
000000
000000
7fff00
008000
008000
3ffe00
208200
208200
208200
214200
222200
241200
280a00
200200
200200
200200
201e00
000000
000000
ENDCHAR
STARTCHAR 4560
ENCODING 17760
SWIDTH 666 0
DWIDTH 18 0
BBX 18 19 0 -1
BITMAP
000000
008800
088800
088800
088800
088800
7fff00
088800
088800
088800
088800
08f800
080000
080000
080000
07fe00
000000
000000
000000
ENDCHAR
STARTCHAR 4561
ENCODING 17761
SWIDTH 666 0
DWIDTH 18 0
BBX 18 19 0 -1
BITMAP
000000
000000
3ffe00
004000
008000
01c000
02b000
0c8c00
108200
608100
008000
008000
008000
008000
000000
7fff00
000000
000000
000000
ENDCHAR
STARTCHAR 4562
ENCODING 17762
SWIDTH 666 0
DWIDTH 18 0
BBX 18 19 0 -1
BITMAP
000000
000000
0ff800
080800
080800
080800
0ff800
080800
080800
080800
0ff800
080800
080800
080800
080800
7fff00
000000
000000
000000
ENDCHAR
STARTCHAR 4563
ENCODING 17763
SWIDTH 666 0
DWIDTH 18 0
BBX 18 19 0 -1
BITMAP
000000
000800
087000
0f8000
080000
080000
080000
0ffe00
082000
082000
082000
082000
082000
082000
082000
7fff00
000000
000000
000000
ENDCHAR
STARTCHAR 4564
ENCODING 17764
SWIDTH 666 0
DWIDTH 18 0
BBX 18 19 0 -1
BITMAP
000000
030000
00c000
000000
3ffe00
008000
008000
008000
008000
1ffc00
008000
008000
008000
008000
008000
7fff00
000000
000000
000000
ENDCHAR
STARTCHAR 4565
ENCODING 17765
SWIDTH 666 0
DWIDTH 18 0
BBX 18 19 0 -1
BITMAP
000000
020000
040000
040000
0fff00
088000
108000
208000
40fe00
008000
008000
008000
00fe00
008000
008000
008000
008000
000000
000000
ENDCHAR
STARTCHAR 4566
ENCODING 17766
SWIDTH 666 0
DWIDTH 18 0
BBX 18 19 0 -1
BITMAP
000000
000c00
00f000
3f8000
008000
008000
3ffe00
000400
000800
001000
006000
008000
030000
1c0000
260000
21ff00
400000
000000
000000
ENDCHAR
STARTCHAR 4567
ENCODING 17767
SWIDTH 666 0
DWIDTH 18 0
BBX 18 19 0 -1
BITMAP
000000
000000
00fe00
3f8000
008000
108400
088800
049000
008000
7fff00
008000
008000
008000
008000
008000
008000
038000
000000
000000
ENDCHAR
STARTCHAR 4568
ENCODING 17768
SWIDTH 666 0
DWIDTH 18 0
BBX 18 19 0 -1
BITMAP
000000
000400
100400
100400
110400
108400
108400
104400
100400
100400
100400
110400
160c00
180a00
601200
006100
038100
000000
000000
ENDCHAR
STARTCHAR 4569
ENCODING 17769
SWIDTH 666 0
DWIDTH 18 0
BBX 18 19 0 -1
BITMAP
000000
040400
080400
080400
100400
13ff00
300400
300400
500400
110400
108400
104400
100400
100400
100400
100400
101c00
000000
000000
ENDCHAR
STARTCHAR 456a
ENCODING 17770
SWIDTH 666 0
DWIDTH 18 0
BBX 18 19 0 -1
BITMAP
000000
040000
09fe00
080400
100800
101000
301000
301000
53ff00
101000
101000
101000
101000
101000
101000
101000
107000
000000
000000
ENDCHAR
STARTCHAR 456b
ENCODING 17771
SWIDTH 666 0
DWIDTH 18 0
BBX 18 19 0 -1
BITMAP
000000
082000
082000
102000
102000
102000
302000
37ff00
502000
102000
102000
102000
102000
102000
102000
13fe00
100000
000000
000000
ENDCHAR
STARTCHAR 456c
ENCODING 17772
SWIDTH 666 0
DWIDTH 18 0
BBX 18 19 0 -1
BITMAP
000000
042000
082000
092000
112200
112e00
313200
31e200
512200
172200
112400
112000
110000
110100
110100
10ff00
100000
000000
000000
ENDCHAR
STARTCHAR 456d
ENCODING 17773
SWIDTH 666 0
DWIDTH 18 0
BBX 18 19 0 -1
BITMAP
000000
041000
081000
081000
101000
13ff00
301000
301000
511000
111000
10a000
10a000
104000
106000
109000
110c00
120300
000000
000000
ENDCHAR
STARTCHAR 456e
ENCODING 17774
SWIDTH 666 0
DWIDTH 18 0
BBX 18 19 0 -1
BITMAP
000000
044000
044800
084400
084200
104000
13ff00
302000
302000
502000
101000
101000
101000
100900
100900
100600
100200
000000
000000
ENDCHAR
STARTCHAR 456f
ENCODING 17775
SWIDTH 666 0
DWIDTH 18 0
BBX 18 19 0 -1
BITMAP
000000
008000
014000
022000
041000
080800
37f600
400100
000000
1ffc00
000400
000800
011000
012000
00c000
008000
008000
000000
000000
ENDCHAR
STARTCHAR 4570
ENCODING 17776
SWIDTH 666 0
DWIDTH 18 0
BBX 18 19 0 -1
BITMAP
000000
042000
082000
082000
102000
122200
322200
322200
522200
122200
122200
122200
122200
122200
122200
13fe00
120200
000000
000000
ENDCHAR
STARTCHAR 4571
ENCODING 17777
SWIDTH 666 0
DWIDTH 18 0
BBX 18 19 0 -1
BITMAP
000000
040000
080000
0bfe00
104200
104200
304200
324200
514200
10c200
108200
108200
108200
108200
110400
110400
121c00
000000
000000
ENDCHAR
STARTCHAR 4572
ENCODING 17778
SWIDTH 666 0
DWIDTH 18 0
BBX 18 19 0 -1
BITMAP
000000
008000
008000
008000
7fff00
010000
021000
020800
047c00
3fa200
022000
022000
042000
042100
082100
101f00
200000
000000
000000
ENDCHAR
STARTCHAR 4573
ENCODING 17779
SWIDTH 666 0
DWIDTH 18 0
BBX 18 19 0 -1
BITMAP
000000
000000
0ffc00
080400
080400
080400
080400
0ffc00
092400
012000
012000
012000
022000
022100
042100
082100
301f00
000000
000000
ENDCHAR
STARTCHAR 4574
ENCODING 17780
SWIDTH 666 0
DWIDTH 18 0
BBX 18 19 0 -1
BITMAP
000000
008000
008000
1ffc00
108400
108400
108400
1ffc00
108400
108400
108400
7fff00
100400
100400
100400
100400
103c00
000000
000000
ENDCHAR
STARTCHAR 4575
ENCODING 17781
SWIDTH 666 0
DWIDTH 18 0
BBX 18 19 0 -1
BITMAP
000000
000000
1ffe00
112200
112200
112200
112200
112200
7fff00
112200
112200
112200
112200
112200
212200
212200
400e00
000000
000000
ENDCHAR
STARTCHAR 4576
ENCODING 17782
SWIDTH 666 0
DWIDTH 18 0
BBX 18 19 0 -1
BITMAP
000000
010000
03f800
041000
0a2000
114000
208000
036000
041000
180c00
618300
006000
001000
060000
018000
006000
001000
000000
000000
ENDCHAR
STARTCHAR 4577
ENCODING 17783
SWIDTH 666 0
DWIDTH 18 0
BBX 18 19 0 -1
BITMAP
000000
000000
7c3e00
442200
442200
442200
442200
442200
47e200
442200
400200
400200
400200
400200
400200
7ffe00
400200
000000
000000
ENDCHAR
STARTCHAR 4578
ENCODING 17784
SWIDTH 666 0
DWIDTH 18 0
BBX 18 19 0 -1
BITMAP
000000
008000
008000
108400
108400
108400
108400
1ffc00
008000
008000
008000
208200
208200
208200
208200
3ffe00
200200
000000
000000
ENDCHAR
STARTCHAR 4579
ENCODING 17785
SWIDTH 666 0
DWIDTH 18 0
BBX 18 19 0 -1
BITMAP
000000
000000
07e000
042000
042000
042000
042000
042000
7c3e00
442200
400200
400200
400200
400200
400200
7ffe00
400200
000000
000000
ENDCHAR
STARTCHAR 457a
ENCODING 17786
SWIDTH 666 0
DWIDTH 18 0
BBX 18 19 0 -1
BITMAP
000000
000100
3f9100
041100
041100
041100
041100
041100
7f9100
041100
041100
041100
040100
040100
040100
040100
040700
000000
000000
ENDCHAR
STARTCHAR 457b
ENCODING 17787
SWIDTH 666 0
DWIDTH 18 0
BBX 18 19 0 -1
BITMAP
000000
080000
080000
083f00
7f2100
092100
092100
092100
092100
112100
112100
112100
112100
213f00
222100
4e2000
000000
000000
000000
ENDCHAR
STARTCHAR 457c
ENCODING 17788
SWIDTH 666 0
DWIDTH 18 0
BBX 18 19 0 -1
BITMAP
000000
001000
001000
001000
7f1000
081000
09ff00
081100
081100
081100
082100
0b2100
1c2100
604100
004200
008200
011e00
000000
000000
ENDCHAR
STARTCHAR 457d
ENCODING 17789
SWIDTH 666 0
DWIDTH 18 0
BBX 18 19 0 -1
BITMAP
000000
040000
080000
0ffe00
100200
100200
2fe200
482200
082200
0fe200
080200
081c00
080100
080100
080100
07fe00
000000
000000
000000
ENDCHAR
STARTCHAR 457e
ENCODING 17790
SWIDTH 666 0
DWIDTH 18 0
BBX 18 19 0 -1
BITMAP
000000
040000
040000
080000
0ffe00
111200
111200
222200
4a2200
064200
094200
08c200
10a200
211400
020400
040400
003c00
000000
000000
ENDCHAR
STARTCHAR 4621
ENCODING 17953
SWIDTH 666 0
DWIDTH 18 0
BBX 18 19 0 -1
BITMAP
000000
022000
022000
022000
022100
022600
7e3800
022000
022000
022000
022000
022000
022000
022100
0e2100
701f00
000000
000000
000000
ENDCHAR
STARTCHAR 4622
ENCODING 17954
SWIDTH 666 0
DWIDTH 18 0
BBX 18 19 0 -1
BITMAP
000000
000000
3fff00
200000
204000
204000
27fc00
244400
244400
244400
244400
245c00
204000
204000
200000
3fff00
200000
000000
000000
ENDCHAR
STARTCHAR 4623
ENCODING 17955
SWIDTH 666 0
DWIDTH 18 0
BBX 18 19 0 -1
BITMAP
000000
040000
083e00
0be000
102000
102000
302000
302000
57ff00
102000
102000
102000
102000
102000
102000
102000
102000
000000
000000
ENDCHAR
STARTCHAR 4624
ENCODING 17956
SWIDTH 666 0
DWIDTH 18 0
BBX 18 19 0 -1
BITMAP
000000
008000
108400
088800
049000
008000
3ffe00
008000
008000
008000
7fff00
008000
008000
008000
008000
008000
008000
000000
000000
ENDCHAR
STARTCHAR 4625
ENCODING 17957
SWIDTH 666 0
DWIDTH 18 0
BBX 18 19 0 -1
BITMAP
000000
008000
008000
008000
3ffe00
008000
008000
049000
041000
041000
7fff00
041000
041000
081000
081000
101000
601000
000000
000000
ENDCHAR
STARTCHAR 4626
ENCODING 17958
SWIDTH 666 0
DWIDTH 18 0
BBX 18 19 0 -1
BITMAP
000000
010000
010000
01f800
010000
010000
010000
7fff00
010000
018000
014000
012000
011000
010000
010000
010000
010000
000000
000000
ENDCHAR
STARTCHAR 4627
ENCODING 17959
SWIDTH 666 0
DWIDTH 18 0
BBX 18 19 0 -1
BITMAP
000000
010000
010000
010000
01fe00
010000
010000
010000
010000
1ffc00
100400
100400
100400
100400
100400
1ffc00
100400
000000
000000
ENDCHAR
STARTCHAR 4628
ENCODING 17960
SWIDTH 666 0
DWIDTH 18 0
BBX 18 19 0 -1
BITMAP
000000
010000
263f00
392100
212100
212100
212100
212100
212100
212100
212100
212100
2e2100
722f00
042000
082000
102000
000000
000000
ENDCHAR
STARTCHAR 4629
ENCODING 17961
SWIDTH 666 0
DWIDTH 18 0
BBX 18 19 0 -1
BITMAP
000000
10fe00
1f8000
100000
100000
1fff00
100000
100000
13fc00
120400
120400
123c00
220000
220100
220100
41ff00
000000
000000
000000
ENDCHAR
STARTCHAR 462a
ENCODING 17962
SWIDTH 666 0
DWIDTH 18 0
BBX 18 19 0 -1
BITMAP
000000
008000
008000
1ffc00
008000
008000
008000
008000
7fff00
010000
020000
021000
040800
040800
09f400
7e0400
000200
000000
000000
ENDCHAR
STARTCHAR 462b
ENCODING 17963
SWIDTH 666 0
DWIDTH 18 0
BBX 18 19 0 -1
BITMAP
000000
000000
7fff00
000800
000800
000800
1f8800
108800
108800
108800
108800
1f8800
100800
000800
000800
000800
007800
000000
000000
ENDCHAR
STARTCHAR 462c
ENCODING 17964
SWIDTH 666 0
DWIDTH 18 0
BBX 18 19 0 -1
BITMAP
000000
008000
008000
008000
008000
7fff00
008000
008000
008000
008000
1ffc00
100400
100400
100400
100400
1ffc00
100400
000000
000000
ENDCHAR
STARTCHAR 462d
ENCODING 17965
SWIDTH 666 0
DWIDTH 18 0
BBX 18 19 0 -1
BITMAP
000000
010000
010000
020000
7fff00
020000
040000
040000
080000
0ffc00
140400
240400
440400
040400
040400
07fc00
040400
000000
000000
ENDCHAR
STARTCHAR 462e
ENCODING 17966
SWIDTH 666 0
DWIDTH 18 0
BBX 18 19 0 -1
BITMAP
000000
000000
3ffe00
020200
020200
040200
040400
187c00
600000
000000
1ffc00
100400
100400
100400
100400
1ffc00
100400
000000
000000
ENDCHAR
STARTCHAR 462f
ENCODING 17967
SWIDTH 666 0
DWIDTH 18 0
BBX 18 19 0 -1
BITMAP
000000
000000
01ff00
000800
7c0800
440800
440800
440800
440800
440800
440800
440800
7c0800
400800
000800
000800
003800
000000
000000
ENDCHAR
STARTCHAR 4630
ENCODING 17968
SWIDTH 666 0
DWIDTH 18 0
BBX 18 19 0 -1
BITMAP
000000
000000
00fe00
7c4200
444200
444200
444200
444200
444200
444200
444200
444200
7c6400
405800
004000
004000
004000
000000
000000
ENDCHAR
STARTCHAR 4631
ENCODING 17969
SWIDTH 666 0
DWIDTH 18 0
BBX 18 19 0 -1
BITMAP
000000
000000
000000
01ff00
7c2100
442100
442100
442100
442100
442100
444100
444100
7c4100
408100
008200
010200
020e00
000000
000000
ENDCHAR
STARTCHAR 4632
ENCODING 17970
SWIDTH 666 0
DWIDTH 18 0
BBX 18 19 0 -1
BITMAP
000000
000000
000000
01ff00
7c0100
440100
441100
441100
442100
442100
444100
444100
7c8100
408100
000200
000200
000e00
000000
000000
ENDCHAR
STARTCHAR 4633
ENCODING 17971
SWIDTH 666 0
DWIDTH 18 0
BBX 18 19 0 -1
BITMAP
000000
000000
7ffe00
000200
000200
1ff200
000200
000200
0fe200
082200
082200
082200
0fe200
080200
000200
000200
001e00
000000
000000
ENDCHAR
STARTCHAR 4634
ENCODING 17972
SWIDTH 666 0
DWIDTH 18 0
BBX 18 19 0 -1
BITMAP
000000
000000
7fff00
200000
200000
23f800
220800
220800
220800
220800
220800
23f800
200000
200000
200000
1fff00
000000
000000
000000
ENDCHAR
STARTCHAR 4635
ENCODING 17973
SWIDTH 666 0
DWIDTH 18 0
BBX 18 19 0 -1
BITMAP
000000
000400
000400
7c8400
448400
448400
448400
448400
448400
448400
448400
448400
7c9c00
40e400
000400
000400
000400
000000
000000
ENDCHAR
STARTCHAR 4636
ENCODING 17974
SWIDTH 666 0
DWIDTH 18 0
BBX 18 19 0 -1
BITMAP
000000
1ff800
100800
100800
100800
100800
1ff800
010000
010000
7ffe00
010200
020200
020200
040600
080400
101c00
000000
000000
000000
ENDCHAR
STARTCHAR 4637
ENCODING 17975
SWIDTH 666 0
DWIDTH 18 0
BBX 18 19 0 -1
BITMAP
000000
000000
1ffc00
100400
100400
100400
100400
100400
100400
100400
1ffc00
100400
000000
041000
080800
100400
200200
000000
000000
ENDCHAR
STARTCHAR 4638
ENCODING 17976
SWIDTH 666 0
DWIDTH 18 0
BBX 18 19 0 -1
BITMAP
000000
008000
008000
008000
3ffe00
208200
208200
208200
3ffe00
208200
008000
090000
050000
020000
058000
187000
600f00
000000
000000
ENDCHAR
STARTCHAR 4639
ENCODING 17977
SWIDTH 666 0
DWIDTH 18 0
BBX 18 19 0 -1
BITMAP
000000
004000
004000
004000
7c4000
444700
447800
45c000
444000
444000
444000
444000
7c4000
404000
004000
003f00
000000
000000
000000
ENDCHAR
STARTCHAR 463a
ENCODING 17978
SWIDTH 666 0
DWIDTH 18 0
BBX 18 19 0 -1
BITMAP
000000
010000
010000
021000
040800
080400
10fc00
7f0200
000100
000000
1ffc00
100400
100400
100400
100400
1ffc00
100400
000000
000000
ENDCHAR
STARTCHAR 463b
ENCODING 17979
SWIDTH 666 0
DWIDTH 18 0
BBX 18 19 0 -1
BITMAP
000000
040000
040000
0ffe00
080200
100200
100200
27e200
442200
042200
042200
07e200
040200
000200
000400
000400
003c00
000000
000000
ENDCHAR
STARTCHAR 463c
ENCODING 17980
SWIDTH 666 0
DWIDTH 18 0
BBX 18 19 0 -1
BITMAP
000000
000000
003800
7c0800
448800
448800
448800
448800
448800
448800
450400
450400
7d0400
410400
020200
020200
040100
000000
000000
ENDCHAR
STARTCHAR 463d
ENCODING 17981
SWIDTH 666 0
DWIDTH 18 0
BBX 18 19 0 -1
BITMAP
000000
002000
002000
7c2000
47ff00
442100
442100
442100
442100
442100
442100
442100
7c4100
008100
010100
020900
040600
000000
000000
ENDCHAR
STARTCHAR 463e
ENCODING 17982
SWIDTH 666 0
DWIDTH 18 0
BBX 18 19 0 -1
BITMAP
000000
000000
000000
3ffe00
224200
224200
224200
224200
244200
244200
283e00
300200
200200
200200
3ffe00
200200
000000
000000
000000
ENDCHAR
STARTCHAR 463f
ENCODING 17983
SWIDTH 666 0
DWIDTH 18 0
BBX 18 19 0 -1
BITMAP
000000
000000
3ffe00
200200
200200
208200
208200
208200
208200
214200
214200
222200
241200
280a00
200200
3ffe00
200200
000000
000000
ENDCHAR
STARTCHAR 4640
ENCODING 17984
SWIDTH 666 0
DWIDTH 18 0
BBX 18 19 0 -1
BITMAP
000000
041000
041000
041000
0f9000
089000
089000
109800
191400
251200
431100
021000
021000
041000
081000
101000
201000
000000
000000
ENDCHAR
STARTCHAR 4641
ENCODING 17985
SWIDTH 666 0
DWIDTH 18 0
BBX 18 19 0 -1
BITMAP
000000
008000
008000
008000
1ffc00
108400
108400
108400
108400
7fff00
008000
014000
014000
022000
041000
180c00
600300
000000
000000
ENDCHAR
STARTCHAR 4642
ENCODING 17986
SWIDTH 666 0
DWIDTH 18 0
BBX 18 19 0 -1
BITMAP
000000
008000
088000
088000
1ffc00
108000
208000
008000
008000
7fff00
008000
014000
014000
022000
041000
180c00
600300
000000
000000
ENDCHAR
STARTCHAR 4643
ENCODING 17987
SWIDTH 666 0
DWIDTH 18 0
BBX 18 19 0 -1
BITMAP
000000
080000
080000
08fe00
124200
7f4200
124400
124400
124400
222800
242800
343000
4c1000
0a2800
104400
218200
420100
000000
000000
ENDCHAR
STARTCHAR 4644
ENCODING 17988
SWIDTH 666 0
DWIDTH 18 0
BBX 18 19 0 -1
BITMAP
000000
11fc00
104400
124400
7f4400
124400
124400
124700
124100
224100
244100
444100
244100
188100
148200
251200
420c00
000000
000000
ENDCHAR
STARTCHAR 4645
ENCODING 17989
SWIDTH 666 0
DWIDTH 18 0
BBX 18 19 0 -1
BITMAP
000000
000000
3ff000
041000
082000
083e00
100200
27f200
402400
005c00
008000
7fff00
008000
008000
008000
008000
038000
000000
000000
ENDCHAR
STARTCHAR 4646
ENCODING 17990
SWIDTH 666 0
DWIDTH 18 0
BBX 18 19 0 -1
BITMAP
000000
008000
008000
7fff00
400100
400100
080000
080c00
083000
09c000
0e0000
080000
080200
080200
080200
07fe00
000000
000000
000000
ENDCHAR
STARTCHAR 4647
ENCODING 17991
SWIDTH 666 0
DWIDTH 18 0
BBX 18 19 0 -1
BITMAP
000000
000000
1ffe00
100200
100200
100200
1ffe00
100000
120000
120000
13fe00
120000
220000
220100
220100
420100
01ff00
000000
000000
ENDCHAR
STARTCHAR 4648
ENCODING 17992
SWIDTH 666 0
DWIDTH 18 0
BBX 18 19 0 -1
BITMAP
000000
000000
3ffe00
100000
100000
100000
1ffc00
100400
100400
100400
1ffc00
100400
100000
100000
100000
3ffe00
000000
000000
000000
ENDCHAR
STARTCHAR 4649
ENCODING 17993
SWIDTH 666 0
DWIDTH 18 0
BBX 18 19 0 -1
BITMAP
000000
000000
03ff00
004000
7e4000
084000
088000
088000
08fe00
088200
080200
0e0200
700200
000200
000400
000400
003c00
000000
000000
ENDCHAR
ENDFONT
